999
"DXF R12 Output" (www.mydxf.blogspot.com)
 0 
SECTION
 2 
HEADER
 9 
$ACADVER
 1 
AC1009
 9 
$EXTMIN
 10 
 0 
 20 
 0 
 9 
$EXTMAX
 10 
 8.5 
 20 
 11 
 0 
ENDSEC
 0 
SECTION
 2 
ENTITIES
0
LINE
8
Schneidkontur außen
10
0.125000
20
76.125001
11
132.125000
21
76.125001
0
LINE
8
Schneidkontur außen
10
132.125000
20
76.125001
11
132.125000
21
0.125001
0
LINE
8
Schneidkontur außen
10
132.125000
20
0.125001
11
0.125000
21
0.125001
0
LINE
8
Schneidkontur außen
10
0.125000
20
0.125001
11
0.125000
21
76.125001
0
LINE
8
Durchlicht
10
11.100000
20
3.150000
11
12.000000
21
3.150000
0
LINE
8
Durchlicht
10
12.000000
20
3.150000
11
12.000000
21
73.150000
0
LINE
8
Durchlicht
10
12.000000
20
73.150000
11
11.100000
21
73.150000
0
LINE
8
Durchlicht
10
11.100000
20
73.150000
11
11.100000
21
3.150000
0
LINE
8
Stanzen
10
13.150000
20
61.250000
11
22.950000
21
61.250000
0
LINE
8
Stanzen
10
22.950000
20
61.250000
11
23.925843
21
61.055893
0
LINE
8
Stanzen
10
23.925843
20
61.055893
11
24.753122
21
60.503122
0
LINE
8
Stanzen
10
24.753122
20
60.503122
11
25.305893
21
59.675843
0
LINE
8
Stanzen
10
25.305893
20
59.675843
11
25.500000
21
58.700000
0
LINE
8
Stanzen
10
25.500000
20
58.700000
11
25.500000
21
58.700000
0
LINE
8
Stanzen
10
25.500000
20
58.700000
11
25.305893
21
57.724157
0
LINE
8
Stanzen
10
25.305893
20
57.724157
11
24.753122
21
56.896878
0
LINE
8
Stanzen
10
24.753122
20
56.896878
11
23.925843
21
56.344107
0
LINE
8
Stanzen
10
23.925843
20
56.344107
11
22.950000
21
56.150000
0
LINE
8
Stanzen
10
22.950000
20
56.150000
11
13.150000
21
56.150000
0
LINE
8
Stanzen
10
13.150000
20
56.150000
11
12.174157
21
56.344107
0
LINE
8
Stanzen
10
12.174157
20
56.344107
11
11.346878
21
56.896878
0
LINE
8
Stanzen
10
11.346878
20
56.896878
11
10.794107
21
57.724157
0
LINE
8
Stanzen
10
10.794107
20
57.724157
11
10.600000
21
58.700000
0
LINE
8
Stanzen
10
10.600000
20
58.700000
11
10.600000
21
58.700000
0
LINE
8
Stanzen
10
10.600000
20
58.700000
11
10.794107
21
59.675843
0
LINE
8
Stanzen
10
10.794107
20
59.675843
11
11.346878
21
60.503122
0
LINE
8
Stanzen
10
11.346878
20
60.503122
11
12.174157
21
61.055893
0
LINE
8
Stanzen
10
12.174157
20
61.055893
11
13.150000
21
61.250000
0
LINE
8
Stanzen
10
13.150000
20
61.250000
11
13.150000
21
61.250000
0
LINE
8
Stanzen
10
10.602000
20
54.549999
11
122.602000
21
54.549999
0
LINE
8
Stanzen
10
122.602000
20
54.549999
11
122.602000
21
50.149999
0
LINE
8
Stanzen
10
122.602000
20
50.149999
11
10.602000
21
50.149999
0
LINE
8
Stanzen
10
10.602000
20
50.149999
11
10.602000
21
54.549999
0
LINE
8
Durchlicht
10
11.100000
20
3.150000
11
12.000000
21
3.150000
0
LINE
8
Durchlicht
10
12.000000
20
3.150000
11
12.000000
21
73.150000
0
LINE
8
Durchlicht
10
12.000000
20
73.150000
11
11.100000
21
73.150000
0
LINE
8
Durchlicht
10
11.100000
20
73.150000
11
11.100000
21
3.150000
0
LINE
8
Durchlicht
10
23.160000
20
3.150000
11
24.060000
21
3.150000
0
LINE
8
Durchlicht
10
24.060000
20
3.150000
11
24.060000
21
73.150000
0
LINE
8
Durchlicht
10
24.060000
20
73.150000
11
23.160000
21
73.150000
0
LINE
8
Durchlicht
10
23.160000
20
73.150000
11
23.160000
21
3.150000
0
LINE
8
Durchlicht
10
35.220000
20
3.150000
11
36.120000
21
3.150000
0
LINE
8
Durchlicht
10
36.120000
20
3.150000
11
36.120000
21
73.150000
0
LINE
8
Durchlicht
10
36.120000
20
73.150000
11
35.220000
21
73.150000
0
LINE
8
Durchlicht
10
35.220000
20
73.150000
11
35.220000
21
3.150000
0
LINE
8
Durchlicht
10
47.280000
20
3.150000
11
48.180000
21
3.150000
0
LINE
8
Durchlicht
10
48.180000
20
3.150000
11
48.180000
21
73.150000
0
LINE
8
Durchlicht
10
48.180000
20
73.150000
11
47.280000
21
73.150000
0
LINE
8
Durchlicht
10
47.280000
20
73.150000
11
47.280000
21
3.150000
0
LINE
8
Durchlicht
10
59.340000
20
3.150000
11
60.240000
21
3.150000
0
LINE
8
Durchlicht
10
60.240000
20
3.150000
11
60.240000
21
73.150000
0
LINE
8
Durchlicht
10
60.240000
20
73.150000
11
59.340000
21
73.150000
0
LINE
8
Durchlicht
10
59.340000
20
73.150000
11
59.340000
21
3.150000
0
LINE
8
Durchlicht
10
71.400000
20
3.150000
11
72.300000
21
3.150000
0
LINE
8
Durchlicht
10
72.300000
20
3.150000
11
72.300000
21
73.150000
0
LINE
8
Durchlicht
10
72.300000
20
73.150000
11
71.400000
21
73.150000
0
LINE
8
Durchlicht
10
71.400000
20
73.150000
11
71.400000
21
3.150000
0
LINE
8
Durchlicht
10
83.460000
20
3.150000
11
84.360000
21
3.150000
0
LINE
8
Durchlicht
10
84.360000
20
3.150000
11
84.360000
21
73.150000
0
LINE
8
Durchlicht
10
84.360000
20
73.150000
11
83.460000
21
73.150000
0
LINE
8
Durchlicht
10
83.460000
20
73.150000
11
83.460000
21
3.150000
0
LINE
8
Durchlicht
10
95.520000
20
3.150000
11
96.420000
21
3.150000
0
LINE
8
Durchlicht
10
96.420000
20
3.150000
11
96.420000
21
73.150000
0
LINE
8
Durchlicht
10
96.420000
20
73.150000
11
95.520000
21
73.150000
0
LINE
8
Durchlicht
10
95.520000
20
73.150000
11
95.520000
21
3.150000
0
LINE
8
Durchlicht
10
107.580000
20
3.150000
11
108.480000
21
3.150000
0
LINE
8
Durchlicht
10
108.480000
20
3.150000
11
108.480000
21
73.150000
0
LINE
8
Durchlicht
10
108.480000
20
73.150000
11
107.580000
21
73.150000
0
LINE
8
Durchlicht
10
107.580000
20
73.150000
11
107.580000
21
3.150000
0
LINE
8
Durchlicht
10
119.640000
20
3.150000
11
120.540000
21
3.150000
0
LINE
8
Durchlicht
10
120.540000
20
3.150000
11
120.540000
21
73.150000
0
LINE
8
Durchlicht
10
120.540000
20
73.150000
11
119.640000
21
73.150000
0
LINE
8
Durchlicht
10
119.640000
20
73.150000
11
119.640000
21
3.150000
 0 
ENDSEC
 0 
EOF