<?xml version="1.0" encoding="UTF-8" standalone="no"?>
<!-- Created with Inkscape (http://www.inkscape.org/) -->

<svg
   width="149mm"
   height="75.199997mm"
   viewBox="0 0 148.99999 75.199997"
   version="1.1"
   id="svg1"
   inkscape:version="1.4 (e7c3feb100, 2024-10-09)"
   sodipodi:docname="PANP.svg"
   xml:space="preserve"
   xmlns:inkscape="http://www.inkscape.org/namespaces/inkscape"
   xmlns:sodipodi="http://sodipodi.sourceforge.net/DTD/sodipodi-0.dtd"
   xmlns="http://www.w3.org/2000/svg"
   xmlns:svg="http://www.w3.org/2000/svg"><sodipodi:namedview
     id="namedview1"
     pagecolor="#ffffff"
     bordercolor="#000000"
     borderopacity="0.25"
     inkscape:showpageshadow="2"
     inkscape:pageopacity="0.0"
     inkscape:pagecheckerboard="0"
     inkscape:deskcolor="#d1d1d1"
     inkscape:document-units="mm"
     inkscape:zoom="1.2643177"
     inkscape:cx="281.5748"
     inkscape:cy="141.97381"
     inkscape:window-width="1366"
     inkscape:window-height="768"
     inkscape:window-x="0"
     inkscape:window-y="0"
     inkscape:window-maximized="1"
     inkscape:current-layer="g11"
     showguides="true"><sodipodi:guide
       position="9.4988806,90.064681"
       orientation="1,0"
       id="guide1"
       inkscape:locked="false" /><sodipodi:guide
       position="107.63016,115.92588"
       orientation="1,0"
       id="guide5"
       inkscape:locked="false" /><sodipodi:guide
       position="3.8439488,51.979163"
       orientation="0,-1"
       id="guide6"
       inkscape:locked="false" /><sodipodi:guide
       position="4.7797214,46.198895"
       orientation="0,-1"
       id="guide7"
       inkscape:locked="false" /><sodipodi:guide
       position="145.00045,90.152587"
       orientation="1,0"
       id="guide8"
       inkscape:locked="false" /><sodipodi:guide
       position="137.81375,74.795878"
       orientation="0,-1"
       id="guide9"
       inkscape:locked="false" /><sodipodi:guide
       position="137.66362,4.3950464"
       orientation="0,-1"
       id="guide10"
       inkscape:locked="false" /><sodipodi:guide
       position="0.019619031,71.204253"
       orientation="0,-1"
       id="guide11"
       inkscape:locked="false" /><sodipodi:guide
       position="42.500984,49.156027"
       orientation="1,0"
       id="guide12"
       inkscape:locked="false" /><sodipodi:guide
       position="75.804472,46.846769"
       orientation="1,0"
       id="guide13"
       inkscape:locked="false" /></sodipodi:namedview><defs
     id="defs1"><rect
       x="59.324741"
       y="169.13863"
       width="408.79782"
       height="31.09214"
       id="rect4" /><rect
       x="59.324741"
       y="169.13863"
       width="331.96613"
       height="42.284657"
       id="rect4-3" /><rect
       x="59.324741"
       y="169.13863"
       width="331.96613"
       height="42.284657"
       id="rect4-3-6" /><rect
       x="59.324741"
       y="169.13863"
       width="331.96613"
       height="42.284657"
       id="rect4-3-6-2" /><rect
       x="59.324741"
       y="169.13863"
       width="478.95245"
       height="47.7216"
       id="rect4-9" /><rect
       x="59.324741"
       y="169.13863"
       width="243.35835"
       height="23.381802"
       id="rect4-9-3" /><rect
       x="59.324741"
       y="169.13863"
       width="331.96613"
       height="42.284657"
       id="rect4-3-6-2-0" /><rect
       x="59.324741"
       y="169.13863"
       width="331.96613"
       height="42.284657"
       id="rect4-3-6-2-0-5" /><rect
       x="59.324741"
       y="169.13863"
       width="331.96613"
       height="42.284657"
       id="rect4-3-6-4" /><rect
       x="59.324741"
       y="169.13863"
       width="331.96613"
       height="42.284657"
       id="rect4-3-6-4-0" /><rect
       x="59.324741"
       y="169.13863"
       width="331.96613"
       height="42.284657"
       id="rect4-3-6-4-3" /><rect
       x="50.195766"
       y="271.95618"
       width="35.961143"
       height="59.18605"
       id="rect7226" /><rect
       x="336.28207"
       y="457.80215"
       width="255.26865"
       height="246.09732"
       id="rect2047" /><rect
       x="336.28207"
       y="457.80215"
       width="255.26865"
       height="246.09732"
       id="rect2047-9" /><rect
       x="50.195766"
       y="271.95618"
       width="35.961143"
       height="59.18605"
       id="rect7226-9" /><rect
       x="50.195766"
       y="271.95618"
       width="35.961143"
       height="59.18605"
       id="rect7226-3" /><rect
       x="336.28207"
       y="457.80215"
       width="255.26865"
       height="246.09732"
       id="rect2047-6" /><rect
       x="336.28207"
       y="457.80215"
       width="255.26865"
       height="246.09732"
       id="rect2047-9-7" /><rect
       x="50.195766"
       y="271.95618"
       width="35.961143"
       height="59.18605"
       id="rect7226-9-5" /><rect
       x="59.324741"
       y="169.13863"
       width="408.79782"
       height="31.09214"
       id="rect4-5" /><rect
       x="59.324741"
       y="169.13863"
       width="408.79782"
       height="31.09214"
       id="rect4-7" /><rect
       x="59.324741"
       y="169.13863"
       width="408.79782"
       height="31.09214"
       id="rect4-7-2" /></defs><g
     inkscape:groupmode="layer"
     id="layer5"
     inkscape:label="Tachohintergrund für bessere Ansicht"><rect
       style="fill:#121212;fill-opacity:1;stroke-width:0.269331"
       id="rect22"
       width="148.22862"
       height="74.468452"
       x="0.2729359"
       y="0.27061057" /></g><g
     inkscape:groupmode="layer"
     id="layer2"
     inkscape:label="Durchlicht weiß matt"
     inkscape:tile-cx="11.55"
     inkscape:tile-cy="38.099999"
     inkscape:tile-w="0.89999996"
     inkscape:tile-h="69.999999"
     inkscape:tile-x0="11.1"
     inkscape:tile-y0="3.0999998"
     transform="matrix(1,0,0,-1,-1.586804e-7,76.200002)"
     style="fill:#cccccc;fill-opacity:1"><text
       xml:space="preserve"
       transform="matrix(0.17750851,0,0,-0.18462392,-0.10365574,84.787585)"
       id="text1"
       style="font-size:19.7626px;text-align:start;writing-mode:lr-tb;direction:ltr;white-space:pre;shape-inside:url(#rect4);display:inline;fill:#cccccc;fill-opacity:1;stroke-width:0.944882"
       inkscape:label="FUEL GALLONS Text"><tspan
         x="59.324219"
         y="186.62394"
         id="tspan4"><tspan
           style="font-weight:bold;font-stretch:expanded;font-family:'Eurostile LT Std';-inkscape-font-specification:'Eurostile LT Std Bold Expanded'"
           id="tspan3">POWER</tspan></tspan></text><text
       xml:space="preserve"
       transform="matrix(0.17750851,0,0,-0.18462392,67.637344,84.776632)"
       id="text1-9"
       style="font-size:19.7626px;text-align:start;writing-mode:lr-tb;direction:ltr;white-space:pre;shape-inside:url(#rect4-7);display:inline;fill:#cccccc;fill-opacity:1;stroke-width:0.944882"
       inkscape:label="FUEL GALLONS Text"><tspan
         x="59.324219"
         y="186.62394"
         id="tspan7"><tspan
           style="font-weight:bold;font-stretch:expanded;font-family:'Eurostile LT Std';-inkscape-font-specification:'Eurostile LT Std Bold Expanded'"
           id="tspan5">NORM</tspan></tspan></text><text
       xml:space="preserve"
       transform="matrix(0.17750851,0,0,-0.18462392,97.038344,84.791299)"
       id="text1-9-1"
       style="font-size:19.7626px;text-align:start;writing-mode:lr-tb;direction:ltr;white-space:pre;shape-inside:url(#rect4-7-2);display:inline;fill:#cccccc;fill-opacity:1;stroke-width:0.944882"
       inkscape:label="FUEL GALLONS Text"><tspan
         x="59.324219"
         y="186.62394"
         id="tspan9"><tspan
           style="font-weight:bold;font-stretch:expanded;font-family:'Eurostile LT Std';-inkscape-font-specification:'Eurostile LT Std Bold Expanded'"
           id="tspan8">PURSUIT</tspan></tspan></text><text
       xml:space="preserve"
       transform="matrix(0.17750851,0,0,-0.18462392,35.282414,84.79349)"
       id="text1-2"
       style="font-size:19.7626px;text-align:start;writing-mode:lr-tb;direction:ltr;white-space:pre;shape-inside:url(#rect4-5);display:inline;fill:#cccccc;fill-opacity:1;stroke-width:0.944882"
       inkscape:label="FUEL GALLONS Text"><tspan
         x="59.324219"
         y="186.62394"
         id="tspan11"><tspan
           style="font-weight:bold;font-stretch:expanded;font-family:'Eurostile LT Std';-inkscape-font-specification:'Eurostile LT Std Bold Expanded'"
           id="tspan10">AUTO</tspan></tspan></text><text
       xml:space="preserve"
       style="font-weight:500;font-size:4.23333px;font-family:Tuffy;-inkscape-font-specification:'Tuffy Medium';text-align:center;letter-spacing:0px;word-spacing:0px;writing-mode:lr-tb;direction:ltr;text-anchor:middle;fill:#cccccc;fill-opacity:1;stroke-width:0.25"
       x="78.316795"
       y="-88.598434"
       id="text2"
       transform="scale(1,-1)"><tspan
         sodipodi:role="line"
         id="tspan1"
         style="fill:#cccccc;fill-opacity:1;stroke-width:0.25"
         x="78.953445"
         y="-88.598434">  </tspan></text></g><g
     inkscape:groupmode="layer"
     id="layer6"
     inkscape:label="Transparenz für Fototransistor"><circle
       style="fill:#595959;stroke-width:0.141164"
       id="path1"
       cx="68.82766"
       cy="23.727406"
       r="2.4430022" /></g><g
     inkscape:groupmode="layer"
     id="layer4"
     inkscape:label="Siebdruck weiß"
     style="fill:#ffffff;fill-opacity:1"><path
       style="fill:#ffffff;fill-opacity:1;stroke-width:0.191927"
       d="m 77.275288,70.287129 v -1.20567 h 0.162548 0.162548 v 1.20567 1.205672 h -0.162548 -0.162548 z m 0.487644,0 v -1.20567 h 0.08127 0.08127 v 1.20567 1.205672 h -0.08127 -0.08127 z m 0.487643,0 v -1.20567 h 0.08127 0.08127 v 1.20567 1.205672 h -0.08127 -0.08127 z m 0.81274,0 v -1.20567 h 0.08127 0.08127 v 1.20567 1.205672 h -0.08127 -0.08127 z m 0.650191,0 v -1.20567 h 0.08127 0.08127 v 1.20567 1.205672 h -0.08127 -0.08127 z m 0.650192,0 v -1.20567 h 0.162548 0.162546 v 1.20567 1.205672 h -0.162546 -0.162548 z m 0.487644,0 v -1.20567 h 0.243822 0.243821 v 1.20567 1.205672 h -0.243821 -0.243822 z m 0.81274,0 v -1.20567 h 0.08127 0.08127 v 1.20567 1.205672 h -0.08127 -0.08127 z m 0.325094,0 v -1.20567 h 0.162549 0.162547 v 1.20567 1.205672 h -0.162547 -0.162549 z m 0.650191,0 v -1.20567 h 0.243823 0.243822 v 1.20567 1.205672 H 82.88319 82.639367 Z m 0.812741,0 v -1.20567 h 0.08127 0.08127 v 1.20567 1.205672 h -0.08127 -0.08127 z m 0.325096,0 v -1.20567 h 0.162548 0.162547 v 1.20567 1.205672 h -0.162547 -0.162548 z m 0.650191,0 v -1.20567 h 0.08127 0.08127 v 1.20567 1.205672 h -0.08127 -0.08127 z m 0.325096,0 v -1.20567 h 0.08127 0.08127 v 1.20567 1.205672 h -0.08127 -0.08127 z m 0.650191,0 v -1.20567 h 0.162549 0.162548 v 1.20567 1.205672 h -0.162548 -0.162549 z m 0.81274,0 v -1.20567 h 0.08127 0.08127 v 1.20567 1.205672 h -0.08127 -0.08127 z m 0.487643,0 v -1.20567 h 0.162548 0.162548 v 1.20567 1.205672 h -0.162548 -0.162548 z m 0.487644,0 v -1.20567 h 0.243823 0.243821 v 1.20567 1.205672 h -0.243821 -0.243823 z m 0.81274,0 v -1.20567 h 0.08127 0.08127 v 1.20567 1.205672 h -0.08127 -0.08127 z m 0.325096,0 v -1.20567 h 0.243822 0.243821 v 1.20567 1.205672 h -0.243821 -0.243822 z m 0.65019,0 v -1.20567 h 0.325097 0.325096 v 1.20567 1.205672 h -0.325096 -0.325097 z m 0.81274,0 v -1.20567 h 0.243822 0.243822 v 1.20567 1.205672 h -0.243822 -0.243822 z m 0.812739,0 v -1.20567 h 0.162549 0.162548 v 1.20567 1.205672 h -0.162548 -0.162549 z m 0.487644,0 v -1.20567 h 0.08127 0.08127 v 1.20567 1.205672 h -0.08127 -0.08127 z m 0.487644,0 v -1.20567 h 0.08127 0.08127 v 1.20567 1.205672 h -0.08127 -0.08127 z m 0.325096,0 v -1.20567 h 0.162548 0.162548 v 1.20567 1.205672 h -0.162548 -0.162548 z m 0.81274,0 v -1.20567 h 0.243821 0.243822 v 1.20567 1.205672 h -0.243822 -0.243821 z m 0.650191,0 v -1.20567 h 0.08127 0.08127 v 1.20567 1.205672 h -0.08127 -0.08127 z m 0.325096,0 v -1.20567 h 0.325096 0.325096 v 1.20567 1.205672 h -0.325096 -0.325096 z m 0.812739,0 v -1.20567 h 0.243822 0.243823 v 1.20567 1.205672 h -0.243823 -0.243822 z m 0.650192,0 v -1.20567 h 0.08127 0.08127 v 1.20567 1.205672 h -0.08127 -0.08127 z m 0.487644,0 v -1.20567 h 0.162547 0.162548 v 1.20567 1.205672 H 95.805747 95.6432 Z m 0.487644,0 v -1.20567 h 0.243821 0.243822 v 1.20567 1.205672 h -0.243822 -0.243821 z m 0.812738,0 v -1.20567 h 0.08127 0.08127 v 1.20567 1.205672 h -0.08127 -0.08127 z m 0.325096,0 v -1.20567 h 0.243823 0.243821 v 1.20567 1.205672 h -0.243821 -0.243823 z m 0.650192,0 v -1.20567 h 0.325095 0.325096 v 1.20567 1.205672 H 98.243965 97.91887 Z m 0.812741,0 v -1.20567 h 0.162546 0.162547 v 1.20567 1.205672 h -0.162547 -0.162546 z m 0.487642,0 v -1.20567 h 0.3251 0.32509 v 1.20567 1.205672 h -0.32509 -0.3251 z m 0.812737,0 v -1.20567 h 0.16255 0.16255 v 1.20567 1.205672 h -0.16255 -0.16255 z m 0.48765,0 v -1.20567 h 0.0813 0.0813 v 1.20567 1.205672 h -0.0813 -0.0813 z m 0.48764,0 v -1.20567 h 0.16255 0.16255 v 1.20567 1.205672 h -0.16255 -0.16255 z m 0.48765,0 v -1.20567 h 0.0813 0.0813 v 1.20567 1.205672 h -0.0813 -0.0813 z m 0.81274,0 v -1.20567 h 0.0813 0.0813 v 1.20567 1.205672 h -0.0813 -0.0813 z m 0.3251,0 v -1.20567 h 0.3251 0.3251 v 1.20567 1.205672 h -0.3251 -0.3251 z m 0.81275,0 v -1.20567 h 0.24382 0.24382 v 1.20567 1.205672 h -0.24382 -0.24382 z m 0.65019,0 v -1.20567 h 0.0813 0.0813 v 1.20567 1.205672 h -0.0813 -0.0813 z m 0.48765,0 v -1.20567 h 0.16255 0.16255 v 1.20567 1.205672 h -0.16255 -0.16255 z m 0.48764,0 v -1.20567 h 0.24383 0.24382 v 1.20567 1.205672 h -0.24382 -0.24383 z m 0.81275,0 v -1.20567 h 0.0813 0.0813 v 1.20567 1.205672 h -0.0813 -0.0813 z m 0.32509,0 v -1.20567 h 0.24383 0.24382 v 1.20567 1.205672 h -0.24382 -0.24383 z m 0.6502,0 v -1.20567 h 0.3251 0.3251 v 1.20567 1.205672 h -0.3251 -0.3251 z m 0.81274,0 v -1.20567 h 0.0813 0.0813 v 1.20567 1.205672 h -0.0813 -0.0813 z m 0.6502,0 v -1.20567 h 0.16255 0.16255 v 1.20567 1.205672 h -0.16255 -0.16255 z m 0.81274,0 v -1.20567 h 0.0813 0.0813 v 1.20567 1.205672 h -0.0813 -0.0813 z m 0.3251,0 v -1.20567 h 0.24382 0.24383 v 1.20567 1.205672 h -0.24383 -0.24382 z m 0.6502,0 v -1.20567 h 0.0813 0.0813 v 1.20567 1.205672 h -0.0813 -0.0813 z m 0.32509,0 v -1.20567 h 0.16255 0.16255 v 1.20567 1.205672 h -0.16255 -0.16255 z m 0.81275,0 v -1.20567 h 0.0813 0.0813 v 1.20567 1.205672 h -0.0813 -0.0813 z m 0.32509,0 v -1.20567 h 0.3251 0.3251 v 1.20567 1.205672 h -0.3251 -0.3251 z m 0.81275,0 v -1.20567 h 0.24382 0.24382 v 1.20567 1.205672 h -0.24382 -0.24382 z m 0.65019,0 v -1.20567 h 0.16255 0.16253 v 1.20567 1.205672 h -0.16253 -0.16255 z m 0.48764,0 v -1.20567 h 0.16256 0.16253 v 1.20567 1.205672 h -0.16253 -0.16256 z m 0.65019,0 v -1.20567 h 0.16255 0.16256 v 1.20567 1.205672 h -0.16256 -0.16255 z m 0.65019,0 v -1.20567 h 0.24383 0.24382 v 1.20567 1.205672 h -0.24382 -0.24383 z m 0.65019,0 v -1.20567 h 0.0813 0.0813 v 1.20567 1.205672 h -0.0813 -0.0813 z m 0.32511,0 v -1.20567 h 0.16254 0.16254 v 1.20567 1.205672 h -0.16254 -0.16254 z m 0.81274,0 v -1.20567 h 0.16254 0.16254 v 1.20567 1.205672 h -0.16254 -0.16254 z m 0.81274,0 v -1.20567 h 0.2438 0.24384 v 1.20567 1.205672 h -0.24384 -0.2438 z m 0.65018,0 v -1.20567 h 0.0813 0.0813 v 1.20567 1.205672 h -0.0813 -0.0813 z m 0.3251,0 v -1.20567 h 0.16253 0.16256 v 1.20567 1.205672 h -0.16256 -0.16253 z"
       id="path15"
       sodipodi:nodetypes="cccccccccccccccccccccccccccccccccccccccccccccccccccccccccccccccccccccccccccccccccccccccccccccccccccccccccccccccccccccccccccccccccccccccccccccccccccccccccccccccccccccccccccccccccccccccccccccccccccccccccccccccccccccccccccccccccccccccccccccccccccccccccccccccccccccccccccccccccccccccccccccccccccccccccccccccccccccccccccccccccccccccccccccccccccccccccccccccccccccccccccccccccccccccccccccccccccccccccccccccccccccccccccccccccccccccccccccccccccccccccccccccccccccccccccccccccccccccccccccccccccccccccccccccccccccccccccccccccccccccccccccccccccccccccccccccccccccccccccccccccccccccccccccccccccccccccccccccccccccccccccccccccccccccccccccccccccccc"
       inkscape:label="Seriennummer Barcode" /><text
       xml:space="preserve"
       style="font-size:3.23057px;font-family:'Eurostile LT Std';-inkscape-font-specification:'Eurostile LT Std';text-align:start;letter-spacing:0px;word-spacing:0px;writing-mode:lr-tb;direction:ltr;text-anchor:start;fill:#ffffff;fill-opacity:1;stroke-width:0.190782"
       x="35.875771"
       y="71.398422"
       id="text6-5"
       inkscape:label="Seriennummer"><tspan
         sodipodi:role="line"
         id="tspan6-9"
         style="font-style:normal;font-variant:normal;font-weight:500;font-stretch:normal;font-size:3.23057px;font-family:Tuffy;-inkscape-font-specification:'Tuffy Medium';fill:#ffffff;fill-opacity:1;stroke-width:0.190782"
         x="35.875771"
         y="71.398422">S/N: D212-2856-0949-7521 </tspan></text><text
       xml:space="preserve"
       style="font-size:3.2346px;font-family:'Eurostile LT Std';-inkscape-font-specification:'Eurostile LT Std';text-align:start;letter-spacing:0px;word-spacing:0px;writing-mode:lr-tb;direction:ltr;text-anchor:start;fill:#ffffff;fill-opacity:1;stroke-width:0.19102"
       x="122.28873"
       y="3.5982087"
       id="text6-9-6"
       inkscape:label="Produktionsdatum"><tspan
         sodipodi:role="line"
         id="tspan6-7-3"
         style="font-style:normal;font-variant:normal;font-weight:500;font-stretch:normal;font-size:3.2346px;font-family:Tuffy;-inkscape-font-specification:'Tuffy Medium';fill:#ffffff;fill-opacity:1;stroke-width:0.19102"
         x="122.28873"
         y="3.5982087">MFG 2025-11</tspan></text><text
       xml:space="preserve"
       style="font-size:3.2346px;font-family:'Eurostile LT Std';-inkscape-font-specification:'Eurostile LT Std';text-align:start;letter-spacing:0px;word-spacing:0px;writing-mode:lr-tb;direction:ltr;text-anchor:start;fill:#ffffff;fill-opacity:1;stroke-width:0.19102"
       x="1.5600923"
       y="71.398849"
       id="text6-9-6-1"
       inkscape:label="Chargennummer"><tspan
         sodipodi:role="line"
         id="tspan6-7-3-5"
         style="font-style:normal;font-variant:normal;font-weight:500;font-stretch:normal;font-size:3.2346px;font-family:Tuffy;-inkscape-font-specification:'Tuffy Medium';fill:#ffffff;fill-opacity:1;stroke-width:0.19102"
         x="1.5600923"
         y="71.398849">LOT 7614B</tspan></text><path
       style="fill:#ffffff;fill-opacity:1;stroke-width:0.097122"
       d="m 133.91654,71.082581 0.006,-0.790179 0.80303,-0.0068 0.80303,-0.0068 v 0.796969 0.796968 h -0.80983 -0.80981 z m 1.38156,-0.0065 v -0.56533 h -0.56532 -0.56533 v 0.56533 0.565332 h 0.56533 0.56532 z m -0.92507,0.01285 v -0.346907 h 0.3469 0.34691 v 0.346907 0.346908 h -0.34691 -0.3469 z m 1.36193,0.218424 v -0.565331 h 0.11563 0.11563 v -0.115635 -0.115636 h -0.11563 -0.11563 V 70.279551 70.04828 h -0.33406 -0.33406 v -0.115636 -0.115637 h 0.23126 0.23128 v -0.102783 -0.102782 h -0.3469 -0.34691 V 69.495806 69.38017 h -0.11564 -0.11563 v 0.115636 0.115636 h -0.11564 -0.11563 V 69.38017 69.148897 h -0.11565 -0.11563 v 0.449696 0.449695 h -0.11564 -0.11563 v -0.449695 -0.449696 h 0.11563 0.11564 v -0.115635 -0.115636 h 0.11563 0.11565 v -0.115682 -0.115636 h -0.23128 -0.23127 v -0.231272 -0.231271 h 0.11563 0.11564 v -0.218424 -0.218423 h -0.11564 -0.11563 v -0.115636 -0.115636 h 0.11563 0.11564 v -0.115635 -0.115637 h -0.11564 -0.11563 v -0.578178 -0.57818 h 0.57818 0.57818 v 0.115636 0.115636 h 0.11564 0.11562 v -0.115636 -0.115636 h 0.56535 0.56533 v 0.115636 0.115636 h -0.11564 -0.11564 v 0.231272 0.231272 h 0.11564 0.11564 V 66.746196 66.63056 h 0.23126 0.23127 v 0.115636 0.115636 h -0.11563 -0.11564 v 0.231271 0.231271 h 0.34692 0.3469 v -0.115636 -0.115635 h -0.11564 -0.11563 v -0.115635 -0.115636 h 0.11563 0.11564 v 0.115636 0.115635 h 0.44969 0.44969 v 0.115635 0.115636 h 0.11565 0.11564 v -0.231271 -0.231271 h 0.23127 0.23126 V 66.746196 66.63056 h -0.23126 -0.23127 v -0.115637 -0.115635 h 0.23127 0.23126 v -0.115636 -0.115636 h 0.11565 0.11562 V 66.065234 65.96244 h -0.11562 -0.11565 v -0.115636 -0.115635 h 0.11565 0.11562 v -0.231272 -0.231272 h -0.11562 -0.11565 v 0.115637 0.115635 h -0.11564 -0.11562 v 0.231272 0.231271 h -0.11565 -0.11562 v 0.102794 0.102782 h -0.34691 -0.34692 V 66.065234 65.96244 h -0.11564 -0.11563 v -0.115636 -0.115635 h -0.10283 -0.10282 v 0.115635 0.115636 h -0.11565 -0.11562 v 0.102794 0.102782 h 0.21841 0.21842 v 0.231272 0.231272 h 0.34691 0.34691 v 0.115636 0.115636 h -0.34691 -0.34691 V 66.746196 66.63056 h -0.10282 -0.10283 v -0.115637 -0.115635 h -0.11565 -0.11562 v -0.115636 -0.115636 h -0.11564 -0.11564 v 0.115636 0.115636 h -0.11563 -0.11564 V 66.06527 65.731211 h 0.11564 0.11563 v -0.115636 -0.115637 h -0.11563 -0.11564 v -0.115634 -0.115637 h -0.11563 -0.11564 v 0.346908 0.346907 h -0.11563 -0.11564 v -0.346907 -0.346908 h -0.23128 -0.23126 v -0.115636 -0.115635 h 0.11562 0.11564 V 64.92176 64.806124 h -0.11564 -0.11562 v -0.115636 -0.115636 h 0.11562 0.11564 v -0.115636 -0.115634 h 0.11565 0.11563 v 0.23127 0.231272 h 0.11564 0.11563 v -0.115636 -0.115636 h 0.23127 0.23127 v 0.115636 0.115636 h -0.11563 -0.11564 v 0.231272 0.231271 h 0.23127 0.23128 v 0.115637 0.115634 h 0.11562 0.11565 v -0.231271 -0.231271 h 0.44969 0.44969 V 64.92176 64.806124 h -0.44969 -0.44969 v -0.231272 -0.23127 h 0.21842 0.21842 v 0.115634 0.115636 h 0.23127 0.23127 v 0.115636 0.115636 h 0.11565 0.11563 v -0.115636 -0.115636 h 0.11563 0.11565 v -0.115636 -0.115634 h 0.23126 0.23127 v 0.115634 0.115636 h 0.10283 0.10282 v -0.115636 -0.115634 h 0.11564 0.11563 v 0.23127 0.231272 h -0.11563 -0.11564 v 0.115636 0.115636 h 0.11564 0.11563 v 0.115635 0.115636 h -0.11563 -0.11564 v 0.115637 0.115634 h 0.11564 0.11563 v 0.334059 0.33406 h 0.11564 0.11565 v 0.115636 0.115636 h -0.11565 -0.11564 v 0.115635 0.115637 h 0.11564 0.11565 v 0.115636 0.115635 h 0.11562 0.11565 v 0.231272 0.231271 h -0.11565 -0.11562 v 0.231272 0.231272 h 0.11562 0.11565 v -0.115636 -0.115636 h 0.11562 0.11564 v -0.231272 -0.231271 h 0.11564 0.11563 v 0.231271 0.231272 h 0.11564 0.11563 v -0.346908 -0.346907 h -0.23127 -0.23127 v -0.115635 -0.115636 h 0.11564 0.11563 v -0.231272 -0.231272 h 0.11564 0.11563 v 0.115636 0.115636 h 0.11564 0.11564 v -0.115636 -0.115636 h 0.10283 0.10283 v 0.115636 0.115636 h -0.10283 -0.10283 v 0.115635 0.115637 h 0.10283 0.10283 v 0.115636 0.115635 h 0.11562 0.11565 v 0.115636 0.115636 h -0.11565 -0.11562 v 0.115635 0.115636 h -0.10283 -0.10283 v 0.115637 0.115635 h 0.10283 0.10283 v 0.115636 0.115636 h 0.11562 0.11565 v 0.102782 0.102783 h -0.11565 -0.11562 v 0.115636 0.115636 h -0.10283 -0.10283 v 0.115636 0.115636 h -0.11564 -0.11564 v -0.115636 -0.115636 h 0.11564 0.11564 v -0.33406 -0.334059 h -0.11564 -0.11564 v 0.115636 0.115636 h -0.3469 -0.3469 v 0.102783 0.102782 h -0.11565 -0.11562 v 0.115636 0.115636 h 0.11562 0.11565 v 0.115636 0.115636 h 0.11562 0.11564 v -0.115636 -0.115636 h 0.11564 0.11563 v 0.231272 0.231272 h 0.11564 0.11563 v 0.23127 0.231272 h 0.11564 0.11564 V 69.033236 68.9176 h 0.10283 0.10283 v -0.23127 -0.231272 h 0.11562 0.11565 v 0.231272 0.23127 h -0.11565 -0.11562 v 0.115636 0.115636 h 0.11562 0.11565 v 0.33406 0.334059 h -0.21842 -0.21842 v -0.102794 -0.102782 h 0.10283 0.10282 v -0.231272 -0.231272 h -0.10282 -0.10283 v 0.115636 0.115636 h -0.11565 -0.11563 v -0.115636 -0.115636 h -0.11564 -0.11563 v 0.231272 0.231272 h 0.11563 0.11564 v 0.218423 0.218424 h 0.11563 0.11565 v 0.115635 0.115635 h 0.10283 0.10282 v 0.115636 0.115637 h 0.11563 0.11564 v 0.231271 0.231272 h -0.11564 -0.11563 v 0.115636 0.115635 h -0.21842 -0.21843 v 0.115636 0.115636 h 0.33406 0.33406 v 0.102783 0.102783 h -0.11564 -0.11563 v 0.115637 0.115635 h -0.33405 -0.33407 v -0.115635 -0.115637 h -0.11562 -0.11565 v -0.102783 -0.102783 h 0.11565 0.11562 v -0.231272 -0.231271 h -0.11562 -0.11565 v 0.115636 0.115635 h -0.11564 -0.11562 v 0.115636 0.115636 h -0.11565 -0.11562 v 0.102783 0.102783 h 0.11562 0.11565 v 0.115637 0.115635 h -0.11565 -0.11562 v -0.115635 -0.115637 h -0.11565 -0.11564 v 0.115637 0.115635 h -0.11563 -0.11564 v -0.115635 -0.115637 h -0.21842 -0.21843 v 0.115637 0.115635 h -0.11563 -0.11563 v -0.115635 -0.115637 h -0.23127 -0.23128 v 0.115637 0.115635 h -0.11563 -0.11564 v -0.115635 -0.115637 h -0.11564 -0.11563 v 0.115637 0.115635 h -0.33406 -0.33405 v -0.115635 -0.115637 h -0.11564 -0.11565 v 0.115637 0.115635 h -0.11562 -0.11565 v -0.218423 -0.218423 h 0.11565 0.11562 v -0.115636 -0.115636 h -0.11562 -0.11565 v -0.115636 -0.115636 h -0.11562 -0.11564 v -0.115635 -0.115637 h -0.11563 -0.11564 v 0.115637 0.115635 h -0.11564 -0.11564 v 0.115636 0.115636 h 0.23128 0.23127 v 0.115636 0.115636 h -0.23127 -0.23128 v 0.218423 0.218423 h -0.11564 -0.11562 z m 2.05574,0.231272 v -0.102793 h -0.33405 -0.33406 v 0.102793 0.102783 h 0.33406 0.33405 z m 0.46254,0 v -0.102793 h 0.34691 0.34691 v -0.115681 -0.115637 h -0.11564 -0.11562 V 71.08893 70.973294 h -0.11565 -0.11562 v -0.115636 -0.115636 h -0.34691 -0.34692 V 70.626386 70.51075 h -0.21842 -0.21842 V 70.395114 70.27948 h 0.10283 0.10282 v -0.115637 -0.115636 h -0.21841 -0.21842 v -0.115635 -0.115637 h 0.56532 0.56533 v 0.115637 0.115635 h -0.23127 -0.23127 v 0.115636 0.115637 h 0.23127 0.23127 v 0.115634 0.115636 h 0.11565 0.11563 V 70.395114 70.27948 h 0.11563 0.11564 v 0.115634 0.115636 h 0.11563 0.11564 v 0.115636 0.115636 h 0.11564 0.11563 V 70.626386 70.51075 h -0.11563 -0.11564 V 70.395114 70.27948 h 0.11564 0.11563 v -0.115637 -0.115636 h 0.10282 0.10283 v -0.115635 -0.115637 h 0.23127 0.23128 V 69.714152 69.61137 h 0.11563 0.11565 v 0.102782 0.102783 h 0.23126 0.23127 V 69.714163 69.61138 h -0.23127 -0.23126 v -0.115635 -0.115637 h 0.11562 0.11564 v -0.231271 -0.231272 h 0.11564 0.11563 V 68.80193 68.686294 h -0.23127 -0.23126 v -0.115637 -0.115635 h -0.11565 -0.11563 v -0.115636 -0.115635 h -0.11564 -0.11564 v -0.115636 -0.115636 h -0.33405 -0.33407 v 0.231272 0.231271 h -0.11563 -0.11563 v -0.115636 -0.115635 h -0.11565 -0.11562 v -0.115636 -0.115636 h 0.11562 0.11565 v -0.102783 -0.102783 h 0.11563 0.11563 v -0.115635 -0.115636 h -0.23126 -0.23127 v 0.218424 0.218422 h -0.11564 -0.11564 v -0.102782 -0.102783 h -0.11563 -0.11565 v 0.102783 0.102782 h -0.11563 -0.11564 v -0.102782 -0.102783 h -0.33405 -0.33406 v 0.102783 0.102782 h -0.11563 -0.11565 v 0.115636 0.115636 h -0.11562 -0.11565 v -0.218424 -0.218423 h 0.11565 0.11562 v -0.115635 -0.115636 h -0.11562 -0.11565 V 67.440007 67.32437 h -0.11563 -0.11563 v -0.115636 -0.115635 h -0.11564 -0.11563 v 0.115635 0.115636 h -0.11564 -0.11565 v -0.115636 -0.115635 h -0.11563 -0.11563 v -0.115636 -0.115636 h 0.11563 0.11563 v -0.115636 -0.115635 h -0.21842 -0.21841 v -0.115637 -0.115635 h -0.11564 -0.11565 v 0.115635 0.115637 h 0.11565 0.11564 v 0.115635 0.115636 h -0.23129 -0.23126 v -0.115636 -0.115635 h -0.11563 -0.11564 v -0.115637 -0.115635 h -0.34691 -0.3469 v 0.462543 0.462543 h 0.23127 0.23127 v -0.115636 -0.115635 h -0.11564 -0.11563 v -0.231272 -0.231271 h 0.11563 0.11564 v 0.115635 0.115636 h 0.11563 0.11564 v 0.115636 0.115636 h 0.34691 0.34691 v 0.115635 0.115636 h -0.11564 -0.11565 v 0.115637 0.115635 H 135.18264 135.067 V 67.440007 67.32437 h -0.11563 -0.11564 v 0.115637 0.115635 h -0.11564 -0.11563 v 0.115636 0.115635 h -0.11564 -0.11563 v 0.102783 0.102783 h 0.11563 0.11564 v -0.102783 -0.102783 h 0.23127 0.23127 v 0.102783 0.102783 h 0.23126 0.23129 v -0.102783 -0.102783 h -0.11564 -0.11565 v -0.115635 -0.115636 h 0.11565 0.11564 V 67.440007 67.32437 h 0.10282 0.10283 v 0.115637 0.115635 h 0.11562 0.11564 v 0.218424 0.218422 h 0.11565 0.11563 V 67.65843 67.32437 h 0.11564 0.11563 v 0.449696 0.449694 h -0.23127 -0.23128 v 0.115636 0.115636 h -0.11564 -0.11562 v 0.115635 0.115637 h -0.21843 -0.21843 v 0.115636 0.115635 h 0.11565 0.11563 v 0.115635 0.115636 h -0.34691 -0.3469 V 69.03321 68.917575 h 0.11563 0.11564 V 68.80194 68.686304 h -0.11564 -0.11563 v 0.115636 0.115635 h -0.11564 -0.11564 v 0.115635 0.115636 h 0.11564 0.11564 v 0.115636 0.115636 h 0.3469 0.34691 v 0.115637 0.115635 h 0.10283 0.10282 v -0.231272 -0.231272 h 0.11563 0.11563 v 0.231272 0.231272 h 0.11565 0.11564 v 0.102783 0.102793 h 0.11563 0.11564 v 0.115636 0.115636 h -0.11564 -0.11563 v 0.115636 0.115635 h -0.11564 -0.11565 v 0.115635 0.115637 h 0.11565 0.11564 v -0.115637 -0.115635 h 0.3469 0.3469 v 0.115635 0.115637 h -0.11562 -0.11565 v 0.231271 0.231272 h 0.34692 0.34691 v -0.115635 -0.115637 h 0.10282 0.10283 v 0.231272 0.231272 h 0.3469 0.34691 v 0.115636 0.115636 h -0.11562 -0.11565 v 0.102782 0.102783 h 0.11565 0.11562 z m -1.13065,-0.912238 v -0.115636 h 0.11563 0.11564 v 0.115636 0.115635 h -0.11564 -0.11563 z m 1.13065,-0.462544 v -0.115636 h 0.11565 0.11564 v 0.115636 0.115636 h -0.11564 -0.11565 z m 0.46256,0 v -0.115636 h 0.11562 0.11564 v 0.115636 0.115636 h -0.11564 -0.11562 z m -2.05576,-0.334059 v -0.218373 h 0.11564 0.11563 V 69.49573 69.380094 h -0.11563 -0.11564 v -0.115636 -0.115636 h -0.23126 -0.23128 V 68.91755 68.686279 h -0.11563 -0.11565 v -0.115636 -0.115636 h 0.46256 0.46253 v 0.115636 0.115636 h -0.11563 -0.11564 v 0.231271 0.231272 h 0.34692 0.3469 V 69.033187 68.91755 h -0.11564 -0.11563 v -0.115636 -0.115635 h 0.11563 0.11564 v 0.115635 0.115636 h 0.21842 0.21842 v 0.115637 0.115635 h -0.11564 -0.11563 v 0.115636 0.115636 h 0.23127 0.23127 v -0.115636 -0.115636 h 0.11565 0.11562 v 0.231272 0.231272 h 0.11565 0.11564 v -0.231272 -0.231272 h 0.11562 0.11565 V 69.033187 68.91755 h -0.23127 -0.23129 v -0.115636 -0.115635 h -0.23127 -0.23127 v -0.115636 -0.115636 h -0.21842 -0.21842 V 68.33942 68.223785 h -0.11564 -0.11563 V 68.10817 67.992534 h 0.33406 0.33405 v 0.231271 0.231272 h 0.11564 0.11563 v -0.231272 -0.231271 h 0.11565 0.11562 v 0.115636 0.115635 h 0.11565 0.11564 v 0.115636 0.115636 h 0.11562 0.11565 v 0.115635 0.115637 h 0.11562 0.11564 v -0.115637 -0.115635 h 0.11565 0.11562 v 0.115635 0.115637 h 0.10283 0.10282 v -0.115637 -0.115635 h 0.23127 0.23129 v 0.115635 0.115637 h 0.11562 0.11565 v 0.115636 0.115635 h -0.11565 -0.11562 v 0.231272 0.231271 h -0.11565 -0.11564 v 0.115637 0.115635 h -0.11563 -0.11564 v 0.102783 0.102793 h -0.56533 -0.56533 v -0.102793 -0.102783 h -0.56533 -0.56532 v 0.102783 0.102793 h -0.11564 -0.11565 v 0.115636 0.115636 h -0.11562 -0.11565 z m 2.28702,-0.334009 v -0.115683 h -0.11564 -0.11562 v 0.115636 0.115636 h 0.11562 0.11564 z m 0.43685,0 v -0.115683 h 0.11563 0.11564 v -0.115636 -0.115636 h -0.11564 -0.11563 V 69.033187 68.91755 h 0.23127 0.23128 v -0.115636 -0.115635 h -0.23128 -0.23127 v 0.115635 0.115636 h -0.10283 -0.10282 v -0.115636 -0.115635 h -0.11563 -0.11565 v 0.231271 0.231272 h 0.11565 0.11563 v 0.231272 0.231272 h 0.10282 0.10283 z m -0.89938,-0.925087 v -0.115683 h -0.11564 -0.11565 v 0.115636 0.115636 h 0.11565 0.11564 z m 1.13065,2.967987 v -0.102783 h 0.11564 0.11564 v -0.115682 -0.115637 h -0.11564 -0.11564 V 71.08894 70.973304 h -0.21842 -0.21843 v 0.115636 0.115635 h 0.21843 0.21842 v 0.115637 0.115636 h -0.11564 -0.11563 v 0.102782 0.102783 h 0.11563 0.11564 z m 1.59321,-0.796604 v -0.231271 h -0.10283 -0.10283 v -0.115683 -0.115635 h -0.23128 -0.23127 v 0.231271 0.231272 h 0.11564 0.11563 V 70.62644 70.510804 h 0.11564 0.11564 v 0.231272 0.231272 h 0.10283 0.10283 z m -0.8994,-0.346933 v -0.346907 h -0.3469 -0.34691 v 0.346907 0.346907 h 0.34691 0.3469 z m -0.46253,0 v -0.115636 h 0.11563 0.11564 v 0.115636 0.115637 h -0.11564 -0.11563 z m -5.47343,-2.055748 v -0.115636 h -0.11565 -0.11563 v 0.115636 0.115636 h 0.11563 0.11565 z m 0.46254,0 v -0.115636 h -0.11564 -0.11563 v 0.115636 0.115636 h 0.11563 0.11564 z m 0.69381,0 v -0.115636 h -0.11563 -0.11565 v 0.115636 0.115636 h 0.11565 0.11563 z m 4.0858,-0.668118 v -0.115636 h -0.11564 -0.11563 v -0.115635 -0.115637 h 0.23127 0.23128 v -0.231271 -0.231272 h -0.11564 -0.11564 v -0.115635 -0.115636 h -0.11564 -0.11563 V 66.514915 66.39928 h 0.11563 0.11564 v -0.115636 -0.115636 h -0.21842 -0.21843 v 0.231272 0.231272 h 0.10283 0.10282 v 0.115636 0.115635 h 0.11564 0.11563 v 0.115636 0.115636 h -0.44969 -0.44969 v 0.115635 0.115636 h 0.23126 0.23128 v 0.115637 0.115635 h 0.10282 0.10283 v 0.115636 0.115636 h 0.11563 0.11564 z m -1.59321,-0.231271 v -0.115637 h -0.33405 -0.33406 v 0.115637 0.115635 h 0.33406 0.33405 z m 2.98085,-0.693815 v -0.115636 h -0.11565 -0.11563 v 0.115636 0.115635 h 0.11563 0.11565 z m -3.88023,-0.899391 v -0.115635 h -0.11563 -0.11565 v 0.115635 0.115636 h 0.11565 0.11563 z m 0.89938,0 v -0.115635 h -0.11563 -0.11564 v 0.115635 0.115636 h 0.11564 0.11563 z m 0.46256,-0.115635 v -0.231273 h 0.11562 0.11565 v -0.346907 -0.346907 h 0.11562 0.11564 v -0.115636 -0.115636 h -0.11564 -0.11562 v 0.115636 0.115636 h -0.11565 -0.11562 v 0.115636 0.115636 h -0.11564 -0.11565 v 0.115635 0.115636 h 0.11565 0.11564 v 0.115637 0.115634 h -0.11564 -0.11565 v 0.231273 0.231271 h 0.11565 0.11564 z m 0.89938,0.115635 v -0.115635 h -0.10283 -0.10282 v 0.115635 0.115636 h 0.10282 0.10283 z m -1.36194,-0.462542 v -0.115637 h -0.11563 -0.11564 v 0.115637 0.115634 h 0.11564 0.11563 z m -1.59319,-0.231273 v -0.115635 h -0.11564 -0.11564 v 0.115635 0.115636 h 0.11564 0.11564 z m 2.95513,0 v -0.115635 h -0.10283 -0.10282 v 0.115635 0.115636 h 0.10282 0.10283 z m -5.01088,4.779615 V 69.81701 h 0.11563 0.11564 v 0.115636 0.115636 h -0.11564 -0.11563 z m 5.7047,-3.648953 v -0.115636 h 0.11563 0.11563 v 0.115636 0.115636 h -0.11563 -0.11563 z m -6.1556,-0.353613 -0.0124,-0.0324 0.008,-0.770624 0.008,-0.770625 0.80303,-0.0068 0.80302,-0.0068 v 0.809816 0.809817 h -0.79739 -0.79741 z m 1.36313,-0.777049 V 64.5877 l -0.55891,-0.0069 -0.5589,-0.0069 v 0.579182 0.579182 l 0.5589,-0.0069 0.55891,-0.0069 z m -0.91223,0 v -0.346907 h 0.3469 0.34691 v 0.346907 0.346907 h -0.34691 -0.3469 z m 1.36193,0.57818 v -0.231273 h 0.11563 0.11563 v 0.231273 0.231271 h -0.11563 -0.11563 z m 4.1115,-0.57818 v -0.809449 h 0.79659 0.79661 v 0.809449 0.809451 h -0.79661 -0.79659 z m 1.36193,-5.05e-4 v -0.578679 l -0.55891,0.0069 -0.55891,0.0069 -0.006,0.538969 -0.008,0.538972 0.0126,0.03278 0.0126,0.03279 h 0.55329 0.55328 z m -0.8994,5.05e-4 v -0.346907 h 0.34691 0.34692 v 0.346907 0.346907 h -0.34692 -0.34691 z"
       id="path19"
       inkscape:label="QR Code Spare Part Number" /><g
       id="g22"
       transform="translate(0.29211681,0.29211681)"
       inkscape:label="ICON OEM Part"
       style="fill:#ffffff;fill-opacity:1"><circle
         style="fill:#ffffff;fill-opacity:1;stroke:#000000;stroke-width:0.0952042;stroke-opacity:1"
         id="path20"
         cx="2.1720018"
         cy="2.1719992"
         r="1.4523978" /><text
         xml:space="preserve"
         style="font-style:normal;font-variant:normal;font-weight:500;font-stretch:normal;font-size:0.756104px;font-family:Tuffy;-inkscape-font-specification:'Tuffy Medium';text-align:start;letter-spacing:0px;word-spacing:0px;writing-mode:lr-tb;direction:ltr;text-anchor:start;fill:#ffffff;fill-opacity:1;stroke:#000000;stroke-width:0.0446519;stroke-opacity:1"
         x="2.1595209"
         y="2.1195567"
         id="text21"><tspan
           sodipodi:role="line"
           id="tspan21"
           style="font-style:normal;font-variant:normal;font-weight:800;font-stretch:normal;font-family:Cantarell;-inkscape-font-specification:'Cantarell Ultra-Bold';text-align:center;text-anchor:middle;fill:#ffffff;fill-opacity:1;stroke:none;stroke-width:0.0446519"
           x="2.1595209"
           y="2.1195567">OEM</tspan></text><text
         xml:space="preserve"
         style="font-style:normal;font-variant:normal;font-weight:500;font-stretch:normal;font-size:0.71492px;font-family:Tuffy;-inkscape-font-specification:'Tuffy Medium';text-align:start;letter-spacing:0px;word-spacing:0px;writing-mode:lr-tb;direction:ltr;text-anchor:start;fill:#ffffff;fill-opacity:1;stroke:#000000;stroke-width:0.0422198;stroke-opacity:1"
         x="2.1768808"
         y="2.7358122"
         id="text21-0"><tspan
           sodipodi:role="line"
           id="tspan21-3"
           style="font-style:normal;font-variant:normal;font-weight:800;font-stretch:normal;font-family:Cantarell;-inkscape-font-specification:'Cantarell Ultra-Bold';text-align:center;text-anchor:middle;fill:#ffffff;fill-opacity:1;stroke:none;stroke-width:0.0422198"
           x="2.1768808"
           y="2.7358122">PART</tspan></text></g><g
       id="g21"
       transform="translate(3.3350996,-3.3846308)"
       inkscape:label="ICON SPARE Part"
       style="fill:#ffffff;fill-opacity:1"><g
         id="g25"
         transform="translate(0.29211681,0.29211681)"
         style="fill:#ffffff;fill-opacity:1"><circle
           style="fill:#ffffff;fill-opacity:1;stroke:#000000;stroke-width:0.0952042;stroke-opacity:1"
           id="path20-2"
           cx="2.1719999"
           cy="5.5390449"
           r="1.4523978" /><text
           xml:space="preserve"
           style="font-style:normal;font-variant:normal;font-weight:500;font-stretch:normal;font-size:0.756104px;font-family:Tuffy;-inkscape-font-specification:'Tuffy Medium';text-align:start;letter-spacing:0px;word-spacing:0px;writing-mode:lr-tb;direction:ltr;text-anchor:start;fill:#ffffff;fill-opacity:1;stroke:#000000;stroke-width:0.0446519;stroke-opacity:1"
           x="2.1612194"
           y="5.5566497"
           id="text21-5"><tspan
             sodipodi:role="line"
             id="tspan21-4"
             style="font-style:normal;font-variant:normal;font-weight:800;font-stretch:normal;font-family:Cantarell;-inkscape-font-specification:'Cantarell Ultra-Bold';text-align:center;text-anchor:middle;fill:#ffffff;fill-opacity:1;stroke:none;stroke-width:0.0446519"
             x="2.1612194"
             y="5.5566497">SPARE</tspan></text><text
           xml:space="preserve"
           style="font-style:normal;font-variant:normal;font-weight:500;font-stretch:normal;font-size:0.71492px;font-family:Tuffy;-inkscape-font-specification:'Tuffy Medium';text-align:start;letter-spacing:0px;word-spacing:0px;writing-mode:lr-tb;direction:ltr;text-anchor:start;fill:#ffffff;fill-opacity:1;stroke:#000000;stroke-width:0.0422198;stroke-opacity:1"
           x="2.165204"
           y="6.1729054"
           id="text21-0-7"><tspan
             sodipodi:role="line"
             id="tspan21-3-4"
             style="font-style:normal;font-variant:normal;font-weight:800;font-stretch:normal;font-family:Cantarell;-inkscape-font-specification:'Cantarell Ultra-Bold';text-align:center;text-anchor:middle;fill:#ffffff;fill-opacity:1;stroke:none;stroke-width:0.0422198"
             x="2.165204"
             y="6.1729054">PART</tspan></text></g></g><g
       id="g11"
       transform="translate(12.700002)"><text
         xml:space="preserve"
         style="font-size:3.2346px;font-family:'Eurostile LT Std';-inkscape-font-specification:'Eurostile LT Std';text-align:start;letter-spacing:0px;word-spacing:0px;writing-mode:lr-tb;direction:ltr;text-anchor:start;fill:#ffffff;fill-opacity:1;stroke-width:0.19102"
         x="53.166122"
         y="3.6506155"
         id="text6"
         inkscape:label="Herstellername"><tspan
           sodipodi:role="line"
           id="tspan6"
           style="font-style:normal;font-variant:normal;font-weight:500;font-stretch:normal;font-size:3.2346px;font-family:Tuffy;-inkscape-font-specification:'Tuffy Medium';fill:#ffffff;fill-opacity:1;stroke-width:0.19102"
           x="53.166122"
           y="3.6506155"><tspan
   style="font-style:normal;font-variant:normal;font-weight:bold;font-stretch:normal;font-family:Tuffy;-inkscape-font-specification:'Tuffy Bold';fill:#ffffff;fill-opacity:1"
   id="tspan24">Code99  </tspan>Automotive</tspan></text><path
         style="fill:#ffffff;fill-opacity:1;stroke-width:0.0301904"
         d="m 48.46537,3.6841354 -0.05081,-0.00707 -0.08321,-0.020837 -0.08321,-0.020836 -0.07445,-0.030988 -0.07445,-0.030988 -0.07109,-0.040885 -0.0711,-0.040884 -0.05592,-0.04288 -0.05592,-0.04288 -0.07061,-0.071228 -0.0706,-0.071229 -0.05104,-0.07115 -0.05104,-0.071152 -0.04378,-0.087866 -0.04378,-0.087866 -0.02474,-0.075885 -0.02474,-0.075885 -0.01644,-0.095854 -0.01644,-0.095854 0.0041,-0.1357941 0.0041,-0.1357938 0.01644,-0.071892 0.01644,-0.071891 0.02899,-0.083264 0.02899,-0.083263 0.02669,-0.053017 0.02669,-0.053016 0.05015,-0.075399 0.05015,-0.075399 0.09628,-0.096528 0.09629,-0.096529 0.06642,-0.046173 0.06642,-0.046173 0.07532,-0.038347 0.07532,-0.038347 0.08592,-0.028523 0.08592,-0.028523 0.09465,-0.016084 0.09465,-0.016084 0.09707,1.541e-4 0.09705,1.537e-4 0.07588,0.010792 0.07588,0.010792 0.07719,0.021066 0.07719,0.021067 0.05671,0.024132 0.05671,0.024133 0.06579,0.036111 0.06579,0.036112 0.0639,0.047521 0.0639,0.047522 0.06261,0.061914 0.06261,0.061913 0.03821,0.047928 0.03821,0.047928 0.03783,0.05863 0.03782,0.05863 0.02815,0.060932 0.02815,0.060931 0.02285,0.065963 0.02286,0.065963 0.01693,0.074082 0.01693,0.074082 0.0041,0.1357943 0.0041,0.1357942 -0.01651,0.096561 -0.01651,0.096561 -0.02478,0.075177 -0.02478,0.075177 -0.04368,0.087868 -0.04368,0.087867 -0.05104,0.07115 -0.05104,0.071152 -0.07061,0.071357 -0.07061,0.071356 -0.06201,0.046915 -0.06202,0.046914 -0.05583,0.032607 -0.05583,0.032607 -0.05789,0.024695 -0.05789,0.024695 -0.05592,0.019277 -0.05592,0.019277 -0.07588,0.016493 -0.07588,0.016493 -0.135794,0.00256 -0.135794,0.00256 z m 0.241751,-0.2635733 0.07911,-0.00769 0.07561,-0.020126 0.07561,-0.020126 0.06805,-0.031887 0.06805,-0.031886 0.06585,-0.043815 0.06585,-0.043815 0.05919,-0.058029 0.0592,-0.058029 0.04234,-0.055914 0.04234,-0.055914 0.04329,-0.088111 0.04329,-0.08811 0.02288,-0.091616 0.02288,-0.091616 0.0054,-0.07658 0.0054,-0.07658 -0.0087,-0.071195 -0.0087,-0.071195 -0.0198,-0.075885 -0.0198,-0.075885 -0.03535,-0.07365 -0.03535,-0.07365 -0.03375,-0.050162 -0.03375,-0.050163 -0.04801,-0.054597 -0.04801,-0.054596 -0.06574,-0.05133 -0.06574,-0.051331 -0.06749,-0.035907 -0.06749,-0.035907 -0.06738,-0.023349 -0.06738,-0.023345 -0.07154,-0.013971 -0.07154,-0.013976 -0.09985,9.372e-4 -0.09985,9.37e-4 -0.07837,0.016987 -0.07837,0.016987 -0.05344,0.019959 -0.05344,0.019959 -0.0679,0.036439 -0.0679,0.036439 -0.0659,0.051333 -0.0659,0.051332 -0.04718,0.054816 -0.04718,0.054816 -0.03162,0.046598 -0.03162,0.046598 -0.03299,0.065645 -0.03299,0.065645 -0.02041,0.070148 -0.02041,0.070149 -0.01202,0.083873 -0.01202,0.083872 0.0052,0.075885 0.0052,0.075885 0.0112,0.054618 0.01121,0.054618 0.02046,0.060978 0.02047,0.060977 0.03602,0.069736 0.03602,0.069736 0.04104,0.054306 0.04105,0.054306 0.05483,0.054149 0.05482,0.054149 0.05728,0.040442 0.05728,0.040447 0.06019,0.030443 0.0602,0.030444 0.05962,0.019733 0.05963,0.019733 0.03994,0.00916 0.03994,0.00916 0.0599,0.00678 0.05991,0.00678 0.01996,8.52e-4 0.01996,8.078e-4 z m -0.14302,-0.229012 -0.02396,-0.00306 -0.05592,-0.012136 -0.05592,-0.012136 -0.05592,-0.025227 -0.05592,-0.025227 -0.03195,-0.019882 -0.03195,-0.019882 -0.05463,-0.043253 -0.05463,-0.043252 -0.04794,-0.064659 -0.04794,-0.064659 -0.02211,-0.044249 -0.0221,-0.044249 -0.01663,-0.048628 -0.01664,-0.048627 -0.0095,-0.054502 -0.0095,-0.054502 0.0043,-0.092574 0.0043,-0.092574 0.02126,-0.071891 0.02126,-0.071891 0.03488,-0.063903 0.03489,-0.063903 0.04649,-0.053797 0.04649,-0.053797 0.04922,-0.039075 0.04922,-0.039075 0.04494,-0.025717 0.04494,-0.025717 0.06559,-0.022302 0.06559,-0.022302 0.06238,-0.010058 0.06239,-0.010058 0.07474,0.00491 0.07474,0.00491 0.05458,0.013282 0.05458,0.013282 0.06665,0.030741 0.06665,0.030741 0.04918,0.0352 0.04918,0.0352 0.0489,0.051072 0.0489,0.051071 0.0301,0.047067 0.0301,0.047066 0.02183,0.048552 0.02183,0.048553 0.0055,0.017971 0.0056,0.017975 h -0.143937 -0.143936 l -0.02351,-0.034166 -0.02351,-0.034161 -0.0331,-0.033092 -0.0331,-0.033091 -0.03764,-0.023983 -0.03764,-0.023983 -0.05192,-0.017766 -0.05192,-0.017766 -0.06422,-0.00374 -0.06422,-0.00375 -0.04571,0.00949 -0.04571,0.00949 -0.05683,0.02843 -0.05684,0.02843 -0.04981,0.048866 -0.04981,0.048866 -0.02626,0.051922 -0.02625,0.051921 -0.0107,0.03994 -0.0107,0.03994 -9.4e-5,0.069589 -9.3e-5,0.06959 0.01873,0.058997 0.01873,0.058997 0.0299,0.045047 0.0299,0.045047 0.03831,0.034446 0.03831,0.034446 0.04685,0.024896 0.04685,0.024895 0.05192,0.013555 0.05192,0.013555 0.07699,-0.00409 0.07699,-0.00409 0.06909,-0.032378 0.0691,-0.032377 0.05043,-0.048427 0.05043,-0.048426 0.01498,-0.027837 0.01498,-0.027837 h 0.146499 0.146497 l -0.0055,0.017971 -0.0055,0.017971 -0.02621,0.057311 -0.02622,0.057311 -0.02545,0.036992 -0.02545,0.036992 -0.04886,0.052227 -0.04886,0.052227 -0.04831,0.034238 -0.04831,0.034238 -0.04375,0.021982 -0.04375,0.021978 -0.04412,0.01542 -0.04412,0.015419 -0.0639,0.011472 -0.0639,0.011471 -0.05592,-0.00119 -0.05592,-0.00119 z"
         id="path21"
         inkscape:label="Copyright" /><text
         xml:space="preserve"
         style="font-style:normal;font-variant:normal;font-weight:500;font-stretch:normal;font-size:1.08922px;font-family:Tuffy;-inkscape-font-specification:'Tuffy Medium';text-align:center;letter-spacing:0px;word-spacing:0px;writing-mode:lr-tb;direction:ltr;text-anchor:middle;fill:#ffffff;fill-opacity:1;stroke:none;stroke-width:0.0643241;stroke-opacity:1"
         x="65.107407"
         y="2.0747776"
         id="text26"><tspan
           sodipodi:role="line"
           id="tspan26"
           style="fill:#ffffff;fill-opacity:1;stroke-width:0.0643241"
           x="65.107407"
           y="2.0747776">TM</tspan></text><g
         inkscape:label="Ebene 1"
         id="layer1-3"
         transform="matrix(0.01486605,0,0,0.01486605,49.99803,0.8788198)"
         style="fill:#ffffff;fill-opacity:1"><g
           aria-label="9"
           transform="matrix(2.4098602,0,0,2.3942454,-0.03576776,-587.92908)"
           id="text7224"
           style="font-size:40px;white-space:pre;fill:#ffffff;fill-opacity:1"><path
             d="m 55.835312,308.45024 8.560001,-9.84 h -0.16 q -1.12,0.68 -1.84,0.84 -0.72,0.12 -1.28,0.12 -2.200001,0 -4.08,-0.84 -1.840001,-0.84 -3.200001,-2.28 -1.32,-1.48 -2.079999,-3.44 -0.760001,-1.96 -0.760001,-4.2 0,-2.4 0.88,-4.44 0.880001,-2.08 2.520001,-3.6 1.68,-1.56 4.04,-2.44 2.36,-0.88 5.32,-0.88 3,0 5.36,0.88 2.359999,0.88 4,2.4 1.679999,1.52 2.56,3.56 0.879999,2 0.879999,4.28 0,2.56 -1.159999,5.56 -1.120001,2.96 -3.480001,5.84 l -7,8.48 z m 12.96,-19.8 q 0,-1.04 -0.399999,-1.92 -0.400001,-0.92 -1.08,-1.6 -0.680001,-0.68 -1.600001,-1.08 -0.88,-0.4 -1.919999,-0.4 -1.04,0 -1.960001,0.4 -0.879999,0.4 -1.56,1.08 -0.68,0.68 -1.08,1.6 -0.399999,0.88 -0.399999,1.92 0,1.04 0.399999,1.96 0.4,0.88 1.08,1.56 0.680001,0.68 1.56,1.08 0.920001,0.4 1.960001,0.4 1.039999,0 1.919999,-0.4 0.92,-0.4 1.600001,-1.08 0.679999,-0.68 1.08,-1.56 0.399999,-0.92 0.399999,-1.96 z"
             style="-inkscape-font-specification:'Futura Bold';fill:#ffffff;fill-opacity:1"
             id="path9650" /></g><g
           aria-label="9"
           transform="matrix(2.4098602,0,0,2.3942454,-42.930837,-587.81558)"
           id="text7224-1"
           style="font-size:40px;white-space:pre;fill:#ffffff;fill-opacity:1"><path
             d="m 55.835312,308.45024 8.560001,-9.84 h -0.16 q -1.12,0.68 -1.84,0.84 -0.72,0.12 -1.28,0.12 -2.200001,0 -4.08,-0.84 -1.840001,-0.84 -3.200001,-2.28 -1.32,-1.48 -2.079999,-3.44 -0.760001,-1.96 -0.760001,-4.2 0,-2.4 0.88,-4.44 0.880001,-2.08 2.520001,-3.6 1.68,-1.56 4.04,-2.44 2.36,-0.88 5.32,-0.88 3,0 5.36,0.88 2.359999,0.88 4,2.4 1.679999,1.52 2.56,3.56 0.879999,2 0.879999,4.28 0,2.56 -1.159999,5.56 -1.120001,2.96 -3.480001,5.84 l -7,8.48 z m 12.96,-19.8 q 0,-1.04 -0.399999,-1.92 -0.400001,-0.92 -1.08,-1.6 -0.680001,-0.68 -1.600001,-1.08 -0.88,-0.4 -1.919999,-0.4 -1.04,0 -1.960001,0.4 -0.879999,0.4 -1.56,1.08 -0.68,0.68 -1.08,1.6 -0.399999,0.88 -0.399999,1.92 0,1.04 0.399999,1.96 0.4,0.88 1.08,1.56 0.680001,0.68 1.56,1.08 0.920001,0.4 1.960001,0.4 1.039999,0 1.919999,-0.4 0.92,-0.4 1.600001,-1.08 0.679999,-0.68 1.08,-1.56 0.399999,-0.92 0.399999,-1.96 z"
             style="-inkscape-font-specification:'Futura Bold';fill:#ffffff;fill-opacity:1"
             id="path9645" /></g><path
           id="path1261"
           style="fill:#ffffff;fill-opacity:1;stroke-width:0.999999"
           d="M 401.78125,109.14844 A 303.92437,303.92437 0 0 0 97.857422,413.07422 303.92437,303.92437 0 0 0 401.78125,716.99805 303.92437,303.92437 0 0 0 660.73242,571.91797 l -7.7832,-5.57031 A 263.46386,248.40878 0 0 1 444.94727,662.53711 263.46386,248.40878 0 0 1 181.48242,414.12891 263.46386,248.40878 0 0 1 444.94727,165.7207 263.46386,248.40878 0 0 1 660.48047,271.33398 l 7.34961,-5.13671 A 303.92437,303.92437 0 0 0 401.78125,109.14844 Z"
           transform="scale(0.26458333)" /></g></g></g><g
     inkscape:groupmode="layer"
     id="layer3"
     inkscape:label="Stanzen"><rect
       style="fill:#000000;fill-opacity:1;stroke:none;stroke-width:0.25;stroke-dasharray:none;stroke-opacity:1"
       id="rect3-9-8-2"
       width="9"
       height="3"
       x="123.66335"
       y="64.400002"
       rx="1.5"
       ry="1.5"
       inkscape:label="Befestigung unten rechts" /><rect
       style="fill:#000000;fill-opacity:1;stroke:none;stroke-width:0.25;stroke-dasharray:none;stroke-opacity:1"
       id="rect3-9-8-2-6"
       width="9"
       height="3"
       x="13.083"
       y="64.400002"
       rx="1.5"
       ry="1.5"
       inkscape:label="Befestigung unten links" /><rect
       style="fill:#000000;fill-opacity:1;stroke:none;stroke-width:0.25;stroke-dasharray:none;stroke-opacity:1"
       id="rect3-9-8"
       width="9"
       height="3"
       x="123.66335"
       y="5"
       rx="1.5"
       ry="1.5"
       inkscape:label="Befestigung oben rechts" /><rect
       style="fill:#000000;fill-opacity:1;stroke:none;stroke-width:0.25;stroke-dasharray:none;stroke-opacity:1"
       id="rect3-9"
       width="9"
       height="3"
       x="13.083"
       y="5"
       rx="1.5"
       ry="1.5"
       inkscape:label="Befestigung oben links" /><rect
       style="fill:#000000;fill-opacity:1;stroke:none;stroke-width:0.25;stroke-dasharray:none;stroke-opacity:1"
       id="rect3-9-5"
       width="9"
       height="3"
       x="73.204674"
       y="5.0099545"
       rx="1.5"
       ry="1.5"
       inkscape:label="Befestigung oben links" /><rect
       style="fill:#000000;fill-opacity:1;stroke:none;stroke-width:0.25;stroke-dasharray:none;stroke-opacity:1"
       id="rect3-9-5-2"
       width="9"
       height="3"
       x="73.128448"
       y="64.401863"
       rx="1.5"
       ry="1.5"
       inkscape:label="Befestigung oben links" /><rect
       style="fill:#000000;fill-opacity:1;stroke-width:0.284857"
       id="rect6"
       width="21"
       height="26"
       x="9.5072289"
       y="28.998711"
       rx="1"
       ry="1" /><rect
       style="fill:#000000;fill-opacity:1;stroke-width:0.284857"
       id="rect6-2"
       width="21"
       height="26"
       x="42.499466"
       y="28.999517"
       rx="1"
       ry="1" /><rect
       style="fill:#000000;fill-opacity:1;stroke-width:0.284857"
       id="rect6-9"
       width="21"
       height="26"
       x="75.802666"
       y="28.998001"
       rx="1"
       ry="1" /><rect
       style="fill:#000000;fill-opacity:1;stroke-width:0.284857"
       id="rect6-97"
       width="21"
       height="26"
       x="108.60423"
       y="28.9977"
       rx="1"
       ry="1" /><circle
       style="fill:#000000;fill-opacity:1;stroke-width:0.14347"
       id="path11"
       cx="145.01323"
       cy="3.9981568"
       r="1.5" /><circle
       style="fill:#000000;fill-opacity:1;stroke-width:0.14347"
       id="path11-2"
       cx="144.99467"
       cy="70.78994"
       r="1.5" /></g><g
     inkscape:label="Schneidkontur außen"
     inkscape:groupmode="layer"
     id="layer1"
     transform="translate(-42.534999,-59.814998)"><rect
       style="fill:none;stroke:#ff0000;stroke-width:0.263513;stroke-dasharray:none;stroke-opacity:1"
       id="rect1"
       width="148.73648"
       height="74.936485"
       x="42.666756"
       y="59.946754"
       inkscape:label="Rahmenlinie" /></g></svg>
