<?xml version="1.0" encoding="UTF-8" standalone="no"?>
<!-- Created with Inkscape (http://www.inkscape.org/) -->

<svg
   width="144mm"
   height="139mm"
   viewBox="0 0 144 139"
   version="1.1"
   id="svg1"
   inkscape:version="1.4 (e7c3feb100, 2024-10-09)"
   sodipodi:docname="Compressor-Capacity.svg"
   xml:space="preserve"
   xmlns:inkscape="http://www.inkscape.org/namespaces/inkscape"
   xmlns:sodipodi="http://sodipodi.sourceforge.net/DTD/sodipodi-0.dtd"
   xmlns:xlink="http://www.w3.org/1999/xlink"
   xmlns="http://www.w3.org/2000/svg"
   xmlns:svg="http://www.w3.org/2000/svg"><sodipodi:namedview
     id="namedview1"
     pagecolor="#ffffff"
     bordercolor="#000000"
     borderopacity="0.25"
     inkscape:showpageshadow="2"
     inkscape:pageopacity="0.0"
     inkscape:pagecheckerboard="0"
     inkscape:deskcolor="#d1d1d1"
     inkscape:document-units="mm"
     inkscape:zoom="1.0602368"
     inkscape:cx="272.10902"
     inkscape:cy="262.67717"
     inkscape:window-width="1366"
     inkscape:window-height="768"
     inkscape:window-x="0"
     inkscape:window-y="0"
     inkscape:window-maximized="1"
     inkscape:current-layer="layer1"
     showguides="true" /><defs
     id="defs1"><rect
       x="59.324741"
       y="169.13863"
       width="408.79782"
       height="31.09214"
       id="rect4" /><rect
       x="59.324741"
       y="169.13863"
       width="331.96613"
       height="42.284657"
       id="rect4-3" /><rect
       x="59.324741"
       y="169.13863"
       width="331.96613"
       height="42.284657"
       id="rect4-3-6" /><rect
       x="59.324741"
       y="169.13863"
       width="331.96613"
       height="42.284657"
       id="rect4-3-6-2" /><rect
       x="59.324741"
       y="169.13863"
       width="578.80137"
       height="49.910256"
       id="rect4-9" /><rect
       x="59.324741"
       y="169.13863"
       width="243.35835"
       height="23.381802"
       id="rect4-9-3" /><rect
       x="59.324741"
       y="169.13863"
       width="331.96613"
       height="42.284657"
       id="rect4-3-6-2-0" /><rect
       x="59.324741"
       y="169.13863"
       width="331.96613"
       height="42.284657"
       id="rect4-3-6-2-0-5" /><rect
       x="59.324741"
       y="169.13863"
       width="331.96613"
       height="42.284657"
       id="rect4-3-6-4" /><rect
       x="59.324741"
       y="169.13863"
       width="331.96613"
       height="42.284657"
       id="rect4-3-6-4-0" /><rect
       x="59.324741"
       y="169.13863"
       width="331.96613"
       height="42.284657"
       id="rect4-3-6-4-3" /><rect
       x="50.195766"
       y="271.95618"
       width="35.961143"
       height="59.18605"
       id="rect7226" /><rect
       x="336.28207"
       y="457.80215"
       width="255.26865"
       height="246.09732"
       id="rect2047" /><rect
       x="336.28207"
       y="457.80215"
       width="255.26865"
       height="246.09732"
       id="rect2047-9" /><rect
       x="50.195766"
       y="271.95618"
       width="35.961143"
       height="59.18605"
       id="rect7226-9" /><rect
       x="50.195766"
       y="271.95618"
       width="35.961143"
       height="59.18605"
       id="rect7226-3" /><rect
       x="336.28207"
       y="457.80215"
       width="255.26865"
       height="246.09732"
       id="rect2047-6" /><rect
       x="336.28207"
       y="457.80215"
       width="255.26865"
       height="246.09732"
       id="rect2047-9-7" /><rect
       x="50.195766"
       y="271.95618"
       width="35.961143"
       height="59.18605"
       id="rect7226-9-5" /><rect
       x="59.324741"
       y="169.13863"
       width="243.35835"
       height="23.381802"
       id="rect4-9-3-1" /><rect
       x="59.324741"
       y="169.13863"
       width="667.55599"
       height="52.098911"
       id="rect4-9-9" /><rect
       x="59.324741"
       y="169.13863"
       width="408.79782"
       height="31.09214"
       id="rect4-4" /><rect
       x="59.324741"
       y="169.13863"
       width="331.96613"
       height="42.284657"
       id="rect4-3-6-4-7" /><rect
       x="59.324741"
       y="169.13863"
       width="331.96613"
       height="42.284657"
       id="rect4-3-6-4-3-8" /><rect
       x="59.324741"
       y="169.13863"
       width="331.96613"
       height="42.284657"
       id="rect4-3-6-45" /><rect
       x="59.324741"
       y="169.13863"
       width="331.96613"
       height="42.284657"
       id="rect4-3-6-2-0-5-0" /><rect
       x="59.324741"
       y="169.13863"
       width="331.96613"
       height="42.284657"
       id="rect4-3-6-2-0-3" /><rect
       x="59.324741"
       y="169.13863"
       width="331.96613"
       height="42.284657"
       id="rect4-3-6-2-6" /></defs><g
     inkscape:groupmode="layer"
     id="layer5"
     inkscape:label="Tachohintergrund für bessere Ansicht"><rect
       style="fill:#121212;fill-opacity:1;stroke-width:0.360469"
       id="rect22"
       width="143.18523"
       height="138.09332"
       x="0.2729359"
       y="0.27061057" /><circle
       style="fill:#000000;fill-opacity:1;stroke-width:0.14347"
       id="path11"
       cx="105.06817"
       cy="130.47662"
       r="1.5" /><circle
       style="fill:#000000;fill-opacity:1;stroke-width:0.14347"
       id="path11-9"
       cx="44.426403"
       cy="130.49324"
       r="1.5" /></g><g
     inkscape:groupmode="layer"
     id="layer2"
     inkscape:label="Durchlicht weiß matt"
     inkscape:tile-cx="11.55"
     inkscape:tile-cy="38.099999"
     inkscape:tile-w="0.89999996"
     inkscape:tile-h="69.999999"
     inkscape:tile-x0="11.1"
     inkscape:tile-y0="3.0999998"
     transform="matrix(1,0,0,-1,2.788209e-8,76.200002)"
     style="fill:#cccccc;fill-opacity:1"><path
       id="use13"
       style="display:inline;fill:#cccccc;fill-opacity:1;stroke:none;stroke-width:0.220517;stroke-dasharray:none;stroke-opacity:1"
       inkscape:label="Säule 1 Clone 9"
       d="M 128.54058,63.290446 V 54.63361 h 0.70022 v 8.656836 z m 0,-12.748059 V 39.442806 h 0.70022 v 11.099581 z m 0,-15.190804 V 24.628206 h 0.70022 v 10.723377 z m 0,-14.8146 V 6.896472 h 0.70022 v 13.640511 z" /><use
       x="0"
       y="0"
       inkscape:tiled-clone-of="#rect2"
       xlink:href="#rect2"
       transform="matrix(1,0,0,1.0002263,96.479995,-0.00303878)"
       id="use12"
       inkscape:label="Säule 1 Clone 8"
       style="fill:#cccccc;fill-opacity:1" /><path
       id="use11"
       style="display:inline;fill:#cccccc;fill-opacity:1;stroke:none;stroke-width:0.203097;stroke-dasharray:none;stroke-opacity:1"
       inkscape:label="Säule 1"
       d="M 104.42061,63.323002 V 56.48621 h 0.6997 v 6.836792 z m 0,-12.196672 V 6.861332 h 0.6997 V 51.12633 Z" /><path
       id="use10"
       style="display:inline;fill:#cccccc;fill-opacity:1;stroke:none;stroke-width:0.203082;stroke-dasharray:none;stroke-opacity:1"
       inkscape:label="Säule 1"
       d="M 92.360364,63.323002 V 56.48621 h 0.699699 v 6.836792 z m 0,-12.196672 V 6.870117 h 0.699699 V 51.12633 Z" /><path
       id="use9"
       style="display:inline;fill:#cccccc;fill-opacity:1;stroke:none;stroke-width:0.220455;stroke-dasharray:none;stroke-opacity:1"
       inkscape:label="Säule 1 Clone 5"
       d="M 80.300118,63.285795 V 56.48621 h 0.700216 v 6.799585 z m 0,-12.159465 V 26.549536 h 0.700216 V 51.12633 Z m 0,-30.802254 V 6.901123 h 0.700216 v 13.422953 z" /><path
       id="use6-6-5"
       style="display:inline;fill:#cccccc;fill-opacity:1;stroke:none;stroke-width:0.220517;stroke-dasharray:none;stroke-opacity:1"
       inkscape:label="Säule 1 Clone 4"
       d="m 68.960759,63.29303 v -6.809921 h 0.700215 v 6.809921 z m 0,-12.153264 v -9.701733 h 0.700215 v 9.701733 z m 0,-15.045593 v -9.545671 h 0.700215 v 9.545671 z m 0,-15.770097 V 6.901123 h 0.700215 v 13.422953 z" /><path
       id="use6-6"
       style="display:inline;fill:#cccccc;fill-opacity:1;stroke:none;stroke-width:0.220517;stroke-dasharray:none;stroke-opacity:1"
       inkscape:label="Säule 1 Clone 3"
       d="m 56.525342,63.29303 v -6.809921 h 0.700216 v 6.809921 z m 0,-12.153264 v -9.701733 h 0.700216 v 9.701733 z m 0,-15.045593 v -9.545671 h 0.700216 v 9.545671 z m 0,-15.770097 V 6.901123 h 0.700216 v 13.422953 z" /><path
       id="use6"
       style="display:inline;fill:#cccccc;fill-opacity:1;stroke:none;stroke-width:0.220517;stroke-dasharray:none;stroke-opacity:1"
       inkscape:label="Säule 1 Clone 2"
       d="m 44.120414,63.299748 v -6.816639 h 0.700216 v 6.816639 z m 0,-12.159982 v -9.701733 h 0.700216 v 9.701733 z m 0,-15.59388 v -8.997384 h 0.700216 v 8.997384 z m 0,-15.230078 V 6.901123 h 0.700216 v 13.414685 z" /><path
       id="use5"
       style="display:inline;fill:#cccccc;fill-opacity:1;stroke:none;stroke-width:0.202972;stroke-dasharray:none;stroke-opacity:1"
       inkscape:label="Säule 1"
       d="M 32.060169,63.29303 V 6.901123 h 0.700215 V 63.29303 Z" /><path
       id="rect2"
       style="display:inline;fill:#cccccc;fill-opacity:1;stroke:none;stroke-width:0.202972;stroke-dasharray:none;stroke-opacity:1"
       inkscape:label="Säule 1"
       d="M 20.00044,63.29303 V 6.901123 h 0.699699 V 63.29303 Z" /><text
       xml:space="preserve"
       transform="matrix(0.20522324,0,0,-0.20770257,24.976761,60.429241)"
       id="text1-2-1"
       style="font-size:17.5667px;text-align:start;writing-mode:lr-tb;direction:ltr;white-space:pre;shape-inside:url(#rect4-9-3);display:inline;fill:#cccccc;fill-opacity:1;stroke-width:0.944882"
       inkscape:label="RANGE ESTIMATES Text"><tspan
         x="59.324219"
         y="184.68108"
         id="tspan20"><tspan
           style="font-family:'Eurostile LT Std';-inkscape-font-specification:'Eurostile LT Std'"
           id="tspan19">VOLTS DC</tspan></tspan></text><text
       xml:space="preserve"
       transform="matrix(0.11246794,0,0,-0.11402027,30.463347,59.726401)"
       id="text1-2"
       style="font-size:32px;text-align:start;writing-mode:lr-tb;direction:ltr;white-space:pre;shape-inside:url(#rect4-9);display:inline;fill:#cccccc;fill-opacity:1;stroke-width:0.944882"
       inkscape:label="MI GALLONS Text"><tspan
         x="59.324219"
         y="197.45117"
         id="tspan23"><tspan
           style="font-family:'Eurostile LT Std';-inkscape-font-specification:'Eurostile LT Std'"
           id="tspan22">HYD SYST STRESS PSI</tspan></tspan></text><text
       xml:space="preserve"
       transform="matrix(0.17750851,0,0,-0.18462392,26.611756,86.990209)"
       id="text1"
       style="font-size:19.7626px;text-align:start;writing-mode:lr-tb;direction:ltr;white-space:pre;shape-inside:url(#rect4);display:inline;fill:#cccccc;fill-opacity:1;stroke-width:0.944882"
       inkscape:label="FUEL GALLONS Text"><tspan
         x="59.324219"
         y="186.62394"
         id="tspan27"><tspan
           style="font-weight:bold;font-stretch:expanded;font-family:'Eurostile LT Std';-inkscape-font-specification:'Eurostile LT Std Bold Expanded'"
           id="tspan25">COMPRESSOR TEMP °F</tspan></tspan></text><text
       xml:space="preserve"
       transform="matrix(0.1440069,0,0,-0.10922863,119.39053,57.387971)"
       id="text1-0-8-3"
       style="font-size:25.3153px;text-align:start;writing-mode:lr-tb;direction:ltr;white-space:pre;shape-inside:url(#rect4-3-6-4);display:inline;fill:#cccccc;fill-opacity:1;stroke-width:0.944882"
       inkscape:label="MI GALLONS 60"><tspan
         x="59.324219"
         y="191.53678"
         id="tspan29"><tspan
           style="font-family:'Eurostile LT Std';-inkscape-font-specification:'Eurostile LT Std'"
           id="tspan28">200</tspan></tspan></text><text
       xml:space="preserve"
       transform="matrix(0.1440069,0,0,-0.10922863,119.28536,42.600314)"
       id="text1-0-8-3-0"
       style="font-size:25.3153px;text-align:start;writing-mode:lr-tb;direction:ltr;white-space:pre;shape-inside:url(#rect4-3-6-4-3);display:inline;fill:#cccccc;fill-opacity:1;stroke-width:0.944882"
       inkscape:label="MI GALLONS 60"><tspan
         x="59.324219"
         y="191.53678"
         id="tspan31"><tspan
           style="font-family:'Eurostile LT Std';-inkscape-font-specification:'Eurostile LT Std'"
           id="tspan30">32</tspan></tspan></text><text
       xml:space="preserve"
       transform="matrix(0.1440069,0,0,-0.10922863,119.39053,72.605055)"
       id="text1-0-8"
       style="font-size:25.3153px;text-align:start;writing-mode:lr-tb;direction:ltr;white-space:pre;shape-inside:url(#rect4-3-6);display:inline;fill:#cccccc;fill-opacity:1;stroke-width:0.944882"
       inkscape:label="FUEL GALLONS 60"><tspan
         x="59.324219"
         y="191.53678"
         id="tspan33"><tspan
           style="font-family:'Eurostile LT Std';-inkscape-font-specification:'Eurostile LT Std'"
           id="tspan32">500</tspan></tspan></text><text
       xml:space="preserve"
       transform="matrix(0.14401347,0,0,-0.10922863,6.7621681,40.533043)"
       id="text1-0-8-2-3-7"
       style="font-size:32px;text-align:start;writing-mode:lr-tb;direction:ltr;white-space:pre;shape-inside:url(#rect4-3-6-2-0-5);display:inline;fill:#cccccc;fill-opacity:1;stroke-width:0.944882"
       inkscape:label="RANGE ESTIMATES 0"><tspan
         x="59.324219"
         y="197.45117"
         id="tspan35"><tspan
           style="font-size:25.3148px;font-family:'Eurostile LT Std';-inkscape-font-specification:'Eurostile LT Std'"
           id="tspan34">0</tspan></tspan></text><text
       xml:space="preserve"
       transform="matrix(0.14400326,0,0,-0.10922089,-0.4279328,55.704543)"
       id="text1-0-8-2-3"
       style="font-size:32px;text-align:start;writing-mode:lr-tb;direction:ltr;white-space:pre;shape-inside:url(#rect4-3-6-2-0);display:inline;fill:#cccccc;fill-opacity:1;stroke-width:0.944882"
       inkscape:label="MI GALLONS 0"><tspan
         x="59.324219"
         y="197.45117"
         id="tspan37"><tspan
           style="font-size:25.3148px;font-family:'Eurostile LT Std';-inkscape-font-specification:'Eurostile LT Std'"
           id="tspan36">100</tspan></tspan></text><text
       xml:space="preserve"
       transform="matrix(0.14401347,0,0,-0.10922863,-0.3908491,71.046119)"
       id="text1-0-8-2"
       style="font-size:32px;text-align:start;writing-mode:lr-tb;direction:ltr;white-space:pre;shape-inside:url(#rect4-3-6-2);display:inline;fill:#cccccc;fill-opacity:1;stroke-width:0.944882"
       inkscape:label="FUEL GALLONS 0"><tspan
         x="59.324219"
         y="197.45117"
         id="tspan39"><tspan
           style="font-size:25.3148px;font-family:'Eurostile LT Std';-inkscape-font-specification:'Eurostile LT Std'"
           id="tspan38">100</tspan></tspan></text><text
       xml:space="preserve"
       style="font-weight:500;font-size:4.23333px;font-family:Tuffy;-inkscape-font-specification:'Tuffy Medium';text-align:center;letter-spacing:0px;word-spacing:0px;writing-mode:lr-tb;direction:ltr;text-anchor:middle;fill:#cccccc;fill-opacity:1;stroke-width:0.25"
       x="81.416748"
       y="-88.598"
       id="text2"
       transform="scale(1,-1)"><tspan
         sodipodi:role="line"
         id="tspan1"
         style="fill:#cccccc;fill-opacity:1;stroke-width:0.25"
         x="82.053398"
         y="-88.598">  </tspan></text></g><g
     inkscape:groupmode="layer"
     id="layer6"
     inkscape:label="Transparenz für Fototransistor"><circle
       style="fill:#595959;stroke-width:0.141164"
       id="path1"
       cx="74.960617"
       cy="52.029644"
       r="2.4430022" /></g><g
     inkscape:groupmode="layer"
     id="layer4"
     inkscape:label="Siebdruck weiß"
     style="fill:#ffffff;fill-opacity:1"><path
       style="fill:#ffffff;fill-opacity:1;stroke-width:0.191927"
       d="m 75.15862,135.90404 v -1.20568 h 0.162548 0.162548 v 1.20568 1.20568 H 75.321168 75.15862 Z m 0.487644,0 v -1.20568 h 0.08127 0.08127 v 1.20568 1.20568 h -0.08127 -0.08127 z m 0.487643,0 v -1.20568 h 0.08127 0.08127 v 1.20568 1.20568 h -0.08127 -0.08127 z m 0.81274,0 v -1.20568 h 0.08127 0.08127 v 1.20568 1.20568 h -0.08127 -0.08127 z m 0.650191,0 v -1.20568 h 0.08127 0.08127 v 1.20568 1.20568 h -0.08127 -0.08127 z m 0.650192,0 v -1.20568 h 0.162548 0.162546 v 1.20568 1.20568 H 78.409578 78.24703 Z m 0.487644,0 v -1.20568 h 0.243822 0.243821 v 1.20568 1.20568 h -0.243821 -0.243822 z m 0.81274,0 v -1.20568 h 0.08127 0.08127 v 1.20568 1.20568 h -0.08127 -0.08127 z m 0.325094,0 v -1.20568 h 0.162549 0.162547 v 1.20568 1.20568 h -0.162547 -0.162549 z m 0.650191,0 v -1.20568 h 0.243823 0.243822 v 1.20568 1.20568 h -0.243822 -0.243823 z m 0.812741,0 v -1.20568 h 0.08127 0.08127 v 1.20568 1.20568 h -0.08127 -0.08127 z m 0.325096,0 v -1.20568 h 0.162548 0.162547 v 1.20568 1.20568 h -0.162547 -0.162548 z m 0.650191,0 v -1.20568 h 0.08127 0.08127 v 1.20568 1.20568 h -0.08127 -0.08127 z m 0.325096,0 v -1.20568 h 0.08127 0.08127 v 1.20568 1.20568 h -0.08127 -0.08127 z m 0.650191,0 v -1.20568 h 0.162549 0.162548 v 1.20568 1.20568 h -0.162548 -0.162549 z m 0.81274,0 v -1.20568 h 0.08127 0.08127 v 1.20568 1.20568 h -0.08127 -0.08127 z m 0.487643,0 v -1.20568 h 0.162548 0.162548 v 1.20568 1.20568 h -0.162548 -0.162548 z m 0.487644,0 v -1.20568 h 0.243823 0.243821 v 1.20568 1.20568 h -0.243821 -0.243823 z m 0.81274,0 v -1.20568 h 0.08127 0.08127 v 1.20568 1.20568 h -0.08127 -0.08127 z m 0.325096,0 v -1.20568 h 0.243822 0.243821 v 1.20568 1.20568 h -0.243821 -0.243822 z m 0.65019,0 v -1.20568 h 0.325097 0.325096 v 1.20568 1.20568 h -0.325096 -0.325097 z m 0.81274,0 v -1.20568 h 0.243822 0.243822 v 1.20568 1.20568 h -0.243822 -0.243822 z m 0.812739,0 v -1.20568 h 0.162549 0.162548 v 1.20568 1.20568 h -0.162548 -0.162549 z m 0.487644,0 v -1.20568 h 0.08127 0.08127 v 1.20568 1.20568 h -0.08127 -0.08127 z m 0.487644,0 v -1.20568 h 0.08127 0.08127 v 1.20568 1.20568 h -0.08127 -0.08127 z m 0.325096,0 v -1.20568 h 0.162548 0.162548 v 1.20568 1.20568 H 89.950478 89.78793 Z m 0.81274,0 v -1.20568 h 0.243821 0.243822 v 1.20568 1.20568 H 90.844491 90.60067 Z m 0.650191,0 v -1.20568 h 0.08127 0.08127 v 1.20568 1.20568 h -0.08127 -0.08127 z m 0.325096,0 v -1.20568 h 0.325096 0.325096 v 1.20568 1.20568 h -0.325096 -0.325096 z m 0.812739,0 v -1.20568 h 0.243822 0.243823 v 1.20568 1.20568 h -0.243823 -0.243822 z m 0.650192,0 v -1.20568 h 0.08127 0.08127 v 1.20568 1.20568 h -0.08127 -0.08127 z m 0.487644,0 v -1.20568 h 0.162547 0.162548 v 1.20568 1.20568 h -0.162548 -0.162547 z m 0.487644,0 v -1.20568 h 0.243821 0.243822 v 1.20568 1.20568 h -0.243822 -0.243821 z m 0.812738,0 v -1.20568 h 0.08127 0.08127 v 1.20568 1.20568 h -0.08127 -0.08127 z m 0.325096,0 v -1.20568 h 0.243823 0.243821 v 1.20568 1.20568 H 95.395833 95.15201 Z m 0.650192,0 v -1.20568 h 0.325095 0.325096 v 1.20568 1.20568 h -0.325096 -0.325095 z m 0.812741,0 v -1.20568 h 0.162546 0.162547 v 1.20568 1.20568 h -0.162547 -0.162546 z m 0.487642,0 v -1.20568 h 0.325097 0.325094 v 1.20568 1.20568 h -0.325094 -0.325097 z m 0.812739,0 v -1.20568 h 0.162549 0.162547 v 1.20568 1.20568 h -0.162547 -0.162549 z m 0.487644,0 v -1.20568 h 0.08127 0.08127 v 1.20568 1.20568 h -0.08127 -0.08127 z m 0.487644,0 v -1.20568 h 0.162547 0.16255 v 1.20568 1.20568 h -0.16255 -0.162547 z m 0.487644,0 v -1.20568 h 0.08127 0.08127 v 1.20568 1.20568 h -0.08127 -0.08127 z m 0.812734,0 v -1.20568 h 0.0813 0.0813 v 1.20568 1.20568 h -0.0813 -0.0813 z m 0.3251,0 v -1.20568 h 0.3251 0.3251 v 1.20568 1.20568 h -0.3251 -0.3251 z m 0.81275,0 v -1.20568 h 0.24382 0.24382 v 1.20568 1.20568 h -0.24382 -0.24382 z m 0.65019,0 v -1.20568 h 0.0813 0.0813 v 1.20568 1.20568 h -0.0813 -0.0813 z m 0.48765,0 v -1.20568 h 0.16255 0.16255 v 1.20568 1.20568 h -0.16255 -0.16255 z m 0.48764,0 v -1.20568 h 0.24383 0.24382 v 1.20568 1.20568 h -0.24382 -0.24383 z m 0.81275,0 v -1.20568 h 0.0813 0.0813 v 1.20568 1.20568 h -0.0813 -0.0813 z m 0.32509,0 v -1.20568 h 0.24383 0.24382 v 1.20568 1.20568 h -0.24382 -0.24383 z m 0.6502,0 v -1.20568 h 0.3251 0.3251 v 1.20568 1.20568 h -0.3251 -0.3251 z m 0.81274,0 v -1.20568 h 0.0813 0.0813 v 1.20568 1.20568 h -0.0813 -0.0813 z m 0.6502,0 v -1.20568 h 0.16255 0.16255 v 1.20568 1.20568 h -0.16255 -0.16255 z m 0.81274,0 v -1.20568 h 0.0813 0.0813 v 1.20568 1.20568 h -0.0813 -0.0813 z m 0.3251,0 v -1.20568 h 0.24382 0.24383 v 1.20568 1.20568 h -0.24383 -0.24382 z m 0.6502,0 v -1.20568 h 0.0813 0.0813 v 1.20568 1.20568 h -0.0813 -0.0813 z m 0.32509,0 v -1.20568 h 0.16255 0.16255 v 1.20568 1.20568 h -0.16255 -0.16255 z m 0.81275,0 v -1.20568 h 0.0813 0.0813 v 1.20568 1.20568 h -0.0813 -0.0813 z m 0.32509,0 v -1.20568 h 0.3251 0.3251 v 1.20568 1.20568 h -0.3251 -0.3251 z m 0.81275,0 v -1.20568 h 0.24382 0.24382 v 1.20568 1.20568 h -0.24382 -0.24382 z m 0.65019,0 v -1.20568 h 0.16255 0.16253 v 1.20568 1.20568 h -0.16253 -0.16255 z m 0.48764,0 v -1.20568 h 0.16256 0.16253 v 1.20568 1.20568 h -0.16253 -0.16256 z m 0.65019,0 v -1.20568 h 0.16255 0.16256 v 1.20568 1.20568 h -0.16256 -0.16255 z m 0.65019,0 v -1.20568 h 0.24383 0.24382 v 1.20568 1.20568 h -0.24382 -0.24383 z m 0.65019,0 v -1.20568 h 0.0813 0.0813 v 1.20568 1.20568 h -0.0813 -0.0813 z m 0.32511,0 v -1.20568 h 0.16254 0.16254 v 1.20568 1.20568 h -0.16254 -0.16254 z m 0.81274,0 v -1.20568 h 0.16254 0.16254 v 1.20568 1.20568 h -0.16254 -0.16254 z m 0.81274,0 v -1.20568 h 0.2438 0.24384 v 1.20568 1.20568 h -0.24384 -0.2438 z m 0.65018,0 v -1.20568 h 0.0813 0.0813 v 1.20568 1.20568 h -0.0813 -0.0813 z m 0.3251,0 v -1.20568 h 0.16253 0.16256 v 1.20568 1.20568 h -0.16256 -0.16253 z"
       id="path15"
       sodipodi:nodetypes="cccccccccccccccccccccccccccccccccccccccccccccccccccccccccccccccccccccccccccccccccccccccccccccccccccccccccccccccccccccccccccccccccccccccccccccccccccccccccccccccccccccccccccccccccccccccccccccccccccccccccccccccccccccccccccccccccccccccccccccccccccccccccccccccccccccccccccccccccccccccccccccccccccccccccccccccccccccccccccccccccccccccccccccccccccccccccccccccccccccccccccccccccccccccccccccccccccccccccccccccccccccccccccccccccccccccccccccccccccccccccccccccccccccccccccccccccccccccccccccccccccccccccccccccccccccccccccccccccccccccccccccccccccccccccccccccccccccccccccccccccccccccccccccccccccccccccccccccccccccccccccccccccccccccccccccccccccccc"
       inkscape:label="Seriennummer Barcode" /><text
       xml:space="preserve"
       style="font-size:3.23057px;font-family:'Eurostile LT Std';-inkscape-font-specification:'Eurostile LT Std';text-align:start;letter-spacing:0px;word-spacing:0px;writing-mode:lr-tb;direction:ltr;text-anchor:start;fill:#ffffff;fill-opacity:1;stroke-width:0.190782"
       x="33.759102"
       y="137.01497"
       id="text6-5"
       inkscape:label="Seriennummer"><tspan
         sodipodi:role="line"
         id="tspan6-9"
         style="font-style:normal;font-variant:normal;font-weight:500;font-stretch:normal;font-size:3.23057px;font-family:Tuffy;-inkscape-font-specification:'Tuffy Medium';fill:#ffffff;fill-opacity:1;stroke-width:0.190782"
         x="33.759102"
         y="137.01497">S/N: D212-2856-0949-7521 </tspan></text><text
       xml:space="preserve"
       style="font-size:3.2346px;font-family:'Eurostile LT Std';-inkscape-font-specification:'Eurostile LT Std';text-align:start;letter-spacing:0px;word-spacing:0px;writing-mode:lr-tb;direction:ltr;text-anchor:start;fill:#ffffff;fill-opacity:1;stroke-width:0.19102"
       x="123.34705"
       y="3.5982087"
       id="text6-9-6"
       inkscape:label="Produktionsdatum"><tspan
         sodipodi:role="line"
         id="tspan6-7-3"
         style="font-style:normal;font-variant:normal;font-weight:500;font-stretch:normal;font-size:3.2346px;font-family:Tuffy;-inkscape-font-specification:'Tuffy Medium';fill:#ffffff;fill-opacity:1;stroke-width:0.19102"
         x="123.34705"
         y="3.5982087">MFG 2025-11</tspan></text><text
       xml:space="preserve"
       style="font-size:3.2346px;font-family:'Eurostile LT Std';-inkscape-font-specification:'Eurostile LT Std';text-align:start;letter-spacing:0px;word-spacing:0px;writing-mode:lr-tb;direction:ltr;text-anchor:start;fill:#ffffff;fill-opacity:1;stroke-width:0.19102"
       x="1.5600923"
       y="137.01537"
       id="text6-9-6-1"
       inkscape:label="Chargennummer"><tspan
         sodipodi:role="line"
         id="tspan6-7-3-5"
         style="font-style:normal;font-variant:normal;font-weight:500;font-stretch:normal;font-size:3.2346px;font-family:Tuffy;-inkscape-font-specification:'Tuffy Medium';fill:#ffffff;fill-opacity:1;stroke-width:0.19102"
         x="1.5600923"
         y="137.01537">LOT 7614B</tspan></text><path
       style="fill:#ffffff;fill-opacity:1;stroke-width:0.0971224"
       d="m 134.97485,136.69951 0.007,-0.79019 0.80303,-0.007 0.80303,-0.007 v 0.79698 0.79697 h -0.80983 -0.80982 z m 1.38158,-0.006 v -0.56534 h -0.56533 -0.56533 v 0.56534 0.56533 h 0.56533 0.56533 z m -0.92509,0.0129 v -0.34691 h 0.34691 0.34691 v 0.34691 0.34691 h -0.34691 -0.34691 z m 1.36194,0.21842 v -0.56533 h 0.11563 0.11564 v -0.11564 -0.11564 h -0.11564 -0.11563 v -0.23125 -0.23127 h -0.33406 -0.33406 v -0.11564 -0.11564 h 0.23127 0.23128 v -0.10279 -0.10278 h -0.34691 -0.34691 v -0.11609 -0.11564 h -0.11564 -0.11563 v 0.11564 0.11564 h -0.11564 -0.11564 v -0.23128 -0.23127 h -0.11564 -0.11563 v 0.4497 0.4497 h -0.11564 -0.11563 v -0.4497 -0.4497 h 0.11563 0.11564 v -0.11564 -0.11563 h 0.11563 0.11564 v -0.11569 -0.11564 h -0.23127 -0.23127 v -0.23127 -0.23127 h 0.11563 0.11564 v -0.21843 -0.21842 h -0.11564 -0.11563 v -0.11564 -0.11564 h 0.11563 0.11564 v -0.11563 -0.11564 h -0.11564 -0.11563 v -0.57819 -0.57818 h 0.57818 0.57818 v 0.11564 0.11563 h 0.11564 0.11563 v -0.11563 -0.11564 h 0.56534 0.56533 v 0.11564 0.11563 h -0.11563 -0.11564 v 0.23128 0.23127 h 0.11564 0.11563 v -0.11564 -0.11563 h 0.23127 0.23127 v 0.11563 0.11564 h -0.11563 -0.11564 v 0.23127 0.23128 h 0.34691 0.34691 v -0.11564 -0.11564 h -0.11564 -0.11563 v -0.11563 -0.11564 h 0.11563 0.11564 v 0.11564 0.11563 h 0.4497 0.44969 v 0.11564 0.11564 h 0.11564 0.11564 v -0.23128 -0.23127 h 0.23127 0.23127 v -0.11564 -0.11563 h -0.23127 -0.23127 v -0.11564 -0.11564 h 0.23127 0.23127 v -0.11563 -0.11564 h 0.11564 0.11563 v -0.10279 -0.10279 h -0.11563 -0.11564 v -0.11563 -0.11564 h 0.11564 0.11563 v -0.23128 -0.23127 h -0.11563 -0.11564 v 0.11564 0.11563 h -0.11564 -0.11563 v 0.23128 0.23127 h -0.11564 -0.11563 v 0.10279 0.10279 h -0.34691 -0.34692 v -0.10279 -0.10279 h -0.11563 -0.11564 v -0.11563 -0.11564 h -0.10278 -0.10279 v 0.11564 0.11563 h -0.11564 -0.11563 v 0.10279 0.10279 h 0.21842 0.21842 v 0.23127 0.23128 h 0.34691 0.34691 v 0.11563 0.11564 h -0.34691 -0.34691 v -0.11564 -0.11563 h -0.10278 -0.10279 v -0.11564 -0.11564 h -0.11564 -0.11563 v -0.11563 -0.11564 h -0.11564 -0.11564 v 0.11564 0.11563 h -0.11563 -0.11564 v -0.33406 -0.33406 h 0.11564 0.11563 v -0.11564 -0.11564 h -0.11563 -0.11564 v -0.11563 -0.11564 h -0.11563 -0.11564 v 0.34691 0.34691 h -0.11563 -0.11564 v -0.34691 -0.34691 h -0.23128 -0.23127 v -0.11564 -0.11563 h 0.11563 0.11564 v -0.11564 -0.11564 h -0.11564 -0.11563 v -0.11563 -0.11564 h 0.11563 0.11564 v -0.11564 -0.11563 h 0.11564 0.11564 v 0.23127 0.23127 h 0.11564 0.11563 v -0.11563 -0.11564 h 0.23127 0.23127 v 0.11564 0.11563 h -0.11563 -0.11564 v 0.23128 0.23127 h 0.23127 0.23128 v 0.11564 0.11563 h 0.11563 0.11564 v -0.23127 -0.23127 h 0.4497 0.44969 v -0.11564 -0.11564 h -0.44969 -0.4497 v -0.23127 -0.23127 h 0.21842 0.21842 v 0.11563 0.11564 h 0.23128 0.23127 v 0.11564 0.11563 h 0.11564 0.11564 v -0.11563 -0.11564 h 0.11563 0.11564 v -0.11564 -0.11563 h 0.23127 0.23127 v 0.11563 0.11564 h 0.10279 0.10278 v -0.11564 -0.11563 h 0.11564 0.11564 v 0.23127 0.23127 h -0.11564 -0.11564 v 0.11564 0.11564 h 0.11564 0.11564 v 0.11563 0.11564 h -0.11564 -0.11564 v 0.11564 0.11563 h 0.11564 0.11564 v 0.33407 0.33406 h 0.11563 0.11565 v 0.11564 0.11563 h -0.11565 -0.11563 v 0.11564 0.11564 h 0.11563 0.11565 v 0.11563 0.11564 h 0.11563 0.11564 v 0.23127 0.23128 h -0.11564 -0.11563 v 0.23127 0.23128 h 0.11563 0.11564 v -0.11564 -0.11564 h 0.11563 0.11564 v -0.23127 -0.23128 h 0.11564 0.11563 v 0.23128 0.23127 h 0.11564 0.11563 v -0.34691 -0.34691 h -0.23127 -0.23127 v -0.11564 -0.11563 h 0.11564 0.11563 v -0.23128 -0.23127 h 0.11564 0.11563 v 0.11564 0.11563 h 0.11564 0.11564 v -0.11563 -0.11564 h 0.10278 0.10279 v 0.11564 0.11563 h -0.10279 -0.10278 v 0.11564 0.11564 h 0.10278 0.10279 v 0.11563 0.11564 h 0.11563 0.11564 v 0.11564 0.11563 h -0.11564 -0.11563 v 0.11564 0.11564 h -0.10279 -0.10278 v 0.11564 0.11563 h 0.10278 0.10279 v 0.11564 0.11564 h 0.11563 0.11564 v 0.10278 0.10279 h -0.11564 -0.11563 v 0.11564 0.11564 h -0.10279 -0.10278 v 0.11563 0.11564 h -0.11564 -0.11564 v -0.11564 -0.11563 h 0.11564 0.11564 v -0.33407 -0.33406 h -0.11564 -0.11564 v 0.11564 0.11564 h -0.3469 -0.34691 v 0.10278 0.10279 h -0.11564 -0.11563 v 0.11564 0.11564 h 0.11563 0.11564 v 0.11563 0.11564 h 0.11563 0.11564 v -0.11564 -0.11563 h 0.11564 0.11563 v 0.23127 0.23127 h 0.11564 0.11563 v 0.23128 0.23127 h 0.11564 0.11564 v -0.11564 -0.11563 h 0.10278 0.10279 v -0.23128 -0.23127 h 0.11563 0.11564 v 0.23127 0.23128 h -0.11564 -0.11563 v 0.11563 0.11564 h 0.11563 0.11564 v 0.33406 0.33406 h -0.21842 -0.21842 v -0.10278 -0.10279 h 0.10278 0.10279 v -0.23127 -0.23128 h -0.10279 -0.10278 v 0.11564 0.11564 h -0.11564 -0.11564 v -0.11564 -0.11564 h -0.11563 -0.11564 v 0.23128 0.23127 h 0.11564 0.11563 v 0.21842 0.21843 h 0.11564 0.11564 v 0.11564 0.11563 h 0.10278 0.10279 v 0.11564 0.11564 h 0.11563 0.11564 v 0.23127 0.23128 h -0.11564 -0.11563 v 0.11563 0.11564 h -0.21842 -0.21843 v 0.11564 0.11563 h 0.33406 0.33406 v 0.10279 0.10279 h -0.11564 -0.11563 v 0.11564 0.11563 h -0.33406 -0.33406 v -0.11563 -0.11564 h -0.11563 -0.11564 v -0.10279 -0.10279 h 0.11564 0.11563 v -0.23127 -0.23127 h -0.11563 -0.11564 v 0.11563 0.11564 h -0.11564 -0.11563 v 0.11564 0.11563 h -0.11564 -0.11563 v 0.10279 0.10279 h 0.11563 0.11564 v 0.11564 0.11563 h -0.11564 -0.11563 v -0.11563 -0.11564 h -0.11565 -0.11563 v 0.11564 0.11563 h -0.11564 -0.11564 v -0.11563 -0.11564 h -0.21841 -0.21843 v 0.11564 0.11563 h -0.11564 -0.11563 v -0.11563 -0.11564 h -0.23127 -0.23128 v 0.11564 0.11563 h -0.11563 -0.11564 v -0.11563 -0.11564 h -0.11564 -0.11564 v 0.11564 0.11563 h -0.33405 -0.33406 v -0.11563 -0.11564 h -0.11564 -0.11564 v 0.11564 0.11563 h -0.11563 -0.11564 v -0.21842 -0.21843 h 0.11564 0.11563 v -0.11563 -0.11564 h -0.11563 -0.11564 v -0.11564 -0.11563 h -0.11563 -0.11564 v -0.11564 -0.11564 h -0.11563 -0.11564 v 0.11564 0.11564 h -0.11564 -0.11564 v 0.11563 0.11564 h 0.23128 0.23127 v 0.11564 0.11563 h -0.23127 -0.23128 v 0.21843 0.21842 h -0.11564 -0.11563 z m 2.05575,0.23128 v -0.10279 h -0.33405 -0.33406 v 0.10279 0.10279 h 0.33406 0.33405 z m 0.46255,0 v -0.10279 h 0.34691 0.34691 v -0.11569 -0.11563 h -0.11564 -0.11563 v -0.11564 -0.11563 h -0.11564 -0.11563 v -0.11564 -0.11564 h -0.34691 -0.34692 v -0.11564 -0.11563 h -0.21842 -0.21842 v -0.11564 -0.11564 h 0.10279 0.10278 v -0.11563 -0.11564 h -0.21842 -0.21842 v -0.11609 -0.11564 h 0.56533 0.56533 v 0.11564 0.11564 h -0.23127 -0.23128 v 0.11564 0.11563 h 0.23128 0.23127 v 0.11564 0.11564 h 0.11564 0.11564 v -0.11564 -0.11564 h 0.11563 0.11564 v 0.11564 0.11564 h 0.11563 0.11564 v 0.11563 0.11564 h 0.11564 0.11563 v -0.11564 -0.11563 h -0.11563 -0.11564 v -0.11564 -0.11564 h 0.11564 0.11563 v -0.11563 -0.11564 h 0.10279 0.10278 v -0.11564 -0.11564 h 0.23128 0.23128 v -0.10278 -0.10279 h 0.11563 0.11564 v 0.10279 0.10278 h 0.23127 0.23127 v -0.10276 -0.10279 h -0.23127 -0.23127 v -0.11564 -0.11563 h 0.11563 0.11564 v -0.23128 -0.23127 h 0.11564 0.11563 v -0.11564 -0.11564 h -0.23127 -0.23127 v -0.11563 -0.11564 h -0.11564 -0.11563 v -0.11564 -0.11563 h -0.11565 -0.11563 v -0.11564 -0.11564 h -0.33406 -0.33406 v 0.23128 0.23127 h -0.11564 -0.11563 v -0.11564 -0.11563 h -0.11564 -0.11563 v -0.11564 -0.11564 h 0.11563 0.11564 v -0.10279 -0.10278 h 0.11563 0.11564 v -0.11564 -0.11564 h -0.23127 -0.23127 v 0.21843 0.21842 h -0.11564 -0.11564 v -0.10279 -0.10278 h -0.11563 -0.11564 v 0.10278 0.10279 h -0.11564 -0.11564 v -0.10279 -0.10278 h -0.33405 -0.33406 v 0.10278 0.10279 h -0.11564 -0.11564 v 0.11564 0.11564 h -0.11563 -0.11564 v -0.21843 -0.21842 h 0.11564 0.11563 v -0.11564 -0.11564 h -0.11563 -0.11564 v -0.11563 -0.11564 h -0.11563 -0.11564 v -0.11564 -0.11564 h -0.11563 -0.11564 v 0.11564 0.11564 h -0.11564 -0.11564 v -0.11564 -0.11564 h -0.11564 -0.11563 v -0.11563 -0.11564 h 0.11563 0.11564 v -0.11564 -0.11563 h -0.21842 -0.21842 v -0.11564 -0.11564 h -0.11564 -0.11564 v 0.11564 0.11564 h 0.11564 0.11564 v 0.11563 0.11564 h -0.23128 -0.23127 v -0.11564 -0.11563 h -0.11563 -0.11564 v -0.11564 -0.11564 h -0.34691 -0.34691 v 0.46255 0.46255 h 0.23127 0.23128 v -0.11564 -0.11564 h -0.11564 -0.11564 v -0.23127 -0.23127 h 0.11564 0.11564 v 0.11563 0.11564 h 0.11563 0.11564 v 0.11564 0.11563 h 0.34691 0.34691 v 0.11564 0.11564 h -0.11564 -0.11564 v 0.11564 0.11563 h -0.11563 -0.11564 v -0.11563 -0.11564 h -0.11563 -0.11564 v 0.11564 0.11563 h -0.11564 -0.11563 v 0.11564 0.11564 h -0.11564 -0.11564 v 0.10278 0.10279 h 0.11564 0.11564 v -0.10279 -0.10278 h 0.23127 0.23127 v 0.10278 0.10279 h 0.23127 0.23128 v -0.10279 -0.10278 h -0.11564 -0.11564 v -0.11564 -0.11564 h 0.11564 0.11564 v -0.11563 -0.11564 h 0.10279 0.10278 v 0.11564 0.11563 h 0.11563 0.11564 v 0.21843 0.21842 h 0.11564 0.11564 v -0.33406 -0.33406 h 0.11564 0.11563 v 0.4497 0.4497 h -0.23127 -0.23128 v 0.11563 0.11564 h -0.11564 -0.11563 v 0.11564 0.11563 h -0.21842 -0.21843 v 0.11564 0.11564 h 0.11564 0.11564 v 0.11563 0.11564 h -0.34691 -0.34691 v -0.11564 -0.11563 h 0.11564 0.11563 v -0.11564 -0.11564 h -0.11563 -0.11564 v 0.11564 0.11564 h -0.11564 -0.11563 v 0.11563 0.11564 h 0.11563 0.11564 v 0.11564 0.11564 h 0.34691 0.34691 v 0.11563 0.11564 h 0.10279 0.10278 v -0.23127 -0.23128 h 0.11563 0.11564 v 0.23128 0.23127 h 0.11564 0.11564 v 0.10279 0.10278 h 0.11564 0.11563 v 0.11564 0.11564 h -0.11563 -0.11564 v 0.11564 0.11563 h -0.11564 -0.11564 v 0.11564 0.11564 h 0.11564 0.11564 v -0.11564 -0.11564 h 0.34691 0.3469 v 0.11564 0.11564 h -0.11563 -0.11564 v 0.23127 0.23128 h 0.34691 0.34691 v -0.11564 -0.11564 h 0.10279 0.10278 v 0.23128 0.23127 h 0.34691 0.34691 v 0.11564 0.11563 h -0.11563 -0.11564 v 0.10279 0.10279 h 0.11564 0.11563 z m -1.13066,-0.91225 v -0.11564 h 0.11563 0.11564 v 0.11564 0.11564 h -0.11564 -0.11563 z m 1.13066,-0.46255 v -0.11563 h 0.11564 0.11564 v 0.11563 0.11564 h -0.11564 -0.11564 z m 0.46255,0 v -0.11563 h 0.11563 0.11564 v 0.11563 0.11564 h -0.11564 -0.11563 z m -2.05576,-0.33406 v -0.21842 h 0.11564 0.11563 v -0.11569 -0.11563 h -0.11563 -0.11564 v -0.11564 -0.11564 h -0.23127 -0.23127 v -0.23172 -0.23128 h -0.11564 -0.11564 v -0.11563 -0.11564 h 0.46255 0.46254 v 0.11564 0.11563 h -0.11563 -0.11564 v 0.23128 0.23127 h 0.34691 0.34691 v -0.11564 -0.11563 h -0.11564 -0.11563 v -0.11564 -0.11564 h 0.11563 0.11564 v 0.11564 0.11564 h 0.21842 0.21842 v 0.11563 0.11564 h -0.11563 -0.11564 v 0.11564 0.11564 h 0.23127 0.23128 v -0.11564 -0.11564 h 0.11564 0.11563 v 0.23128 0.23127 h 0.11564 0.11564 v -0.23127 -0.23128 h 0.11563 0.11564 v -0.11564 -0.11563 h -0.23127 -0.23128 v -0.11564 -0.11564 h -0.23127 -0.23128 v -0.11563 -0.11564 h -0.21842 -0.21842 v -0.11564 -0.11564 h -0.11564 -0.11563 v -0.11561 -0.11564 h 0.33406 0.33405 v 0.23128 0.23127 h 0.11564 0.11564 v -0.23127 -0.23128 h 0.11564 0.11563 v 0.11564 0.11564 h 0.11564 0.11564 v 0.11563 0.11564 h 0.11563 0.11564 v 0.11564 0.11563 h 0.11563 0.11564 v -0.11563 -0.11564 h 0.11564 0.11563 v 0.11564 0.11563 h 0.10279 0.10278 v -0.11563 -0.11564 h 0.23128 0.23128 v 0.11564 0.11563 h 0.11563 0.11564 v 0.11564 0.11564 h -0.11564 -0.11563 v 0.23127 0.23128 h -0.11565 -0.11563 v 0.11563 0.11564 h -0.11564 -0.11564 v 0.10279 0.10278 h -0.56533 -0.56533 v -0.10278 -0.10279 h -0.56533 -0.56533 v 0.10279 0.10278 h -0.11564 -0.11564 v 0.11564 0.11564 h -0.11563 -0.11564 z m 2.28703,-0.33406 v -0.11568 h -0.11564 -0.11563 v 0.11563 0.11564 h 0.11563 0.11564 z m 0.43684,0 v -0.11568 h 0.11564 0.11564 v -0.11564 -0.11564 h -0.11564 -0.11564 v -0.11609 -0.11563 h 0.23128 0.23128 v -0.11564 -0.11564 h -0.23128 -0.23128 v 0.11564 0.11564 h -0.10278 -0.10279 v -0.11564 -0.11564 h -0.11563 -0.11564 v 0.23128 0.23127 h 0.11564 0.11563 v 0.23128 0.23127 h 0.10279 0.10278 z m -0.89938,-0.9251 v -0.11568 h -0.11564 -0.11564 v 0.11564 0.11563 h 0.11564 0.11564 z m 1.13066,2.96802 v -0.10279 h 0.11563 0.11565 v -0.11569 -0.11563 h -0.11565 -0.11563 v -0.11564 -0.11563 h -0.21842 -0.21843 v 0.11563 0.11564 h 0.21843 0.21842 v 0.11563 0.11564 h -0.11564 -0.11564 v 0.10279 0.10279 h 0.11564 0.11564 z m 1.59321,-0.79661 v -0.23128 h -0.10279 -0.10278 v -0.11568 -0.11564 h -0.23128 -0.23127 v 0.23128 0.23127 h 0.11564 0.11563 v -0.11564 -0.11563 h 0.11564 0.11564 v 0.23127 0.23128 h 0.10278 0.10279 z m -0.89939,-0.34694 v -0.34691 h -0.34691 -0.34691 v 0.34691 0.34691 h 0.34691 0.34691 z m -0.46254,0 v -0.11564 h 0.11563 0.11564 v 0.11564 0.11564 h -0.11564 -0.11563 z m -5.47346,-2.05577 v -0.11563 h -0.11564 -0.11563 v 0.11563 0.11564 h 0.11563 0.11564 z m 0.46255,0 v -0.11563 h -0.11564 -0.11563 v 0.11563 0.11564 h 0.11563 0.11564 z m 0.69382,0 v -0.11563 h -0.11564 -0.11564 v 0.11563 0.11564 h 0.11564 0.11564 z m 4.08581,-0.66812 v -0.11564 h -0.11564 -0.11564 v -0.11608 -0.11564 h 0.23128 0.23128 v -0.23128 -0.23127 h -0.11565 -0.11563 v -0.11564 -0.11563 h -0.11564 -0.11564 v -0.11564 -0.11564 h 0.11564 0.11564 v -0.11563 -0.11564 h -0.21842 -0.21843 v 0.23127 0.23128 h 0.10279 0.10278 v 0.11563 0.11564 h 0.11564 0.11564 v 0.11564 0.11563 h -0.44969 -0.4497 v 0.11564 0.11564 h 0.23127 0.23127 v 0.11564 0.11563 h 0.10279 0.10278 v 0.11564 0.11564 h 0.11564 0.11564 z m -1.59321,-0.23127 v -0.11609 h -0.33406 -0.33406 v 0.11564 0.11563 h 0.33406 0.33406 z m 2.98085,-0.69383 v -0.11563 h -0.11564 -0.11564 v 0.11563 0.11564 h 0.11564 0.11564 z m -3.88024,-0.89939 v -0.11609 h -0.11564 -0.11564 v 0.11564 0.11563 h 0.11564 0.11564 z m 0.89939,0 v -0.11609 h -0.11564 -0.11564 v 0.11564 0.11563 h 0.11564 0.11564 z m 0.46255,-0.11564 v -0.23128 h 0.11563 0.11564 v -0.34736 -0.34691 h 0.11563 0.11564 v -0.11563 -0.11564 h -0.11564 -0.11563 v 0.11564 0.11563 h -0.11564 -0.11563 v 0.11564 0.11564 h -0.11564 -0.11564 v 0.11563 0.11564 h 0.11564 0.11564 v 0.11564 0.11563 h -0.11564 -0.11564 v 0.23128 0.23127 h 0.11564 0.11564 z m 0.89938,0.11564 v -0.11609 h -0.10278 -0.10279 v 0.11564 0.11563 h 0.10279 0.10278 z m -1.36193,-0.46255 v -0.11564 h -0.11564 -0.11564 v 0.11564 0.11563 h 0.11564 0.11564 z m -1.59321,-0.23128 v -0.11563 h -0.11563 -0.11564 v 0.11563 0.11564 h 0.11564 0.11563 z m 2.95514,0 v -0.11563 h -0.10278 -0.10279 v 0.11563 0.11564 h 0.10279 0.10278 z m -5.0109,4.77966 v -0.11564 h 0.11564 0.11564 v 0.11564 0.11564 h -0.11564 -0.11564 z m 5.70473,-3.64898 v -0.11564 h 0.11563 0.11564 v 0.11564 0.11563 h -0.11564 -0.11563 z m -6.15562,-0.35362 -0.0124,-0.0324 0.007,-0.77063 0.007,-0.77063 0.80303,-0.007 0.80303,-0.007 v 0.80982 0.80982 h -0.7974 -0.79741 z m 1.36313,-0.77706 v -0.56533 l -0.5589,-0.007 -0.55891,-0.007 v 0.57919 0.57918 l 0.55891,-0.007 0.5589,-0.007 z m -0.91224,0 v -0.34736 h 0.34691 0.34691 v 0.34691 0.34691 h -0.34691 -0.34691 z m 1.36194,0.57819 v -0.23128 h 0.11563 0.11564 v 0.23128 0.23127 h -0.11564 -0.11563 z m 4.11152,-0.57819 v -0.80945 h 0.79659 0.79661 v 0.80945 0.80946 h -0.79661 -0.79659 z m 1.36193,-5e-4 v -0.57869 l -0.55891,0.007 -0.55891,0.007 -0.007,0.53898 -0.007,0.53897 0.0126,0.0328 0.0126,0.0328 h 0.5533 0.55328 z m -0.89939,5e-4 v -0.34736 h 0.34691 0.34691 v 0.34691 0.34691 h -0.34691 -0.34691 z"
       id="path19"
       inkscape:label="QR Code Spare Part Number" /><g
       id="g22"
       transform="translate(0.29211681,0.29211681)"
       inkscape:label="ICON OEM Part"
       style="fill:#ffffff;fill-opacity:1"><circle
         style="fill:#ffffff;fill-opacity:1;stroke:#000000;stroke-width:0.0952042;stroke-opacity:1"
         id="path20"
         cx="2.1720018"
         cy="2.1719992"
         r="1.4523978" /><text
         xml:space="preserve"
         style="font-style:normal;font-variant:normal;font-weight:500;font-stretch:normal;font-size:0.756104px;font-family:Tuffy;-inkscape-font-specification:'Tuffy Medium';text-align:start;letter-spacing:0px;word-spacing:0px;writing-mode:lr-tb;direction:ltr;text-anchor:start;fill:#ffffff;fill-opacity:1;stroke:#000000;stroke-width:0.0446519;stroke-opacity:1"
         x="2.1595209"
         y="2.1195567"
         id="text21"><tspan
           sodipodi:role="line"
           id="tspan21"
           style="font-style:normal;font-variant:normal;font-weight:800;font-stretch:normal;font-family:Cantarell;-inkscape-font-specification:'Cantarell Ultra-Bold';text-align:center;text-anchor:middle;fill:#ffffff;fill-opacity:1;stroke:none;stroke-width:0.0446519"
           x="2.1595209"
           y="2.1195567">OEM</tspan></text><text
         xml:space="preserve"
         style="font-style:normal;font-variant:normal;font-weight:500;font-stretch:normal;font-size:0.71492px;font-family:Tuffy;-inkscape-font-specification:'Tuffy Medium';text-align:start;letter-spacing:0px;word-spacing:0px;writing-mode:lr-tb;direction:ltr;text-anchor:start;fill:#ffffff;fill-opacity:1;stroke:#000000;stroke-width:0.0422198;stroke-opacity:1"
         x="2.1768808"
         y="2.7358122"
         id="text21-0"><tspan
           sodipodi:role="line"
           id="tspan21-3"
           style="font-style:normal;font-variant:normal;font-weight:800;font-stretch:normal;font-family:Cantarell;-inkscape-font-specification:'Cantarell Ultra-Bold';text-align:center;text-anchor:middle;fill:#ffffff;fill-opacity:1;stroke:none;stroke-width:0.0422198"
           x="2.1768808"
           y="2.7358122">PART</tspan></text></g><g
       id="g21"
       transform="translate(3.3350996,-3.3846308)"
       inkscape:label="ICON SPARE Part"
       style="fill:#ffffff;fill-opacity:1"><g
         id="g25"
         transform="translate(0.29211681,0.29211681)"
         style="fill:#ffffff;fill-opacity:1"><circle
           style="fill:#ffffff;fill-opacity:1;stroke:#000000;stroke-width:0.0952042;stroke-opacity:1"
           id="path20-2"
           cx="2.1719999"
           cy="5.5390449"
           r="1.4523978" /><text
           xml:space="preserve"
           style="font-style:normal;font-variant:normal;font-weight:500;font-stretch:normal;font-size:0.756104px;font-family:Tuffy;-inkscape-font-specification:'Tuffy Medium';text-align:start;letter-spacing:0px;word-spacing:0px;writing-mode:lr-tb;direction:ltr;text-anchor:start;fill:#ffffff;fill-opacity:1;stroke:#000000;stroke-width:0.0446519;stroke-opacity:1"
           x="2.1612194"
           y="5.5566497"
           id="text21-5"><tspan
             sodipodi:role="line"
             id="tspan21-4"
             style="font-style:normal;font-variant:normal;font-weight:800;font-stretch:normal;font-family:Cantarell;-inkscape-font-specification:'Cantarell Ultra-Bold';text-align:center;text-anchor:middle;fill:#ffffff;fill-opacity:1;stroke:none;stroke-width:0.0446519"
             x="2.1612194"
             y="5.5566497">SPARE</tspan></text><text
           xml:space="preserve"
           style="font-style:normal;font-variant:normal;font-weight:500;font-stretch:normal;font-size:0.71492px;font-family:Tuffy;-inkscape-font-specification:'Tuffy Medium';text-align:start;letter-spacing:0px;word-spacing:0px;writing-mode:lr-tb;direction:ltr;text-anchor:start;fill:#ffffff;fill-opacity:1;stroke:#000000;stroke-width:0.0422198;stroke-opacity:1"
           x="2.165204"
           y="6.1729054"
           id="text21-0-7"><tspan
             sodipodi:role="line"
             id="tspan21-3-4"
             style="font-style:normal;font-variant:normal;font-weight:800;font-stretch:normal;font-family:Cantarell;-inkscape-font-specification:'Cantarell Ultra-Bold';text-align:center;text-anchor:middle;fill:#ffffff;fill-opacity:1;stroke:none;stroke-width:0.0422198"
             x="2.165204"
             y="6.1729054">PART</tspan></text></g></g><text
       xml:space="preserve"
       style="font-size:3.2346px;font-family:'Eurostile LT Std';-inkscape-font-specification:'Eurostile LT Std';text-align:start;letter-spacing:0px;word-spacing:0px;writing-mode:lr-tb;direction:ltr;text-anchor:start;fill:#ffffff;fill-opacity:1;stroke-width:0.19102"
       x="56.266075"
       y="3.6510446"
       id="text6"
       inkscape:label="Herstellername"><tspan
         sodipodi:role="line"
         id="tspan6"
         style="font-style:normal;font-variant:normal;font-weight:500;font-stretch:normal;font-size:3.2346px;font-family:Tuffy;-inkscape-font-specification:'Tuffy Medium';fill:#ffffff;fill-opacity:1;stroke-width:0.19102"
         x="56.266075"
         y="3.6510446"><tspan
           style="font-style:normal;font-variant:normal;font-weight:bold;font-stretch:normal;font-family:Tuffy;-inkscape-font-specification:'Tuffy Bold';fill:#ffffff;fill-opacity:1"
           id="tspan24">Code99  Automotive</tspan></tspan></text><path
       style="fill:#ffffff;fill-opacity:1;stroke-width:0.0301904"
       d="m 51.56537,3.6845645 -0.05081,-0.00707 -0.08321,-0.020837 -0.08321,-0.020836 -0.07445,-0.030988 -0.07445,-0.030988 -0.07109,-0.040885 -0.0711,-0.040884 -0.05592,-0.04288 -0.05592,-0.04288 -0.07061,-0.071228 -0.0706,-0.071229 -0.05104,-0.07115 -0.05104,-0.071152 -0.04378,-0.087866 -0.04378,-0.087866 -0.02474,-0.075885 -0.02474,-0.075885 -0.01644,-0.095854 -0.01644,-0.095854 0.0041,-0.1357941 0.0041,-0.1357938 0.01644,-0.071892 0.01644,-0.071891 0.02899,-0.083264 0.02899,-0.083263 0.02669,-0.053017 0.02669,-0.053016 0.05015,-0.075399 0.05015,-0.075399 0.09628,-0.096528 0.09629,-0.096529 0.06642,-0.046173 0.06642,-0.046173 0.07532,-0.038347 0.07532,-0.038347 0.08592,-0.028523 0.08592,-0.028523 0.09465,-0.016084 0.09465,-0.016084 0.09707,1.541e-4 0.09705,1.537e-4 0.07588,0.010792 0.07588,0.010792 0.07719,0.021066 0.07719,0.021067 0.05671,0.024132 0.05671,0.024133 0.06579,0.036111 0.06579,0.036112 0.0639,0.047521 0.0639,0.047522 0.06261,0.061914 0.06261,0.061913 0.03821,0.047928 0.03821,0.047928 0.03783,0.05863 0.03782,0.05863 0.02815,0.060932 0.02815,0.060931 0.02285,0.065963 0.02286,0.065963 0.01693,0.074082 0.01693,0.074082 0.0041,0.1357943 0.0041,0.1357942 -0.01651,0.096561 -0.01651,0.096561 -0.02478,0.075177 -0.02478,0.075177 -0.04368,0.087868 -0.04368,0.087867 -0.05104,0.07115 -0.05104,0.071152 -0.07061,0.071357 -0.07061,0.071356 -0.06201,0.046915 -0.06202,0.046914 -0.05583,0.032607 -0.05583,0.032607 -0.05789,0.024695 -0.05789,0.024695 -0.05592,0.019277 -0.05592,0.019277 -0.07588,0.016493 -0.07588,0.016493 -0.135794,0.00256 -0.135794,0.00256 z m 0.241751,-0.2635733 0.07911,-0.00769 0.07561,-0.020126 0.07561,-0.020126 0.06805,-0.031887 0.06805,-0.031886 0.06585,-0.043815 0.06585,-0.043815 0.05919,-0.058029 0.0592,-0.058029 0.04234,-0.055914 0.04234,-0.055914 0.04329,-0.088111 0.04329,-0.08811 0.02288,-0.091616 0.02288,-0.091616 0.0054,-0.07658 0.0054,-0.07658 -0.0087,-0.071195 -0.0087,-0.071195 -0.0198,-0.075885 -0.0198,-0.075885 -0.03535,-0.07365 -0.03535,-0.07365 -0.03375,-0.050162 -0.03375,-0.050163 -0.04801,-0.054597 -0.04801,-0.054596 -0.06574,-0.05133 -0.06574,-0.051331 -0.06749,-0.035907 -0.06749,-0.035907 -0.06738,-0.023349 -0.06738,-0.023345 -0.07154,-0.013971 -0.07154,-0.013976 -0.09985,9.372e-4 -0.09985,9.37e-4 -0.07837,0.016987 -0.07837,0.016987 -0.05344,0.019959 -0.05344,0.019959 -0.0679,0.036439 -0.0679,0.036439 -0.0659,0.051333 -0.0659,0.051332 -0.04718,0.054816 -0.04718,0.054816 -0.03162,0.046598 -0.03162,0.046598 -0.03299,0.065645 -0.03299,0.065645 -0.02041,0.070148 -0.02041,0.070149 -0.01202,0.083873 -0.01202,0.083872 0.0052,0.075885 0.0052,0.075885 0.0112,0.054618 0.01121,0.054618 0.02046,0.060978 0.02047,0.060977 0.03602,0.069736 0.03602,0.069736 0.04104,0.054306 0.04105,0.054306 0.05483,0.054149 0.05482,0.054149 0.05728,0.040442 0.05728,0.040447 0.06019,0.030443 0.0602,0.030444 0.05962,0.019733 0.05963,0.019733 0.03994,0.00916 0.03994,0.00916 0.0599,0.00678 0.05991,0.00678 0.01996,8.52e-4 0.01996,8.078e-4 z m -0.14302,-0.229012 -0.02396,-0.00306 -0.05592,-0.012136 -0.05592,-0.012136 -0.05592,-0.025227 -0.05592,-0.025227 -0.03195,-0.019882 -0.03195,-0.019882 -0.05463,-0.043253 -0.05463,-0.043252 -0.04794,-0.064659 -0.04794,-0.064659 -0.02211,-0.044249 -0.0221,-0.044249 -0.01663,-0.048628 -0.01664,-0.048627 -0.0095,-0.054502 -0.0095,-0.054502 0.0043,-0.092574 0.0043,-0.092574 0.02126,-0.071891 0.02126,-0.071891 0.03488,-0.063903 0.03489,-0.063903 0.04649,-0.053797 0.04649,-0.053797 0.04922,-0.039075 0.04922,-0.039075 0.04494,-0.025717 0.04494,-0.025717 0.06559,-0.022302 0.06559,-0.022302 0.06238,-0.010058 0.06239,-0.010058 0.07474,0.00491 0.07474,0.00491 0.05458,0.013282 0.05458,0.013282 0.06665,0.030741 0.06665,0.030741 0.04918,0.0352 0.04918,0.0352 0.0489,0.051072 0.0489,0.051071 0.0301,0.047067 0.0301,0.047066 0.02183,0.048552 0.02183,0.048553 0.0055,0.017971 0.0056,0.017975 h -0.143937 -0.143936 l -0.02351,-0.034166 -0.02351,-0.034161 -0.0331,-0.033092 -0.0331,-0.033091 -0.03764,-0.023983 -0.03764,-0.023983 -0.05192,-0.017766 -0.05192,-0.017766 -0.06422,-0.00374 -0.06422,-0.00375 -0.04571,0.00949 -0.04571,0.00949 -0.05683,0.02843 -0.05684,0.02843 -0.04981,0.048866 -0.04981,0.048866 -0.02626,0.051922 -0.02625,0.051921 -0.0107,0.03994 -0.0107,0.03994 -9.4e-5,0.069589 -9.3e-5,0.06959 0.01873,0.058997 0.01873,0.058997 0.0299,0.045047 0.0299,0.045047 0.03831,0.034446 0.03831,0.034446 0.04685,0.024896 0.04685,0.024895 0.05192,0.013555 0.05192,0.013555 0.07699,-0.00409 0.07699,-0.00409 0.06909,-0.032378 0.0691,-0.032377 0.05043,-0.048427 0.05043,-0.048426 0.01498,-0.027837 0.01498,-0.027837 h 0.146499 0.146497 l -0.0055,0.017971 -0.0055,0.017971 -0.02621,0.057311 -0.02622,0.057311 -0.02545,0.036992 -0.02545,0.036992 -0.04886,0.052227 -0.04886,0.052227 -0.04831,0.034238 -0.04831,0.034238 -0.04375,0.021982 -0.04375,0.021978 -0.04412,0.01542 -0.04412,0.015419 -0.0639,0.011472 -0.0639,0.011471 -0.05592,-0.00119 -0.05592,-0.00119 z"
       id="path21"
       inkscape:label="Copyright" /><text
       xml:space="preserve"
       style="font-style:normal;font-variant:normal;font-weight:500;font-stretch:normal;font-size:1.08922px;font-family:Tuffy;-inkscape-font-specification:'Tuffy Medium';text-align:center;letter-spacing:0px;word-spacing:0px;writing-mode:lr-tb;direction:ltr;text-anchor:middle;fill:#ffffff;fill-opacity:1;stroke:none;stroke-width:0.0643241;stroke-opacity:1"
       x="68.207359"
       y="2.0752068"
       id="text26"><tspan
         sodipodi:role="line"
         id="tspan26"
         style="fill:#ffffff;fill-opacity:1;stroke-width:0.0643241"
         x="68.207359"
         y="2.0752068">TM</tspan></text><g
       inkscape:label="Ebene 1"
       id="layer1-3"
       transform="matrix(0.01486605,0,0,0.01486605,53.09803,0.87924892)"
       style="fill:#ffffff;fill-opacity:1"><g
         aria-label="9"
         transform="matrix(2.4098602,0,0,2.3942454,-0.03576776,-587.92908)"
         id="text7224"
         style="font-size:40px;white-space:pre;fill:#ffffff;fill-opacity:1"><path
           d="m 55.835312,308.45024 8.560001,-9.84 h -0.16 q -1.12,0.68 -1.84,0.84 -0.72,0.12 -1.28,0.12 -2.200001,0 -4.08,-0.84 -1.840001,-0.84 -3.200001,-2.28 -1.32,-1.48 -2.079999,-3.44 -0.760001,-1.96 -0.760001,-4.2 0,-2.4 0.88,-4.44 0.880001,-2.08 2.520001,-3.6 1.68,-1.56 4.04,-2.44 2.36,-0.88 5.32,-0.88 3,0 5.36,0.88 2.359999,0.88 4,2.4 1.679999,1.52 2.56,3.56 0.879999,2 0.879999,4.28 0,2.56 -1.159999,5.56 -1.120001,2.96 -3.480001,5.84 l -7,8.48 z m 12.96,-19.8 q 0,-1.04 -0.399999,-1.92 -0.400001,-0.92 -1.08,-1.6 -0.680001,-0.68 -1.600001,-1.08 -0.88,-0.4 -1.919999,-0.4 -1.04,0 -1.960001,0.4 -0.879999,0.4 -1.56,1.08 -0.68,0.68 -1.08,1.6 -0.399999,0.88 -0.399999,1.92 0,1.04 0.399999,1.96 0.4,0.88 1.08,1.56 0.680001,0.68 1.56,1.08 0.920001,0.4 1.960001,0.4 1.039999,0 1.919999,-0.4 0.92,-0.4 1.600001,-1.08 0.679999,-0.68 1.08,-1.56 0.399999,-0.92 0.399999,-1.96 z"
           style="-inkscape-font-specification:'Futura Bold';fill:#ffffff;fill-opacity:1"
           id="path9650" /></g><g
         aria-label="9"
         transform="matrix(2.4098602,0,0,2.3942454,-42.930837,-587.81558)"
         id="text7224-1"
         style="font-size:40px;white-space:pre;fill:#ffffff;fill-opacity:1"><path
           d="m 55.835312,308.45024 8.560001,-9.84 h -0.16 q -1.12,0.68 -1.84,0.84 -0.72,0.12 -1.28,0.12 -2.200001,0 -4.08,-0.84 -1.840001,-0.84 -3.200001,-2.28 -1.32,-1.48 -2.079999,-3.44 -0.760001,-1.96 -0.760001,-4.2 0,-2.4 0.88,-4.44 0.880001,-2.08 2.520001,-3.6 1.68,-1.56 4.04,-2.44 2.36,-0.88 5.32,-0.88 3,0 5.36,0.88 2.359999,0.88 4,2.4 1.679999,1.52 2.56,3.56 0.879999,2 0.879999,4.28 0,2.56 -1.159999,5.56 -1.120001,2.96 -3.480001,5.84 l -7,8.48 z m 12.96,-19.8 q 0,-1.04 -0.399999,-1.92 -0.400001,-0.92 -1.08,-1.6 -0.680001,-0.68 -1.600001,-1.08 -0.88,-0.4 -1.919999,-0.4 -1.04,0 -1.960001,0.4 -0.879999,0.4 -1.56,1.08 -0.68,0.68 -1.08,1.6 -0.399999,0.88 -0.399999,1.92 0,1.04 0.399999,1.96 0.4,0.88 1.08,1.56 0.680001,0.68 1.56,1.08 0.920001,0.4 1.960001,0.4 1.039999,0 1.919999,-0.4 0.92,-0.4 1.600001,-1.08 0.679999,-0.68 1.08,-1.56 0.399999,-0.92 0.399999,-1.96 z"
           style="-inkscape-font-specification:'Futura Bold';fill:#ffffff;fill-opacity:1"
           id="path9645" /></g><path
         id="path1261"
         style="fill:#ffffff;fill-opacity:1;stroke-width:0.999999"
         d="M 401.78125,109.14844 A 303.92437,303.92437 0 0 0 97.857422,413.07422 303.92437,303.92437 0 0 0 401.78125,716.99805 303.92437,303.92437 0 0 0 660.73242,571.91797 l -7.7832,-5.57031 A 263.46386,248.40878 0 0 1 444.94727,662.53711 263.46386,248.40878 0 0 1 181.48242,414.12891 263.46386,248.40878 0 0 1 444.94727,165.7207 263.46386,248.40878 0 0 1 660.48047,271.33398 l 7.34961,-5.13671 A 303.92437,303.92437 0 0 0 401.78125,109.14844 Z"
         transform="scale(0.26458333)" /></g></g><g
     inkscape:groupmode="layer"
     id="layer3"
     inkscape:label="Stanzen"><rect
       style="fill:#000000;fill-opacity:1;stroke:none;stroke-width:0.25;stroke-dasharray:none;stroke-opacity:1"
       id="rect182-7-3"
       width="112"
       height="4.4000001"
       x="-131.50043"
       y="57.326485"
       inkscape:label="2x LED BAR RANGE ESTIMATES"
       rx="1.2"
       ry="1.2"
       transform="scale(-1,1)" /><rect
       style="fill:#000000;fill-opacity:1;stroke:none;stroke-width:0.25;stroke-dasharray:none;stroke-opacity:1"
       id="rect3-4-0"
       width="14.9"
       height="5.0999999"
       x="19.478352"
       y="50.32415"
       rx="2.55"
       ry="2.55"
       inkscape:label="3x LED 5mm FUEL GALLONS" /><rect
       style="fill:#000000;fill-opacity:1;stroke:none;stroke-width:0.25;stroke-dasharray:none;stroke-opacity:1"
       id="rect182-7"
       width="112"
       height="4.4000001"
       x="19.500353"
       y="42.136219"
       inkscape:label="2x LED BAR FUEL GALLONS"
       rx="1.2"
       ry="1.2" /><rect
       style="fill:#000000;fill-opacity:1;stroke:none;stroke-width:0.25;stroke-dasharray:none;stroke-opacity:1"
       id="rect3-4"
       width="14.9"
       height="5.0999999"
       x="19.500353"
       y="35.062664"
       rx="2.55"
       ry="2.55"
       inkscape:label="3x LED 5mm MI GALLONS" /><rect
       style="fill:#000000;fill-opacity:1;stroke:none;stroke-width:0.25;stroke-dasharray:none;stroke-opacity:1"
       id="rect182"
       width="112"
       height="4.4000001"
       x="19.502352"
       y="26.800241"
       inkscape:label="2x LED BAR FUEL GALLONS"
       rx="1.2"
       ry="1.2" /><rect
       style="fill:#000000;fill-opacity:1;stroke:none;stroke-width:0.25;stroke-dasharray:none;stroke-opacity:1"
       id="rect3"
       width="14.9"
       height="5.0999999"
       x="19.500353"
       y="19.900242"
       rx="2.55"
       ry="2.55"
       inkscape:label="3x LED 5mm FUEL GALLONS" /><path
       id="use13-0"
       style="display:inline;fill:#cccccc;fill-opacity:1;stroke:none;stroke-width:0.220517;stroke-dasharray:none;stroke-opacity:1"
       inkscape:label="Säule 1 Clone 9"
       d="m 128.54169,62.921527 v 8.656836 h 0.70022 v -8.656836 z m 0,12.748059 v 11.099581 h 0.70022 V 75.669586 Z m 0,15.190804 v 10.72341 h 0.70022 V 90.86039 Z m 0,14.81465 v 13.64059 h 0.70022 v -13.64059 z" /><use
       x="0"
       y="0"
       inkscape:tiled-clone-of="#rect2-4"
       xlink:href="#rect2-4"
       transform="matrix(1,0,0,1.0002263,96.47999,-0.02552132)"
       id="use12-6"
       inkscape:label="Säule 1 Clone 8"
       style="fill:#cccccc;fill-opacity:1" /><path
       id="use11-3"
       style="display:inline;fill:#cccccc;fill-opacity:1;stroke:none;stroke-width:0.203097;stroke-dasharray:none;stroke-opacity:1"
       inkscape:label="Säule 1"
       d="m 104.42171,62.888971 v 6.836792 h 0.69971 v -6.836792 z m 0,12.196672 v 44.265127 h 0.69971 V 75.085643 Z" /><path
       id="use10-2"
       style="display:inline;fill:#cccccc;fill-opacity:1;stroke:none;stroke-width:0.203082;stroke-dasharray:none;stroke-opacity:1"
       inkscape:label="Säule 1"
       d="m 92.36144,62.888971 v 6.836792 h 0.699699 v -6.836792 z m 0,12.196672 v 44.256337 h 0.699699 V 75.085643 Z" /><path
       id="use9-0"
       style="display:inline;fill:#cccccc;fill-opacity:1;stroke:none;stroke-width:0.220455;stroke-dasharray:none;stroke-opacity:1"
       inkscape:label="Säule 1 Clone 5"
       d="m 80.301194,62.926178 v 6.799585 h 0.700216 v -6.799585 z m 0,12.159465 V 99.662451 H 81.00141 V 75.085643 Z m 0,30.802307 v 13.42303 h 0.700216 v -13.42303 z" /><path
       id="use6-6-5-6"
       style="display:inline;fill:#cccccc;fill-opacity:1;stroke:none;stroke-width:0.220517;stroke-dasharray:none;stroke-opacity:1"
       inkscape:label="Säule 1 Clone 4"
       d="m 68.961835,62.918943 v 6.809921 h 0.700215 v -6.809921 z m 0,12.153264 v 9.701733 h 0.700215 v -9.701733 z m 0,15.045593 v 9.545691 H 69.66205 V 90.1178 Z m 0,15.77015 v 13.42303 h 0.700215 v -13.42303 z" /><path
       id="use6-6-1"
       style="display:inline;fill:#cccccc;fill-opacity:1;stroke:none;stroke-width:0.220517;stroke-dasharray:none;stroke-opacity:1"
       inkscape:label="Säule 1 Clone 3"
       d="m 56.526418,62.918943 v 6.809921 h 0.700216 v -6.809921 z m 0,12.153264 v 9.701733 h 0.700216 v -9.701733 z m 0,15.045593 v 9.545691 h 0.700216 V 90.1178 Z m 0,15.77015 v 13.42303 h 0.700216 v -13.42303 z" /><path
       id="use6-5"
       style="display:inline;fill:#cccccc;fill-opacity:1;stroke:none;stroke-width:0.220517;stroke-dasharray:none;stroke-opacity:1"
       inkscape:label="Säule 1 Clone 2"
       d="m 44.12149,62.912225 v 6.816639 h 0.700216 v -6.816639 z m 0,12.159982 v 9.701733 h 0.700216 v -9.701733 z m 0,15.59388 v 8.997404 h 0.700216 v -8.997404 z m 0,15.230133 v 13.41476 h 0.700216 v -13.41476 z" /><path
       id="use5-5"
       style="display:inline;fill:#cccccc;fill-opacity:1;stroke:none;stroke-width:0.202972;stroke-dasharray:none;stroke-opacity:1"
       inkscape:label="Säule 1"
       d="M 32.061245,62.918943 V 119.31098 H 32.76146 V 62.918943 Z" /><path
       id="rect2-4"
       style="display:inline;fill:#cccccc;fill-opacity:1;stroke:none;stroke-width:0.202972;stroke-dasharray:none;stroke-opacity:1"
       inkscape:label="Säule 1"
       d="m 20.001516,62.918943 v 56.392037 h 0.699699 V 62.918943 Z" /><text
       xml:space="preserve"
       transform="matrix(0.20522324,0,0,0.20770257,24.977837,65.782732)"
       id="text1-2-1-7"
       style="font-size:17.5667px;text-align:start;writing-mode:lr-tb;direction:ltr;white-space:pre;shape-inside:url(#rect4-9-3-1);display:inline;fill:#cccccc;fill-opacity:1;stroke-width:0.944882"
       inkscape:label="RANGE ESTIMATES Text"><tspan
         x="59.324219"
         y="184.68108"
         id="tspan41"><tspan
           style="font-family:'Eurostile LT Std';-inkscape-font-specification:'Eurostile LT Std'"
           id="tspan40">ACCESS</tspan></tspan></text><text
       xml:space="preserve"
       transform="matrix(0.11246794,0,0,0.11402027,30.464423,66.485572)"
       id="text1-2-5"
       style="font-size:32px;text-align:start;writing-mode:lr-tb;direction:ltr;white-space:pre;shape-inside:url(#rect4-9-9);display:inline;fill:#cccccc;fill-opacity:1;stroke-width:0.944882"
       inkscape:label="MI GALLONS Text"><tspan
         x="59.324219"
         y="197.45117"
         id="tspan43"><tspan
           style="font-family:'Eurostile LT Std';-inkscape-font-specification:'Eurostile LT Std'"
           id="tspan42">PROPAGATION DELAY HRS</tspan></tspan></text><text
       xml:space="preserve"
       transform="matrix(0.17750851,0,0,0.18462392,26.612832,39.221764)"
       id="text1-6"
       style="font-size:19.7626px;text-align:start;writing-mode:lr-tb;direction:ltr;white-space:pre;shape-inside:url(#rect4-4);display:inline;fill:#cccccc;fill-opacity:1;stroke-width:0.944882"
       inkscape:label="FUEL GALLONS Text"><tspan
         x="59.324219"
         y="186.62394"
         id="tspan45"><tspan
           style="font-weight:bold;font-stretch:expanded;font-family:'Eurostile LT Std';-inkscape-font-specification:'Eurostile LT Std Bold Expanded'"
           id="tspan44">CAPACITY STATUS</tspan></tspan></text><text
       xml:space="preserve"
       transform="matrix(0.1440069,0,0,0.10922863,119.39164,68.824002)"
       id="text1-0-8-3-7"
       style="font-size:25.3153px;text-align:start;writing-mode:lr-tb;direction:ltr;white-space:pre;shape-inside:url(#rect4-3-6-4-7);display:inline;fill:#cccccc;fill-opacity:1;stroke-width:0.944882"
       inkscape:label="MI GALLONS 60"><tspan
         x="59.324219"
         y="191.53678"
         id="tspan47"><tspan
           style="font-family:'Eurostile LT Std';-inkscape-font-specification:'Eurostile LT Std'"
           id="tspan46">30</tspan></tspan></text><text
       xml:space="preserve"
       transform="matrix(0.1440069,0,0,0.10922863,119.28647,83.611659)"
       id="text1-0-8-3-0-4"
       style="font-size:25.3153px;text-align:start;writing-mode:lr-tb;direction:ltr;white-space:pre;shape-inside:url(#rect4-3-6-4-3-8);display:inline;fill:#cccccc;fill-opacity:1;stroke-width:0.944882"
       inkscape:label="MI GALLONS 60"><tspan
         x="59.324219"
         y="191.53678"
         id="tspan49"><tspan
           style="font-family:'Eurostile LT Std';-inkscape-font-specification:'Eurostile LT Std'"
           id="tspan48">400</tspan></tspan></text><text
       xml:space="preserve"
       transform="matrix(0.1440069,0,0,0.10922863,119.39164,53.606918)"
       id="text1-0-8-5"
       style="font-size:25.3153px;text-align:start;writing-mode:lr-tb;direction:ltr;white-space:pre;shape-inside:url(#rect4-3-6-45);display:inline;fill:#cccccc;fill-opacity:1;stroke-width:0.944882"
       inkscape:label="FUEL GALLONS 60"><tspan
         x="59.324219"
         y="191.53678"
         id="tspan51"><tspan
           style="font-family:'Eurostile LT Std';-inkscape-font-specification:'Eurostile LT Std'"
           id="tspan50">FULL</tspan></tspan></text><text
       xml:space="preserve"
       transform="matrix(0.14401347,0,0,0.10922863,-0.55982128,85.811274)"
       id="text1-0-8-2-3-7-2"
       style="font-size:32px;text-align:start;writing-mode:lr-tb;direction:ltr;white-space:pre;shape-inside:url(#rect4-3-6-2-0-5-0);display:inline;fill:#cccccc;fill-opacity:1;stroke-width:0.944882"
       inkscape:label="RANGE ESTIMATES 0"><tspan
         x="59.324219"
         y="197.45117"
         id="tspan53"><tspan
           style="font-size:25.3148px;font-family:'Eurostile LT Std';-inkscape-font-specification:'Eurostile LT Std'"
           id="tspan52">200</tspan></tspan></text><text
       xml:space="preserve"
       transform="matrix(0.14400326,0,0,0.10922089,3.0582113,70.50743)"
       id="text1-0-8-2-3-5"
       style="font-size:32px;text-align:start;writing-mode:lr-tb;direction:ltr;white-space:pre;shape-inside:url(#rect4-3-6-2-0-3);display:inline;fill:#cccccc;fill-opacity:1;stroke-width:0.944882"
       inkscape:label="MI GALLONS 0"><tspan
         x="59.324219"
         y="197.45117"
         id="tspan55"><tspan
           style="font-size:25.3148px;font-family:'Eurostile LT Std';-inkscape-font-specification:'Eurostile LT Std'"
           id="tspan54">10</tspan></tspan></text><text
       xml:space="preserve"
       transform="matrix(0.14401347,0,0,0.10922863,6.8891705,55.03351)"
       id="text1-0-8-2-4"
       style="font-size:32px;text-align:start;writing-mode:lr-tb;direction:ltr;white-space:pre;shape-inside:url(#rect4-3-6-2-6);display:inline;fill:#cccccc;fill-opacity:1;stroke-width:0.944882"
       inkscape:label="FUEL GALLONS 0"><tspan
         x="59.324219"
         y="197.45117"
         id="tspan57"><tspan
           style="font-size:25.3148px;font-family:'Eurostile LT Std';-inkscape-font-specification:'Eurostile LT Std'"
           id="tspan56">E</tspan></tspan></text><rect
       style="fill:#000000;fill-opacity:1;stroke:none;stroke-width:0.25;stroke-dasharray:none;stroke-opacity:1"
       id="rect182-7-3-4"
       width="112"
       height="4.4000001"
       x="-131.50146"
       y="107.33848"
       inkscape:label="2x LED BAR RANGE ESTIMATES"
       rx="1.2"
       ry="1.2"
       transform="scale(-1,1)" /><rect
       style="fill:#000000;fill-opacity:1;stroke:none;stroke-width:0.25;stroke-dasharray:none;stroke-opacity:1"
       id="rect3-4-0-4"
       width="14.9"
       height="5.0999999"
       x="19.479425"
       y="100.3362"
       rx="2.55"
       ry="2.55"
       inkscape:label="3x LED 5mm FUEL GALLONS" /><rect
       style="fill:#000000;fill-opacity:1;stroke:none;stroke-width:0.25;stroke-dasharray:none;stroke-opacity:1"
       id="rect182-7-30"
       width="112"
       height="4.4000001"
       x="19.501427"
       y="92.148247"
       inkscape:label="2x LED BAR FUEL GALLONS"
       rx="1.2"
       ry="1.2" /><rect
       style="fill:#000000;fill-opacity:1;stroke:none;stroke-width:0.25;stroke-dasharray:none;stroke-opacity:1"
       id="rect3-4-7"
       width="14.9"
       height="5.0999999"
       x="19.501427"
       y="85.074646"
       rx="2.55"
       ry="2.55"
       inkscape:label="3x LED 5mm MI GALLONS" /><rect
       style="fill:#000000;fill-opacity:1;stroke:none;stroke-width:0.25;stroke-dasharray:none;stroke-opacity:1"
       id="rect182-8"
       width="112"
       height="4.4000001"
       x="19.503426"
       y="76.812164"
       inkscape:label="2x LED BAR FUEL GALLONS"
       rx="1.2"
       ry="1.2" /><rect
       style="fill:#000000;fill-opacity:1;stroke:none;stroke-width:0.25;stroke-dasharray:none;stroke-opacity:1"
       id="rect3-6"
       width="14.9"
       height="5.0999999"
       x="19.501427"
       y="69.91217"
       rx="2.55"
       ry="2.55"
       inkscape:label="3x LED 5mm FUEL GALLONS" /><rect
       style="fill:#000000;fill-opacity:1;stroke:none;stroke-width:0.25;stroke-dasharray:none;stroke-opacity:1"
       id="rect3-9-8-2"
       width="9"
       height="3"
       x="118.80534"
       y="129"
       rx="1.5"
       ry="1.5"
       inkscape:label="Befestigung unten rechts" /><rect
       style="fill:#000000;fill-opacity:1;stroke:none;stroke-width:0.25;stroke-dasharray:none;stroke-opacity:1"
       id="rect3-9-8-2-6"
       width="9"
       height="3"
       x="21.983355"
       y="129"
       rx="1.5"
       ry="1.5"
       inkscape:label="Befestigung unten links" /><rect
       style="fill:#000000;fill-opacity:1;stroke:none;stroke-width:0.25;stroke-dasharray:none;stroke-opacity:1"
       id="rect3-9-8"
       width="9"
       height="3"
       x="109.905"
       y="5"
       rx="1.5"
       ry="1.5"
       inkscape:label="Befestigung oben rechts" /><rect
       style="fill:#000000;fill-opacity:1;stroke:none;stroke-width:0.25;stroke-dasharray:none;stroke-opacity:1"
       id="rect3-9"
       width="9"
       height="3"
       x="13.083"
       y="5"
       rx="1.5"
       ry="1.5"
       inkscape:label="Befestigung oben links" /><rect
       style="fill:#000000;fill-opacity:1;stroke:none;stroke-width:0.25;stroke-dasharray:none;stroke-opacity:1"
       id="rect3-9-5"
       width="9"
       height="3"
       x="61.563"
       y="5.0099545"
       rx="1.5"
       ry="1.5"
       inkscape:label="Befestigung oben links" /><rect
       style="fill:#000000;fill-opacity:1;stroke:none;stroke-width:0.25;stroke-dasharray:none;stroke-opacity:1"
       id="rect3-9-5-2"
       width="9"
       height="3"
       x="70.387077"
       y="129.00182"
       rx="1.5"
       ry="1.5"
       inkscape:label="Befestigung oben links" /></g><g
     inkscape:label="Schneidkontur außen"
     inkscape:groupmode="layer"
     id="layer1"
     transform="translate(-42.534999,-59.814998)"><rect
       style="fill:none;stroke:#ff0000;stroke-width:0.352251;stroke-dasharray:none;stroke-opacity:1"
       id="rect1"
       width="143.64775"
       height="138.64775"
       x="42.711124"
       y="59.991123"
       inkscape:label="Rahmenlinie" /></g></svg>
