<?xml version="1.0" encoding="UTF-8" standalone="no"?>
<!-- Created with Inkscape (http://www.inkscape.org/) -->

<svg
   width="170.53789mm"
   height="127.467mm"
   viewBox="0 0 170.53789 127.46698"
   version="1.1"
   id="svg1"
   inkscape:version="1.4 (e7c3feb100, 2024-10-09)"
   sodipodi:docname="Tachometer.svg"
   xml:space="preserve"
   xmlns:inkscape="http://www.inkscape.org/namespaces/inkscape"
   xmlns:sodipodi="http://sodipodi.sourceforge.net/DTD/sodipodi-0.dtd"
   xmlns="http://www.w3.org/2000/svg"
   xmlns:svg="http://www.w3.org/2000/svg"><sodipodi:namedview
     id="namedview1"
     pagecolor="#ffffff"
     bordercolor="#000000"
     borderopacity="0.25"
     inkscape:showpageshadow="2"
     inkscape:pageopacity="0.0"
     inkscape:pagecheckerboard="0"
     inkscape:deskcolor="#d1d1d1"
     inkscape:document-units="mm"
     inkscape:zoom="1.1416353"
     inkscape:cx="321.90665"
     inkscape:cy="240.88253"
     inkscape:window-width="1407"
     inkscape:window-height="761"
     inkscape:window-x="0"
     inkscape:window-y="32"
     inkscape:window-maximized="0"
     inkscape:current-layer="layer1"
     showguides="true"><sodipodi:guide
       position="-5.6777572,117.17705"
       orientation="0,-1"
       id="guide20"
       inkscape:locked="false" /><sodipodi:guide
       position="-5.990427,10.765522"
       orientation="0,-1"
       id="guide21"
       inkscape:locked="false" /></sodipodi:namedview><defs
     id="defs1"><rect
       x="284.58725"
       y="73.821504"
       width="54.56372"
       height="55.81191"
       id="rect5" /><rect
       x="59.324741"
       y="169.13863"
       width="331.96613"
       height="42.284657"
       id="rect4" /><rect
       x="59.324741"
       y="169.13863"
       width="331.96613"
       height="42.284657"
       id="rect4-3" /><rect
       x="59.324741"
       y="169.13863"
       width="331.96613"
       height="42.284657"
       id="rect4-3-6" /><rect
       x="59.324741"
       y="169.13863"
       width="331.96613"
       height="42.284657"
       id="rect4-3-6-2" /><rect
       x="59.324741"
       y="169.13863"
       width="331.96613"
       height="42.284657"
       id="rect4-9" /><rect
       x="59.324741"
       y="169.13863"
       width="331.96613"
       height="42.284657"
       id="rect4-9-3" /><rect
       x="59.324741"
       y="169.13863"
       width="331.96613"
       height="42.284657"
       id="rect4-3-6-2-0" /><rect
       x="59.324741"
       y="169.13863"
       width="331.96613"
       height="42.284657"
       id="rect4-3-6-2-0-5" /><rect
       x="59.324741"
       y="169.13863"
       width="331.96613"
       height="42.284657"
       id="rect4-3-6-4" /><rect
       x="59.324741"
       y="169.13863"
       width="331.96613"
       height="42.284657"
       id="rect4-3-6-4-0" /><rect
       x="59.324741"
       y="169.13863"
       width="331.96613"
       height="42.284657"
       id="rect4-3-6-2-7" /><inkscape:path-effect
       effect="fill_between_many"
       method="originald"
       linkedpaths="#path9,0,1"
       id="path-effect9"
       is_visible="true"
       lpeversion="0"
       join="true"
       close="true"
       autoreverse="true" /><rect
       x="59.324741"
       y="169.13863"
       width="331.96613"
       height="42.284657"
       id="rect4-3-6-2-7-5" /><rect
       x="59.324741"
       y="169.13863"
       width="331.96613"
       height="42.284657"
       id="rect4-3-6-2-7-5-4" /><rect
       x="59.324741"
       y="169.13863"
       width="331.96613"
       height="42.284657"
       id="rect4-3-6-2-7-5-4-4" /><rect
       x="59.324741"
       y="169.13863"
       width="331.96613"
       height="42.284657"
       id="rect4-3-6-2-7-5-4-4-8" /></defs><g
     inkscape:groupmode="layer"
     id="layer6"
     inkscape:label="Hintergrund Tachoscheibe"
     transform="matrix(1.6793772,0,0,1.566474,-94.661037,-19.998188)"><rect
       style="fill:#000000;fill-opacity:1;stroke:none;stroke-width:0.250231;stroke-opacity:1"
       id="rect20"
       width="100.58305"
       height="80.336281"
       x="56.780762"
       y="13.21022" /></g><g
     inkscape:label="Schneidkontur außen"
     inkscape:groupmode="layer"
     id="layer1"
     transform="translate(-152.11731,-60.135972)"><path
       id="rect1"
       style="fill:none;stroke:#ff0000;stroke-width:0.466678"
       inkscape:label="Rahmenlinie"
       d="M 152.35065,123.37863 V 60.369631 l 170.07121,3.41e-4 V 187.36963 H 152.35065 Z"
       sodipodi:nodetypes="cccccc" /></g><g
     inkscape:groupmode="layer"
     id="layer4"
     inkscape:label="Durchlicht transparent"><path
       style="fill:#424242;fill-opacity:1;stroke-width:0.101348"
       d="m 217.22684,119.26812 c -0.0333,-0.006 -0.3048,-0.21592 -0.60334,-0.46559 l -0.54279,-0.45395 -0.54094,-1e-5 -0.54095,-2e-5 -0.0825,-0.0694 -0.0825,-0.0694 v -0.74844 -0.74844 h -0.1877 -0.18771 v 0.73948 0.73947 l -0.0784,0.0784 c -0.10842,0.10841 -0.24452,0.10819 -0.35329,-6.1e-4 l -0.0789,-0.079 0.007,-1.76022 0.007,-1.76021 0.0752,-0.0647 c 0.1076,-0.0925 0.24159,-0.0872 0.34246,0.0137 l 0.0784,0.0784 v 0.73719 0.73719 l 0.17664,0.009 c 0.0971,0.005 0.18162,0.004 0.1877,-0.002 0.006,-0.006 0.0111,-0.34596 0.0111,-0.75514 v -0.74397 l 0.0825,-0.0694 c 0.0787,-0.0662 0.0974,-0.0694 0.40222,-0.0694 h 0.31973 v -0.10812 c 0,-0.13726 0.057,-0.27463 0.1372,-0.33083 0.0537,-0.0376 0.157,-0.0437 0.74025,-0.0437 h 0.67782 v -0.1194 -0.1194 l -0.69443,-0.008 c -0.63103,-0.007 -0.69942,-0.0125 -0.7491,-0.0575 -0.12492,-0.11315 -0.1171,-0.32621 0.0152,-0.41289 0.0659,-0.0432 0.1957,-0.0477 1.58806,-0.0552 0.83395,-0.004 1.56906,-5e-4 1.63359,0.009 0.15893,0.023 0.24468,0.1111 0.24468,0.25133 0,0.0744 -0.0197,0.1299 -0.0647,0.18222 l -0.0647,0.0752 -0.69955,0.008 -0.69955,0.008 v 0.1194 0.1194 h 0.68584 0.68585 l 0.0784,0.0784 0.0784,0.0784 v 0.40429 0.40429 h 0.37797 c 0.52711,0 0.58737,0.0414 0.58737,0.40349 v 0.18644 h 0.0939 0.0939 v -0.21585 c 0,-0.22967 0.0401,-0.35059 0.13259,-0.4001 0.029,-0.0155 0.23212,-0.0276 0.46302,-0.0276 0.31945,0 0.42407,0.009 0.46797,0.0396 0.0331,0.0232 0.14679,0.24434 0.27412,0.53323 l 0.21758,0.49363 v 0.92866 0.92865 l -0.21475,0.48891 c -0.11811,0.2689 -0.24011,0.51003 -0.27112,0.53584 -0.0483,0.0402 -0.11546,0.0469 -0.4708,0.0469 -0.23296,0 -0.43702,-0.0121 -0.46602,-0.0276 -0.0943,-0.0504 -0.13259,-0.16996 -0.13259,-0.4135 v -0.22926 h -0.0939 -0.0939 v 0.39861 c 0,0.4534 -0.0223,0.5138 -0.20904,0.56566 -0.0961,0.0267 -2.62607,0.0349 -2.76095,0.009 z m 2.4605,-0.92163 v -0.40429 l 0.0784,-0.0784 0.0784,-0.0784 h 0.44409 0.44408 l 0.0876,0.0782 c 0.0857,0.0765 0.0878,0.0837 0.0969,0.33518 l 0.009,0.25698 h 0.10117 0.10117 l 0.15098,-0.34522 0.15099,-0.34522 1e-4,-0.80112 1e-4,-0.80113 -0.15091,-0.34189 -0.15091,-0.34189 h -0.10139 -0.10139 l -0.009,0.25417 c -0.009,0.23597 -0.0146,0.2595 -0.0836,0.32849 -0.0739,0.074 -0.0762,0.0743 -0.49256,0.0829 -0.59745,0.0123 -0.65325,-0.0196 -0.65325,-0.37409 v -0.20604 l -0.38337,-0.009 c -0.56877,-0.0137 -0.58197,-0.0276 -0.58197,-0.61431 v -0.37366 h -1.27363 -1.27371 v 0.13281 c 0,0.29349 -0.084,0.34986 -0.52157,0.34986 h -0.3097 v 1.39438 1.39439 h 0.46861 0.46861 l 0.54366,0.45554 0.54366,0.45554 1.15975,3.1e-4 1.15975,3e-4 z"
       id="path4"
       transform="translate(-152.11731,-60.135971)"
       inkscape:label="ENGINE ICON" /><path
       style="fill:#424242;fill-opacity:1;stroke-width:0.188766"
       d="m 190.5153,119.72341 c -0.30451,-0.19403 -0.55771,-0.22465 -0.80394,-0.0974 l -0.14731,0.0763 v -0.25358 c 0,-0.24531 0.005,-0.25604 0.1855,-0.33106 0.24894,-0.10414 0.51017,-0.0623 0.79684,0.12782 0.33434,0.2214 0.64203,0.2149 1.01312,-0.0214 0.35204,-0.22427 0.52663,-0.22404 0.92959,10e-4 0.23952,0.13393 0.37017,0.17478 0.55912,0.17478 0.18575,0 0.32782,-0.043 0.57594,-0.17478 0.42034,-0.22308 0.5881,-0.22327 0.93657,-10e-4 0.37107,0.23641 0.67877,0.24293 1.01307,0.0214 0.28672,-0.18993 0.54791,-0.2318 0.79689,-0.12782 0.17948,0.0753 0.1855,0.0855 0.1855,0.33106 v 0.25358 l -0.14738,-0.0763 c -0.24619,-0.1273 -0.49936,-0.0969 -0.80388,0.0974 -0.36895,0.23502 -0.631,0.23896 -0.9743,0.0146 -0.34271,-0.22395 -0.69767,-0.22856 -1.02115,-0.0133 -0.19198,0.12776 -0.27205,0.14959 -0.54936,0.14959 -0.27733,0 -0.35741,-0.0217 -0.54937,-0.14959 -0.32348,-0.21538 -0.67848,-0.2108 -1.02115,0.0133 -0.34334,0.2243 -0.60535,0.22035 -0.9743,-0.0146 z m 2.21768,-0.99296 c -0.4765,-0.20756 -0.61696,-0.85292 -0.27134,-1.24662 l 0.14578,-0.16599 0.0141,-2.0764 0.0141,-2.07647 0.12108,-0.12883 c 0.16682,-0.17746 0.4401,-0.17745 0.60689,1e-5 0.10447,0.11113 0.12351,0.18675 0.13869,0.5494 l 0.0177,0.42054 h 0.71133 c 0.6257,0 0.72126,0.009 0.79398,0.0913 0.10784,0.11941 0.10437,0.18674 -0.0173,0.30827 -0.0905,0.0905 -0.16648,0.0996 -0.79908,0.0996 h -0.69921 v 0.3746 0.37456 h 0.74739 c 0.71109,0 0.75014,0.004 0.80423,0.1061 0.0414,0.0771 0.042,0.13871 0.002,0.22477 -0.0537,0.11708 -0.0631,0.11851 -0.80424,0.11851 h -0.7502 v 0.37459 0.3746 h 0.69919 c 0.63261,0 0.70873,0.008 0.7991,0.0996 0.124,0.124 0.12635,0.21029 0.007,0.31692 -0.0761,0.0689 -0.2106,0.0828 -0.7991,0.0828 h -0.70777 v 0.18069 c 0,0.12887 0.0422,0.22883 0.1474,0.34854 0.55541,0.63262 -0.14991,1.58558 -0.924,1.24848 z m -3.66841,-0.27444 c 0,-0.23114 0.008,-0.24868 0.1437,-0.27824 0.0787,-0.0172 0.21887,-0.0866 0.31086,-0.15492 0.34787,-0.25661 0.67012,-0.25521 1.04507,0.004 0.32843,0.22765 0.51108,0.21647 1.06001,-0.0646 0.0207,-0.009 0.0371,0.0836 0.0371,0.20897 0,0.21176 -0.0146,0.23795 -0.20428,0.36342 -0.29609,0.19595 -0.5869,0.18408 -0.94014,-0.0388 -0.35848,-0.22574 -0.63747,-0.22926 -0.95607,-0.0124 -0.12205,0.0833 -0.28372,0.16639 -0.35927,0.18481 -0.13581,0.0334 -0.13732,0.0303 -0.13732,-0.21322 z m 5.86843,0.21066 c -0.0551,-0.0141 -0.1898,-0.0821 -0.29966,-0.1504 -0.19088,-0.11922 -0.19898,-0.13469 -0.18208,-0.34714 0.008,-0.12226 0.0326,-0.21445 0.0498,-0.20485 0.50729,0.27471 0.73031,0.28805 1.05484,0.0632 0.37491,-0.25983 0.69719,-0.26123 1.04506,-0.004 0.0918,0.0681 0.2318,0.13752 0.31083,0.15486 0.13461,0.0293 0.14367,0.0474 0.14367,0.27829 0,0.24394 -0.001,0.24634 -0.13734,0.2132 -0.0758,-0.0188 -0.23828,-0.10263 -0.36169,-0.18645 -0.31579,-0.21533 -0.63652,-0.21415 -0.95292,0.003 -0.22972,0.15806 -0.48725,0.22731 -0.67065,0.18035 z"
       id="path3"
       transform="translate(-152.11731,-60.135971)"
       inkscape:label="COOLANT ICON" /><path
       style="fill:#424242;fill-opacity:1;stroke-width:0.168866"
       d="m 62.5006,26.967754 v -1.158448 l -0.2346,-0.08571 c -0.12897,-0.0472 -0.59185,-0.212361 -1.02856,-0.367148 -0.63297,-0.224365 -0.7899,-0.295973 -0.77376,-0.353121 0.0113,-0.0394 0.0851,-0.473802 0.16444,-0.965279 0.0792,-0.49147 0.15063,-0.901557 0.1585,-0.911318 0.009,-0.0097 0.54755,0.16899 1.19928,0.397201 l 1.18488,0.414919 v 0.306508 0.306509 h 0.69442 0.69441 l -0.0128,-0.346267 -0.0127,-0.346263 -0.34627,-0.0131 -0.34626,-0.0131 v -0.310872 -0.310881 h 1.02761 1.02764 v 0.310881 0.310872 l -0.34626,0.0131 -0.34627,0.0131 v 0.33509 0.335098 l 0.72533,0.01223 0.72533,0.01225 0.22911,0.278142 c 0.12601,0.152979 0.24232,0.292591 0.25844,0.310247 0.0164,0.0177 0.23002,-0.02573 0.47531,-0.09641 0.75739,-0.218259 3.66714,-1.030334 3.69183,-1.030334 0.0586,0 0.67235,0.812682 0.63676,0.843499 -0.0222,0.01919 -0.13341,0.109154 -0.24731,0.200002 l -0.20708,0.165186 -0.19287,-0.235744 c -0.1061,-0.129653 -0.19431,-0.239557 -0.19611,-0.244241 -0.002,-0.005 -0.16756,0.0351 -0.36844,0.08838 l -0.36524,0.0969 -1.13045,1.596409 -1.13045,1.596389 -2.80365,0.002 -2.80361,0.002 z m 6.04848,-0.587481 c 0.43748,-0.616241 0.7885,-1.127357 0.78003,-1.135823 -0.01,-0.0083 -0.49781,0.120469 -1.08746,0.286532 -0.58964,0.166061 -1.12664,0.315473 -1.19329,0.332032 -0.11019,0.0273 -0.14819,-0.0025 -0.41728,-0.327767 l -0.2961,-0.357873 h -1.5821 -1.5821 v 1.161666 1.16165 h 2.29142 2.29144 z m -6.04848,-1.6444 v -0.352138 l -0.56967,-0.202063 c -0.31331,-0.111131 -0.58274,-0.188909 -0.59868,-0.172836 -0.0161,0.0161 -0.0426,0.169964 -0.0591,0.341974 l -0.0303,0.312756 0.55072,0.207084 c 0.30288,0.1139 0.58587,0.209393 0.62886,0.21223 0.068,0.004 0.0778,-0.0394 0.0778,-0.347007 z m 9.03659,2.536181 c -0.0797,-0.023 -0.17892,-0.09369 -0.22043,-0.157071 -0.065,-0.09921 -0.0682,-0.148736 -0.0248,-0.356831 0.0625,-0.296331 0.25932,-0.745294 0.37214,-0.847373 0.0701,-0.06341 0.0949,-0.06611 0.15482,-0.0163 0.10384,0.0862 0.27385,0.440555 0.35999,0.750487 0.0937,0.337148 0.0374,0.520576 -0.19019,0.615532 -0.16627,0.06951 -0.24414,0.07151 -0.45148,0.0116 z"
       id="path2"
       inkscape:label="OIL ICON" /><path
       style="fill:#414141;fill-opacity:1;stroke-width:0.168706"
       d="M 37.767569,29.115737 V 28.71361 h 0.20086 0.200895 v -3.28088 -3.280879 h 2.008698 2.008699 v 1.355701 1.355706 l 0.234344,0.03078 c 0.315161,0.04136 0.585645,0.207 0.72418,0.44337 0.110711,0.188621 0.112715,0.210359 0.112715,1.093875 0,1.012496 0.0301,1.15717 0.260068,1.252449 0.189291,0.07841 0.359284,0.01319 0.461284,-0.177019 0.07595,-0.141952 0.08219,-0.294256 0.08219,-2.081633 v -1.928464 l -0.490993,-0.555667 c -0.270108,-0.305617 -0.491058,-0.576365 -0.491058,-0.60167 0,-0.04253 0.3204,-0.321336 0.369214,-0.321336 0.01285,0 0.267301,0.28011 0.567613,0.622471 0.329004,0.37504 0.584027,0.627875 0.641585,0.636086 0.09119,0.01297 0.0962,0.03929 0.107721,0.6018 0.01285,0.582405 0.01285,0.588321 -0.08935,0.602611 l -0.102103,0.01441 -0.0223,1.584643 c -0.02219,1.564406 -0.02355,1.586784 -0.126642,1.752431 -0.345794,0.556136 -1.213011,0.540531 -1.546109,-0.02781 -0.110582,-0.188468 -0.112725,-0.210923 -0.112725,-1.085782 0,-0.538683 -0.01981,-0.949679 -0.0498,-1.035261 -0.05355,-0.154237 -0.235275,-0.273135 -0.416991,-0.273135 h -0.11377 V 27.062 28.713596 h 0.224936 0.224893 l -0.0132,0.390583 -0.0132,0.390585 -2.421618,0.01155 -2.421617,0.01162 z m 3.838844,-5.356924 V 22.776782 H 40.178022 38.74959 v 0.982031 0.982031 h 1.428432 1.428391 z"
       id="path10"
       inkscape:label="FUEL ICON" /><g
       id="g15"
       style="fill:#424242;fill-opacity:1"
       transform="matrix(1.4822913,0,0,1.4822913,-30.305279,18.404831)"><text
         xml:space="preserve"
         transform="matrix(0.26458333,0,0,0.26458333,1.5152994,1.884282)"
         id="text1"
         style="font-size:12px;font-family:'Eurostile LT Std';-inkscape-font-specification:'Eurostile LT Std';text-align:start;letter-spacing:0px;word-spacing:0px;writing-mode:lr-tb;direction:ltr;white-space:pre;shape-inside:url(#rect5);display:inline;fill:#424242;fill-opacity:1;stroke-width:0.944882"><tspan
           x="284.58789"
           y="84.322266"
           id="tspan2"><tspan
             style="font-size:5.33333px"
             id="tspan1">SERVICE</tspan></tspan></text><text
         xml:space="preserve"
         style="font-size:1.41111px;font-family:'Eurostile LT Std';-inkscape-font-specification:'Eurostile LT Std';text-align:start;letter-spacing:0px;word-spacing:0px;writing-mode:lr-tb;direction:ltr;text-anchor:start;fill:#424242;fill-opacity:1;stroke-width:0.25"
         x="77.453934"
         y="26.214621"
         id="text12"><tspan
           sodipodi:role="line"
           id="tspan12"
           style="fill:#424242;fill-opacity:1;stroke-width:0.25"
           x="77.453934"
           y="26.214621">ENGINE</tspan></text><text
         xml:space="preserve"
         style="font-size:1.41111px;font-family:'Eurostile LT Std';-inkscape-font-specification:'Eurostile LT Std';text-align:start;letter-spacing:0px;word-spacing:0px;writing-mode:lr-tb;direction:ltr;text-anchor:start;fill:#424242;fill-opacity:1;stroke-width:0.25"
         x="78.303154"
         y="28.104626"
         id="text13"><tspan
           sodipodi:role="line"
           id="tspan13"
           style="fill:#424242;fill-opacity:1;stroke-width:0.25"
           x="78.303154"
           y="28.104626">SOON</tspan></text></g><g
       id="g16"
       style="fill:#424242;fill-opacity:1"
       transform="matrix(1.4662403,0,0,1.4662403,-44.642155,-21.451162)"><text
         xml:space="preserve"
         style="font-size:1.41111px;font-family:'Eurostile LT Std';-inkscape-font-specification:'Eurostile LT Std';text-align:start;letter-spacing:0px;word-spacing:0px;writing-mode:lr-tb;direction:ltr;text-anchor:start;fill:#424242;fill-opacity:1;stroke-width:0.25"
         x="89.554657"
         y="31.558878"
         id="text15"><tspan
           sodipodi:role="line"
           id="tspan15"
           style="fill:#424242;fill-opacity:1;stroke-width:0.25"
           x="89.554657"
           y="31.558878">INFL.</tspan></text><text
         xml:space="preserve"
         style="font-size:1.41111px;font-family:'Eurostile LT Std';-inkscape-font-specification:'Eurostile LT Std';text-align:start;letter-spacing:0px;word-spacing:0px;writing-mode:lr-tb;direction:ltr;text-anchor:start;fill:#424242;fill-opacity:1;stroke-width:0.25"
         x="89.119255"
         y="33.602528"
         id="text16"><tspan
           sodipodi:role="line"
           id="tspan16"
           style="fill:#424242;fill-opacity:1;stroke-width:0.25"
           x="89.119255"
           y="33.602528">REST.</tspan></text></g><path
       style="fill:#424242;fill-opacity:1;stroke-width:0.130014"
       d="m 110.47046,59.627402 c -0.20602,-0.550635 -0.41496,-1.380833 -0.46739,-1.857077 l -0.0232,-0.211032 0.20145,-0.07537 c 0.89721,-0.335688 2.05505,-0.338726 3.00572,-0.0079 l 0.1892,0.06584 -0.003,0.202539 c -0.005,0.364128 -0.27644,1.469884 -0.47747,1.949605 l -0.0546,0.130275 -0.3172,-0.0099 c -0.37794,-0.01177 -0.36463,0.02569 -0.20505,-0.577474 0.10525,-0.397814 0.19279,-0.868214 0.23463,-1.260875 l 0.0225,-0.211682 -0.27067,-0.02912 c -0.32315,-0.03476 -1.10261,-0.0266 -1.31986,0.01382 l -0.15479,0.0288 0.0114,0.204929 c 0.016,0.28463 0.15727,1.036359 0.26642,1.416961 0.0501,0.174701 0.0821,0.341111 0.0711,0.369798 -0.0159,0.04124 -0.0845,0.05215 -0.32822,0.05215 h -0.3082 z m -1.58427,-1.543726 -0.11755,-0.12128 0.63069,-0.626914 0.63069,-0.626916 -0.0208,0.189199 c -0.0114,0.104059 -0.0209,0.292289 -0.0211,0.418288 l -2.6e-4,0.229089 -0.25554,0.140249 c -0.14055,0.07714 -0.34773,0.225596 -0.46039,0.329907 -0.11267,0.104312 -0.2191,0.189658 -0.23651,0.189658 -0.0174,0 -0.0846,-0.05458 -0.1492,-0.12128 z m 5.24682,-0.140532 c -0.0946,-0.06624 -0.29901,-0.182459 -0.45422,-0.258282 l -0.28222,-0.13786 -0.0102,-0.209674 -0.0102,-0.209674 -0.18919,-0.06432 c -0.45503,-0.154678 -0.85194,-0.211495 -1.47919,-0.211744 -0.57736,-2.33e-4 -0.86815,0.03557 -1.37599,0.169389 -0.0552,0.01454 0.37535,-0.440239 1.20152,-1.269167 1.40797,-1.412692 1.34474,-1.327051 1.08004,-1.462851 l -0.11413,-0.05855 0.39494,-0.393819 0.39494,-0.393817 0.13867,0.135407 0.13866,0.135405 -0.36435,0.365494 -0.36437,0.365494 0.0856,0.126102 c 0.15257,0.224818 0.37071,1.259545 0.44061,2.089981 l 0.0394,0.468093 0.2852,0.128447 c 0.31419,0.141506 0.77716,0.407571 0.83914,0.482252 0.0308,0.03718 0.0191,0.07864 -0.0532,0.187807 -0.051,0.07706 -0.11,0.139243 -0.13114,0.138199 -0.0212,-0.0011 -0.11582,-0.05608 -0.21042,-0.122316 z m -4.11059,-1.320759 c 3.9e-4,-0.203934 0.14855,-1.069774 0.2559,-1.495937 0.16206,-0.643427 0.2644,-0.767788 0.7587,-0.921976 0.23584,-0.07356 0.27666,-0.09765 0.28541,-0.168418 0.007,-0.06124 -0.0245,-0.110474 -0.12414,-0.190533 -0.52816,-0.424442 -0.2658,-1.312969 0.40677,-1.377594 0.49051,-0.04713 0.86059,0.284051 0.8588,0.768524 -9e-4,0.259687 -0.0849,0.4467 -0.27254,0.607331 -0.20744,0.177556 -0.18769,0.264647 0.0755,0.333006 0.10878,0.02825 0.1978,0.06001 0.1978,0.07057 0,0.01056 -0.54954,0.568564 -1.2212,1.24002 -0.99728,0.996988 -1.22115,1.205094 -1.221,1.135011 z"
       id="path16"
       sodipodi:nodetypes="cscssccsccsscssccssscccccccccssscccscccscssscccccccsscsssscccssssscssssc" /><text
       xml:space="preserve"
       style="font-size:2.10391px;font-family:'Eurostile LT Std';-inkscape-font-specification:'Eurostile LT Std';text-align:start;letter-spacing:0px;word-spacing:0px;writing-mode:lr-tb;direction:ltr;text-anchor:start;fill:#424242;fill-opacity:1;stroke-width:0.37274"
       x="104.19038"
       y="26.671663"
       id="text17"><tspan
         sodipodi:role="line"
         id="tspan17"
         style="fill:#424242;fill-opacity:1;stroke-width:0.37274"
         x="104.19038"
         y="26.671663">SECURITY</tspan></text></g><g
     inkscape:groupmode="layer"
     id="layer2"
     inkscape:label="Durchlicht weiß matt"
     inkscape:tile-cx="11.55"
     inkscape:tile-cy="38.099999"
     inkscape:tile-w="0.89999996"
     inkscape:tile-h="69.999999"
     inkscape:tile-x0="11.1"
     inkscape:tile-y0="3.0999998"
     transform="matrix(1,0,0,-1,-109.58231,75.879027)"><rect
       style="display:inline;fill:#e5e5e5;fill-opacity:1;stroke:none;stroke-width:0.308087;stroke-dasharray:none;stroke-opacity:1"
       id="rect2"
       width="0.89999998"
       height="106.31117"
       x="141.36987"
       y="-40.970776"
       inkscape:label="Säule 1"
       inkscape:tile-cx="11.55"
       inkscape:tile-cy="38.099999"
       inkscape:tile-w="0.89999996"
       inkscape:tile-h="69.999999"
       inkscape:tile-x0="11.1"
       inkscape:tile-y0="3.1" /><rect
       style="display:inline;fill:#e5e5e5;fill-opacity:1;stroke:none;stroke-width:0.308422;stroke-dasharray:none;stroke-opacity:1"
       id="rect2-6"
       width="0.89999998"
       height="106.54292"
       x="158.96114"
       y="-40.874668"
       inkscape:label="Säule 1"
       inkscape:tile-cx="11.55"
       inkscape:tile-cy="38.099999"
       inkscape:tile-w="0.89999996"
       inkscape:tile-h="69.999999"
       inkscape:tile-x0="11.1"
       inkscape:tile-y0="3.1" /><text
       xml:space="preserve"
       transform="matrix(0.14401347,0,0,-0.10922863,116.78513,55.696294)"
       id="text1-0-8-2-3-9-2-0-3"
       style="font-size:32px;text-align:start;writing-mode:lr-tb;direction:ltr;white-space:pre;shape-inside:url(#rect4-3-6-2-7-5-4-4-8);display:inline;fill:#e5e5e5;fill-opacity:1;stroke-width:0.944882"
       inkscape:label="RPM 25"><tspan
         x="59.324219"
         y="197.45117"
         id="tspan14"><tspan
           style="font-size:25.3148px;font-family:'Eurostile LT Std';-inkscape-font-specification:'Eurostile LT Std'"
           id="tspan11">25</tspan></tspan></text><text
       xml:space="preserve"
       transform="matrix(0.14401347,0,0,-0.10922863,116.83987,61.232294)"
       id="text1-0-8-2-3-9-2-0"
       style="font-size:32px;text-align:start;writing-mode:lr-tb;direction:ltr;white-space:pre;shape-inside:url(#rect4-3-6-2-7-5-4-4);display:inline;fill:#e5e5e5;fill-opacity:1;stroke-width:0.944882"
       inkscape:label="RPM 50"><tspan
         x="59.324219"
         y="197.45117"
         id="tspan21"><tspan
           style="font-size:25.3148px;font-family:'Eurostile LT Std';-inkscape-font-specification:'Eurostile LT Std'"
           id="tspan20">50</tspan></tspan></text><text
       xml:space="preserve"
       transform="matrix(0.14401347,0,0,-0.10922863,116.76209,66.913899)"
       id="text1-0-8-2-3-9-2"
       style="font-size:32px;text-align:start;writing-mode:lr-tb;direction:ltr;white-space:pre;shape-inside:url(#rect4-3-6-2-7-5-4);display:inline;fill:#e5e5e5;fill-opacity:1;stroke-width:0.944882"
       inkscape:label="RPM 75"><tspan
         x="59.324219"
         y="197.45117"
         id="tspan23"><tspan
           style="font-size:25.3148px;font-family:'Eurostile LT Std';-inkscape-font-specification:'Eurostile LT Std'"
           id="tspan22">75</tspan></tspan></text><text
       xml:space="preserve"
       transform="matrix(0.14401347,0,0,-0.10922863,116.53806,73.143308)"
       id="text1-0-8-2-3-9"
       style="font-size:32px;text-align:start;writing-mode:lr-tb;direction:ltr;white-space:pre;shape-inside:url(#rect4-3-6-2-7-5);display:inline;fill:#e5e5e5;fill-opacity:1;stroke-width:0.944882"
       inkscape:label="RPM 100"><tspan
         x="59.324219"
         y="197.45117"
         id="tspan25"><tspan
           style="font-size:25.3148px;font-family:'Eurostile LT Std';-inkscape-font-specification:'Eurostile LT Std'"
           id="tspan24">100</tspan></tspan></text></g><g
     inkscape:groupmode="layer"
     id="layer3"
     inkscape:label="Stanzen"
     transform="translate(-109.58232,-0.32097464)"><rect
       style="fill:#b62f2f;fill-opacity:1;stroke:none;stroke-width:0.183861;stroke-dasharray:none;stroke-opacity:1"
       id="rect182"
       width="60.577957"
       height="4.4000001"
       x="123.13243"
       y="104.43325"
       inkscape:label="1x LED BAR INLET TEMP"
       rx="0.64904958"
       ry="1.2" /><rect
       style="fill:#b62f2f;fill-opacity:1;stroke:none;stroke-width:0.25;stroke-dasharray:none;stroke-opacity:1"
       id="rect3"
       width="14.9"
       height="5.0999999"
       x="122.9044"
       y="95.72551"
       rx="2.55"
       ry="2.55"
       inkscape:label="3x LED 5mm INLET TEMP" /><rect
       style="fill:#b62f2f;fill-opacity:1;stroke:none;stroke-width:0.25;stroke-dasharray:none;stroke-opacity:1"
       id="rect3-9-8-2"
       width="9"
       height="3"
       x="257.67874"
       y="116.74397"
       rx="1.5"
       ry="1.5"
       inkscape:label="Befestigung unten rechts" /><rect
       style="fill:#b62f2f;fill-opacity:1;stroke:none;stroke-width:0.25;stroke-dasharray:none;stroke-opacity:1"
       id="rect3-9-8-2-6-5"
       width="9"
       height="3"
       x="119.62014"
       y="117.03063"
       rx="1.5"
       ry="1.5"
       inkscape:label="Befestigung unten links" /><rect
       style="fill:#b62f2f;fill-opacity:1;stroke:none;stroke-width:0.25;stroke-dasharray:none;stroke-opacity:1"
       id="rect3-9-8"
       width="9"
       height="3"
       x="260.76538"
       y="7.5149746"
       rx="1.5"
       ry="1.5"
       inkscape:label="Befestigung oben rechts" /><rect
       style="fill:#b72f2f;fill-opacity:1;stroke:none;stroke-width:0.25;stroke-dasharray:none;stroke-opacity:1"
       id="rect3-9"
       width="9"
       height="3"
       x="120.57957"
       y="7.6372881"
       rx="1.5"
       ry="1.5"
       inkscape:label="Befestigung oben links" /></g><g
     inkscape:groupmode="layer"
     id="layer5"
     inkscape:label="Anmerkungen"
     style="display:none"><ellipse
       style="fill:none;fill-opacity:1;stroke:#888888;stroke-width:0.25;stroke-opacity:1"
       id="path18"
       cx="41.137077"
       cy="56.896637"
       rx="7.5321412"
       ry="7.3003831" /><g
       id="g19"
       transform="translate(-73.699103,-13.210217)"><rect
         style="fill:#9d9d9d;fill-opacity:1;stroke:none;stroke-width:0.278509;stroke-opacity:1"
         id="rect19"
         width="29.433289"
         height="11.618403"
         x="79.956573"
         y="75.089653" /><text
         xml:space="preserve"
         style="font-style:normal;font-variant:normal;font-weight:normal;font-stretch:normal;font-size:4.23333px;font-family:'DejaVu Sans';-inkscape-font-specification:'DejaVu Sans';text-align:start;letter-spacing:0px;word-spacing:0px;writing-mode:lr-tb;direction:ltr;text-anchor:start;fill:#ffffff;fill-opacity:1;stroke:#888888;stroke-width:0.25;stroke-opacity:1"
         x="80.420097"
         y="79.493057"
         id="text18"><tspan
           sodipodi:role="line"
           id="tspan18"
           style="fill:#ffffff;fill-opacity:1;stroke:none;stroke-width:0.25"
           x="80.420097"
           y="79.493057">Blau oder rot</tspan><tspan
           sodipodi:role="line"
           style="fill:#ffffff;fill-opacity:1;stroke:none;stroke-width:0.25"
           x="80.420097"
           y="84.784721"
           id="tspan19">beleuchtet</tspan></text></g></g></svg>
