<?xml version="1.0" encoding="UTF-8" standalone="no"?>
<!-- Created with Inkscape (http://www.inkscape.org/) -->

<svg
   width="280.50119mm"
   height="125.3mm"
   viewBox="0 0 280.50119 125.29999"
   version="1.1"
   id="svg1"
   inkscape:version="1.4 (e7c3feb100, 2024-10-09)"
   sodipodi:docname="Speedometer.svg"
   xml:space="preserve"
   xmlns:inkscape="http://www.inkscape.org/namespaces/inkscape"
   xmlns:sodipodi="http://sodipodi.sourceforge.net/DTD/sodipodi-0.dtd"
   xmlns="http://www.w3.org/2000/svg"
   xmlns:svg="http://www.w3.org/2000/svg"><sodipodi:namedview
     id="namedview1"
     pagecolor="#ffffff"
     bordercolor="#000000"
     borderopacity="0.25"
     inkscape:showpageshadow="2"
     inkscape:pageopacity="0.0"
     inkscape:pagecheckerboard="0"
     inkscape:deskcolor="#d1d1d1"
     inkscape:document-units="mm"
     inkscape:zoom="0.68574427"
     inkscape:cx="530.08099"
     inkscape:cy="236.23967"
     inkscape:window-width="1358"
     inkscape:window-height="761"
     inkscape:window-x="0"
     inkscape:window-y="32"
     inkscape:window-maximized="1"
     inkscape:current-layer="layer3"
     showguides="true"><sodipodi:guide
       position="162.17718,103.92454"
       orientation="0,-1"
       id="guide14"
       inkscape:locked="false" /><sodipodi:guide
       position="36.027548,51.816805"
       orientation="0,-1"
       id="guide15"
       inkscape:locked="false" /><sodipodi:guide
       position="53.291301,57.867209"
       orientation="0,-1"
       id="guide16"
       inkscape:locked="false" /></sodipodi:namedview><defs
     id="defs1"><rect
       x="59.324741"
       y="169.13863"
       width="331.96613"
       height="42.284657"
       id="rect4" /><rect
       x="59.324741"
       y="169.13863"
       width="331.96613"
       height="42.284657"
       id="rect4-3" /><rect
       x="59.324741"
       y="169.13863"
       width="331.96613"
       height="42.284657"
       id="rect4-3-6" /><rect
       x="59.324741"
       y="169.13863"
       width="331.96613"
       height="42.284657"
       id="rect4-3-6-2" /><rect
       x="59.324741"
       y="169.13863"
       width="331.96613"
       height="42.284657"
       id="rect4-9" /><rect
       x="59.324741"
       y="169.13863"
       width="331.96613"
       height="42.284657"
       id="rect4-9-3" /><rect
       x="59.324741"
       y="169.13863"
       width="331.96613"
       height="42.284657"
       id="rect4-3-6-2-0" /><rect
       x="59.324741"
       y="169.13863"
       width="331.96613"
       height="42.284657"
       id="rect4-3-6-2-0-5" /><rect
       x="59.324741"
       y="169.13863"
       width="331.96613"
       height="42.284657"
       id="rect4-3-6-4" /><rect
       x="59.324741"
       y="169.13863"
       width="331.96613"
       height="42.284657"
       id="rect4-3-6-4-0" /><rect
       x="59.324741"
       y="169.13863"
       width="331.96613"
       height="42.284657"
       id="rect4-3-6-2-7" /><inkscape:path-effect
       effect="fill_between_many"
       method="originald"
       linkedpaths="#path9,0,1|"
       id="path-effect9" /></defs><g
     inkscape:label="Schneidkontur außen"
     inkscape:groupmode="layer"
     id="layer1"
     transform="translate(-42.154004,-60.369631)"><path
       id="rect1"
       style="fill:none;stroke:#ff0000;stroke-width:0.466678"
       inkscape:label="Rahmenlinie"
       d="M 42.774366,109.60366 153.6607,60.60297 H 322.42186 V 185.43629 H 42.388533 Z"
       sodipodi:nodetypes="cccccc" /></g><g
     inkscape:groupmode="layer"
     id="layer2"
     inkscape:label="Durchlicht"
     inkscape:tile-cx="11.55"
     inkscape:tile-cy="38.099999"
     inkscape:tile-w="0.89999996"
     inkscape:tile-h="69.999999"
     inkscape:tile-x0="11.1"
     inkscape:tile-y0="3.0999998"
     transform="matrix(1,0,0,-1,0.38099593,75.645368)"><rect
       style="display:inline;fill:#808080;fill-opacity:1;stroke:none;stroke-width:0.320271;stroke-dasharray:none;stroke-opacity:1"
       id="rect2"
       width="0.89999998"
       height="114.88622"
       x="114.88885"
       y="-43.916508"
       inkscape:label="Säule 1"
       inkscape:tile-cx="11.55"
       inkscape:tile-cy="38.099999"
       inkscape:tile-w="0.89999996"
       inkscape:tile-h="69.999999"
       inkscape:tile-x0="11.1"
       inkscape:tile-y0="3.1" /><text
       xml:space="preserve"
       transform="matrix(0.14401347,0,0,-0.10922863,124.25974,72.8792)"
       id="text1-0-8-2"
       style="font-size:32px;text-align:start;writing-mode:lr-tb;direction:ltr;white-space:pre;shape-inside:url(#rect4-3-6-2);display:inline;fill:#808080;fill-opacity:1;stroke-width:0.944882"
       inkscape:label="FUEL GALLONS 0"><tspan
         x="59.324219"
         y="197.45117"
         id="tspan4"><tspan
           style="font-size:25.3148px;font-family:'Eurostile LT Std';-inkscape-font-specification:'Eurostile LT Std'"
           id="tspan3">0</tspan></tspan></text><text
       xml:space="preserve"
       transform="matrix(0.14401347,0,0,-0.10922863,230.48215,73.952887)"
       id="text1-0-8-2-3"
       style="font-size:32px;text-align:start;writing-mode:lr-tb;direction:ltr;white-space:pre;shape-inside:url(#rect4-3-6-2-7);display:inline;fill:#808080;fill-opacity:1;stroke-width:0.944882"
       inkscape:label="FUEL GALLONS 0"><tspan
         x="59.324219"
         y="197.45117"
         id="tspan6"><tspan
           style="font-size:25.3148px;font-family:'Eurostile LT Std';-inkscape-font-specification:'Eurostile LT Std'"
           id="tspan5">200</tspan></tspan></text><path
       style="fill:#cc0000;fill-opacity:1;stroke-width:0.0700271"
       d="m 39.564604,2.1772439 c 0.04505,-0.041284 8.302273,-0.041284 8.347287,0 0.04489,0.041205 0.04489,5.2016802 0,5.2428868 -0.02205,0.020255 -0.183881,0.028395 -0.564336,0.028395 -0.404416,0 -0.540059,0.00735 -0.561033,0.03056 -0.01517,0.016809 -0.03114,0.1046428 -0.0354,0.1951888 l -0.0079,0.4720068 H 45.995155 45.247103 L 45.2392,7.6742741 c -0.004,-0.090546 -0.02015,-0.1783804 -0.0354,-0.1951888 -0.02197,-0.024309 -0.322006,-0.03056 -1.46586,-0.03056 -1.143846,0 -1.443874,0.00624 -1.46586,0.03056 -0.01517,0.016809 -0.03114,0.1046428 -0.0354,0.1951888 l -0.0079,0.4720068 h -0.748052 -0.74806 l -0.0079,-0.4720068 c -0.004,-0.090546 -0.02015,-0.1783804 -0.0354,-0.1951888 -0.02094,-0.023171 -0.156617,-0.03056 -0.561033,-0.03056 -0.380455,0 -0.542264,-0.00814 -0.564336,-0.028395 -0.04489,-0.041205 -0.04489,-5.2016794 0,-5.2428868 z"
       id="path8"
       sodipodi:nodetypes="sssssccccccsccccccsscs" /><path
       style="fill:#ffffff;fill-opacity:1;stroke-width:0.0700271"
       d="m 40.249466,2.7658829 v 5.5e-6 c -0.04236,0.022673 -0.04512,0.145226 -0.04512,2.0432732 0,1.8193823 0.004,2.020578 0.04078,2.0335188 0.02244,0.0079 1.598777,0.014359 3.502971,0.014359 2.658403,0 3.469361,-0.00656 3.493117,-0.028387 0.02355,-0.02163 0.03098,-0.5055975 0.03098,-2.0338618 0,-1.9585357 -7.9e-4,-2.006044 -0.04987,-2.0299625 -0.06883,-0.033784 -6.909545,-0.032741 -6.972815,0.00111 z"
       id="path7" /><path
       style="fill:#cc0000;fill-opacity:1;stroke-width:0.0700271"
       d="m 41.868126,4.8341762 0.01288,0.2129329 c 0.0071,0.1171134 0.02229,0.2262427 0.03375,0.2425074 0.01415,0.02001 0.09514,0.029572 0.250597,0.029572 0.200722,0 0.233099,0.00577 0.256428,0.045765 0.03793,0.065008 0.03454,0.4817793 -0.004,0.5173268 -0.01889,0.017315 -0.111998,0.028529 -0.238608,0.02875 -0.114203,2.007e-4 -0.225055,0.010447 -0.246337,0.022776 -0.02885,0.016706 -0.04102,0.080001 -0.04765,0.2487687 l -0.0089,0.2263597 -0.313471,-0.00664 -0.313479,-0.00664 -0.0071,-0.2166646 c -0.0047,-0.1384359 -0.0192,-0.2256366 -0.04007,-0.2415172 -0.01794,-0.013672 -0.136521,-0.02796 -0.263463,-0.031761 l -0.230816,-0.00688 V 5.6149291 5.3310175 l 0.230816,-0.00688 c 0.126942,-0.00379 0.245926,-0.018413 0.264395,-0.032472 0.02229,-0.016999 0.03359,-0.087385 0.03359,-0.2100088 0,-0.2754785 -0.01778,-0.2618447 0.331955,-0.2541015 z"
       id="path6" /><path
       style="fill:#cc0000;fill-opacity:1;stroke-width:0.0700271"
       d="m 46.769175,5.331023 -8e-6,0.2839084 v 0.2839108 l -0.849492,0.00624 c -0.662449,0.0049 -0.854044,-3.367e-4 -0.870189,-0.023661 -0.03406,-0.049266 -0.02576,-0.5015086 0.0098,-0.5341613 0.02355,-0.021598 0.239374,-0.027162 0.870584,-0.022475 z"
       id="path5" /><path
       style="fill:#1900ff;fill-opacity:1;stroke-width:0.0767917"
       d="m 198.01048,54.349094 c -0.0746,0.0079 -0.0749,0.0084 -0.17513,0.245574 -0.27022,0.639831 -0.45445,1.357702 -0.53545,2.086417 -0.0324,0.291219 -0.0324,1.116955 -1.6e-4,1.401928 0.0824,0.726483 0.24767,1.372275 0.51017,1.993283 l 0.10397,0.245952 0.22789,0.01327 c 0.12533,0.0073 0.39703,0.0039 0.60376,-0.0075 0.89285,-0.04945 1.59749,-0.217074 2.2248,-0.529253 0.86214,-0.429028 1.37707,-1.069432 1.54815,-1.925344 0.0253,-0.126501 0.0353,-0.276986 0.0356,-0.531964 3.8e-4,-0.389687 -0.0247,-0.556758 -0.13178,-0.878188 -0.39598,-1.188595 -1.69396,-1.962695 -3.53352,-2.107359 -0.25913,-0.02038 -0.71594,-0.0239 -0.87832,-0.0068 z m 0.77571,0.514622 c 1.5014,0.106971 2.5954,0.648581 3.03696,1.503514 0.30074,0.582275 0.30507,1.337417 0.0112,1.939278 -0.166,0.339907 -0.41445,0.615488 -0.76426,0.847758 -0.60308,0.400439 -1.51688,0.645532 -2.43366,0.652743 l -0.38348,0.003 -0.0702,-0.18286 c -0.16439,-0.428087 -0.30295,-1.011547 -0.36192,-1.523835 -0.0434,-0.377555 -0.0434,-1.066716 2.3e-4,-1.442563 0.0631,-0.543713 0.19679,-1.107818 0.37717,-1.591012 l 0.0849,-0.227432 0.10424,2.3e-4 c 0.0574,7.7e-5 0.2368,0.0096 0.39884,0.02119 z M 193.502,54.6852 c -0.13302,0.0894 -0.13302,0.306123 0,0.395519 l 0.0695,0.04674 1.67438,-0.0054 1.67437,-0.0054 0.0593,-0.06635 c 0.0486,-0.05444 0.0593,-0.08448 0.0593,-0.167302 0,-0.08282 -0.0106,-0.112859 -0.0593,-0.167301 l -0.0593,-0.06635 -1.67437,-0.0054 -1.67438,-0.0054 z m 0.0298,1.213245 c -0.18766,0.07582 -0.166,0.39388 0.0304,0.446771 0.0548,0.01474 0.53624,0.01999 1.49279,0.01627 1.39739,-0.0054 1.41261,-0.006 1.46937,-0.04806 0.0315,-0.02342 0.0692,-0.07807 0.0837,-0.121457 0.0226,-0.06767 0.0217,-0.09128 -0.007,-0.166114 -0.0594,-0.155444 0.0273,-0.14748 -1.588,-0.146033 -0.79117,7.06e-4 -1.4578,0.0091 -1.4814,0.01862 z m -0.0607,1.288553 c -0.0564,0.05645 -0.0691,0.08455 -0.0691,0.153719 0,0.09635 0.0262,0.157817 0.0887,0.208502 0.0401,0.03244 0.14296,0.03514 1.35618,0.03555 1.29384,4.45e-4 1.3136,-1.54e-4 1.36588,-0.04127 0.11693,-0.09198 0.1094,-0.311137 -0.0133,-0.38593 -0.0624,-0.03804 -0.11302,-0.0395 -1.36208,-0.03957 l -1.29729,-7.7e-5 z m 0.0196,1.206313 c -0.0625,0.05069 -0.0887,0.112151 -0.0887,0.208502 0,0.06916 0.0127,0.09727 0.0691,0.153719 l 0.0691,0.06908 1.45984,-7.6e-5 c 1.41004,-7.3e-5 1.46203,-0.0014 1.52461,-0.03957 0.12267,-0.0748 0.13019,-0.293948 0.0133,-0.38593 -0.0524,-0.04122 -0.0706,-0.04172 -1.52843,-0.04127 -1.36722,4.23e-4 -1.47855,0.003 -1.51871,0.03555 z m 0.0578,1.205806 c -0.14671,0.04272 -0.19682,0.265729 -0.0873,0.388369 l 0.0593,0.06635 1.62741,0.0054 c 1.8278,0.0061 1.71816,0.0149 1.77831,-0.142598 0.0286,-0.07484 0.0296,-0.09844 0.007,-0.166113 -0.0145,-0.04339 -0.0522,-0.09804 -0.0838,-0.121457 -0.057,-0.0423 -0.0677,-0.0426 -1.64574,-0.04601 -0.9627,-0.002 -1.6147,0.0042 -1.65519,0.01602 z"
       id="path11" /><path
       style="fill:#0ead00;fill-opacity:1;stroke-width:0.0994144"
       d="m 226.1139,54.501878 c -0.65057,0.695369 -0.94603,1.692042 -0.78204,2.638009 0.0986,0.568729 0.33825,1.075557 0.71776,1.517954 l 0.12974,0.151245 h -0.58128 c -0.54375,0 -0.58128,0.0031 -0.58128,0.04769 0,0.02623 0.0355,0.08171 0.0789,0.123288 0.0434,0.04158 0.0789,0.09932 0.0789,0.128298 0,0.03118 -0.10203,0.156544 -0.24989,0.307037 -0.13743,0.139887 -0.24989,0.27557 -0.24989,0.301519 0,0.02595 0.13251,0.181482 0.29447,0.34563 0.21583,0.21876 0.31164,0.298452 0.35878,0.298452 0.0458,0 0.1373,-0.0717 0.31867,-0.249883 0.13988,-0.137437 0.26995,-0.249884 0.28904,-0.249884 0.0191,0 0.0806,0.04143 0.1366,0.09206 0.056,0.05064 0.11371,0.09206 0.12813,0.09206 0.0216,0 0.0463,-1.012464 0.0281,-1.151104 -0.003,-0.01826 0.10586,0.05294 0.24055,0.158233 0.38285,0.299277 0.7831,0.490067 1.2645,0.602774 0.32572,0.07626 0.95187,0.08201 1.28123,0.01177 1.23183,-0.262698 2.17406,-1.205365 2.43501,-2.436151 0.066,-0.311191 0.0663,-0.930573 6e-4,-1.236268 -0.11768,-0.547812 -0.39749,-1.094314 -0.75754,-1.479575 -0.11857,-0.126868 -0.15579,-0.151245 -0.23096,-0.151245 -0.0783,0 -0.12212,0.03251 -0.34752,0.257903 -0.2292,0.2292 -0.2579,0.268267 -0.2579,0.351021 0,0.115988 0.066,0.180183 0.1853,0.180183 0.0705,0 0.1147,-0.02523 0.21241,-0.121474 0.0687,-0.06765 0.13629,-0.113466 0.15257,-0.103402 0.052,0.03213 0.29609,0.411986 0.37094,0.577229 0.0981,0.216459 0.20451,0.574141 0.22589,0.758972 l 0.0174,0.151245 h -0.18278 c -0.21966,0 -0.29792,0.05183 -0.29792,0.197277 0,0.145401 0.0783,0.197277 0.29769,0.197277 h 0.18256 l -0.0178,0.157214 c -0.0454,0.401621 -0.28611,0.968555 -0.5362,1.263022 l -0.0781,0.0919 -0.13341,-0.124785 c -0.15012,-0.140417 -0.25581,-0.162459 -0.34609,-0.07218 -0.0921,0.09211 -0.0693,0.204825 0.07,0.346315 0.14432,0.146521 0.14597,0.142366 -0.12881,0.326717 -0.25236,0.169317 -0.61202,0.321676 -0.90132,0.381815 -0.36521,0.07592 -0.3551,0.07904 -0.3551,-0.109649 0,-0.234918 -0.0506,-0.312788 -0.20386,-0.31351 -0.142,-6.66e-4 -0.1907,0.07311 -0.1907,0.288936 0,0.173512 -0.003,0.184105 -0.0592,0.18378 -0.14524,-8.45e-4 -0.55313,-0.107632 -0.77052,-0.20172 -0.22685,-0.09818 -0.57985,-0.313314 -0.64715,-0.394406 -0.026,-0.03136 0.0238,-0.09445 0.28293,-0.358652 0.17299,-0.17633 0.45048,-0.460219 0.61665,-0.630866 l 0.30213,-0.310266 0.13099,0.05807 c 0.39925,0.176991 0.9083,0.03585 1.14947,-0.31871 0.25971,-0.381803 0.21569,-0.861183 -0.10889,-1.185764 -0.19322,-0.193219 -0.38356,-0.270654 -0.6597,-0.268373 -0.23053,0.0019 -0.37608,0.04901 -0.55325,0.179061 -0.33274,0.244254 -0.46271,0.743753 -0.29308,1.126369 l 0.0565,0.127479 -0.6112,0.628411 c -0.33616,0.345626 -0.61865,0.628563 -0.62776,0.628748 -0.0307,6.26e-4 -0.22278,-0.274325 -0.33053,-0.473127 -0.12625,-0.232958 -0.20922,-0.466347 -0.26028,-0.732238 -0.059,-0.307064 -0.0656,-0.293601 0.14414,-0.293601 0.20241,0 0.27774,-0.04017 0.30697,-0.163735 0.0136,-0.05745 8.6e-4,-0.08746 -0.0626,-0.151246 -0.0724,-0.07243 -0.0951,-0.07957 -0.25256,-0.07957 -0.12889,0 -0.17301,-0.0092 -0.17301,-0.03601 0,-0.126157 0.0932,-0.527439 0.16962,-0.730578 0.11221,-0.298182 0.22807,-0.490359 0.49156,-0.81541 l 0.20563,-0.253669 -0.11717,-0.108006 c -0.1683,-0.155128 -0.24742,-0.149396 -0.41534,0.03009 z m 2.48747,1.520612 c 0.19894,0.05524 0.38726,0.299643 0.38726,0.502566 0,0.274884 -0.18726,0.499675 -0.46644,0.559931 -0.13587,0.02932 -0.34595,-0.04545 -0.46222,-0.164524 -0.39408,-0.403579 -0.004,-1.049596 0.5414,-0.897973 z"
       id="path13" /><path
       style="fill:#3a9412;fill-opacity:1;stroke-width:0.393454"
       d="m 166.40119,55.158662 v 0.894435 h -1.09306 -1.09306 v 1.197163 1.197163 h 1.08901 1.08901 l 0.0301,0.908402 0.0301,0.908402 1.50946,-1.441082 c 0.8302,-0.792596 1.50946,-1.477967 1.50946,-1.523049 0,-0.04508 -0.69097,-0.746595 -1.53549,-1.558918 l -1.53549,-1.476951 z m -6.76657,0.631631 c -0.8302,0.786192 -1.51572,1.459732 -1.52337,1.496755 -0.008,0.03702 0.67162,0.721624 1.50947,1.521337 l 1.52337,1.454022 0.0521,-0.881467 0.052,-0.881466 1.06703,-0.02967 1.06704,-0.02967 v -1.193516 -1.193521 h -1.08885 -1.08885 l -0.0303,-0.846122 -0.0302,-0.846122 z"
       id="path14"
       sodipodi:nodetypes="ccccccccccsssccscscccccccccccs" /><path
       d="m 212.43251,55.205236 v 0.894435 h -1.09306 -1.09306 v 1.197163 1.197163 h 1.08901 1.08901 l 0.0301,0.908402 0.0301,0.908402 1.50946,-1.441082 c 0.8302,-0.792596 1.50946,-1.477967 1.50946,-1.523049 0,-0.04508 -0.69097,-0.746595 -1.53549,-1.558918 l -1.53549,-1.476951 z"
       style="fill:#3a9412;fill-opacity:1;stroke-width:0.393454"
       id="path1" /><path
       d="m 181.43997,55.175829 v 0.894435 h 1.09306 1.09306 v 1.197163 1.197163 h -1.08901 -1.08901 l -0.0301,0.908402 -0.0301,0.908402 -1.50946,-1.441082 c -0.8302,-0.792596 -1.50946,-1.477967 -1.50946,-1.523049 0,-0.04508 0.69097,-0.746595 1.53549,-1.558918 l 1.53549,-1.476951 z"
       style="fill:#3a9412;fill-opacity:1;stroke-width:0.393454"
       id="path1-1" /><path
       style="fill:#dcdf00;fill-opacity:1;stroke-width:0.236009"
       d="m 91.604124,2.3063741 c -0.03579,0.043121 -0.08594,0.1625463 -0.111454,0.2653874 -0.02552,0.1028404 -0.169427,0.3385052 -0.319815,0.5236992 -1.039902,1.2805818 -1.098737,2.5552586 -0.177528,3.846218 0.267745,0.3752104 0.28391,0.4212249 0.28391,0.8081714 v 0.410308 h 0.374664 0.374665 V 7.6285011 7.0968442 L 91.737184,6.739106 C 91.038036,5.8807398 90.882713,5.0828009 91.258688,4.28092 91.365344,4.0534452 91.557368,3.7513718 91.685408,3.6096465 L 91.91821,3.351963 h 1.796347 1.796345 l 0.232802,0.2576835 c 0.128041,0.1417253 0.320065,0.4437987 0.42672,0.6712735 0.375975,0.8018809 0.220653,1.5998198 -0.478495,2.458186 l -0.291383,0.3577382 v 0.5316569 0.531657 h 0.374665 0.374665 v -0.410308 c 0,-0.3869465 0.01616,-0.432961 0.283909,-0.8081714 0.616623,-0.8641197 0.796398,-1.7554638 0.52457,-2.6008562 -0.0801,-0.2491254 -0.26927,-0.6367585 -0.420365,-0.8614061 -0.363008,-0.5397136 -0.450558,-0.7146836 -0.450558,-0.900443 0,-0.2312677 -0.164226,-0.3608457 -0.429265,-0.3386991 -0.185725,0.015518 -0.243226,0.055131 -0.320064,0.2205089 -0.117642,0.2531923 -0.374665,0.2914929 -0.374665,0.055833 0,-0.081653 -0.04519,-0.1859691 -0.100423,-0.2318084 -0.08532,-0.070815 -0.113491,-0.065474 -0.187333,0.035511 -0.0478,0.065367 -0.08691,0.1696839 -0.08691,0.2318084 0,0.071327 -0.04603,0.1129528 -0.124887,0.1129528 -0.08987,0 -0.124889,-0.041627 -0.124889,-0.1484642 0,-0.2051424 -0.155522,-0.3303365 -0.280998,-0.2262003 -0.05152,0.042758 -0.09367,0.144545 -0.09367,0.2262003 0,0.1233311 -0.03171,0.1484642 -0.187332,0.1484642 -0.155619,0 -0.187332,-0.025135 -0.187332,-0.1484642 0,-0.081653 -0.04519,-0.185969 -0.100424,-0.2318083 -0.08532,-0.070815 -0.11349,-0.065474 -0.187331,0.035511 -0.0478,0.065367 -0.08691,0.1717442 -0.08691,0.2363871 0,0.1959924 -0.213132,0.101376 -0.249908,-0.1109428 -0.04535,-0.2618265 -0.266824,-0.261285 -0.311772,7.552e-4 -0.02539,0.1480425 -0.06808,0.1914764 -0.203556,0.2070914 -0.136255,0.0157 -0.171425,-0.00578 -0.171425,-0.1048173 0,-0.06852 -0.04415,-0.1687321 -0.09813,-0.2227021 C 92.062821,2.2087029 91.695605,2.1961314 91.604117,2.30637 Z m 1.860656,1.732474 c -0.150298,0.1502983 -0.156153,0.239797 -0.02769,0.4232146 0.183226,0.2615937 0.652122,0.1044466 0.652122,-0.2185542 0,-0.1228128 -0.235038,-0.3295483 -0.374665,-0.3295483 -0.06869,0 -0.181088,0.056196 -0.249776,0.1248879 z m 0.09694,1.1396044 c -0.06488,0.300543 -0.278156,2.5039703 -0.247214,2.554036 0.01802,0.029153 0.198041,0.053005 0.400054,0.053005 0.202011,0 0.382034,-0.023852 0.400052,-0.053005 0.03095,-0.050066 -0.182335,-2.253493 -0.247214,-2.554036 -0.01893,-0.087654 -0.07641,-0.1404987 -0.152838,-0.1404987 -0.07643,0 -0.133918,0.052845 -0.15284,0.1404987 z"
       id="path16"
       sodipodi:nodetypes="ssssscccccssscccssscccccsssssssssssssssssssssssssssssssssssssss" /><path
       style="fill:#ff0202;fill-opacity:1;stroke-width:0.100909"
       d="M 76.007548,2.2058127 C 75.843894,2.2397508 75.700183,2.321564 75.589999,2.4435252 75.406195,2.6469739 75.400941,2.673638 75.390064,3.4582958 L 75.380288,4.163501 74.961785,3.7488601 C 74.731608,3.5208076 74.521496,3.3266985 74.494868,3.3175063 c -0.06642,-0.022926 -0.19517,0.048377 -0.21343,0.1182009 -0.0082,0.031535 -0.0047,0.083075 0.0078,0.1145392 0.01255,0.031461 0.264069,0.2973842 0.558926,0.5909339 l 0.536103,0.5337266 V 5.2213971 5.7678879 L 74.961905,5.3484671 c -0.358391,-0.355871 -0.434626,-0.4194203 -0.503141,-0.4194203 -0.13552,0 -0.220945,0.1422175 -0.157376,0.2620049 0.02094,0.039449 0.273155,0.3058974 0.560487,0.5921014 l 0.52242,0.520371 1.52e-4,0.3206427 c 8.5e-5,0.1763539 0.01174,0.3913733 0.0259,0.477821 0.06182,0.3774745 0.333745,0.7421759 0.679852,0.9117974 0.233958,0.1146585 0.515178,0.1581086 0.875815,0.1353189 0.46311,-0.029265 0.776844,-0.1811592 1.012087,-0.4900001 0.207934,-0.2729868 0.24409,-0.4018534 0.256596,-0.9145355 l 0.01075,-0.4405309 0.558492,-0.562095 c 0.594243,-0.5980774 0.617425,-0.6327751 0.504054,-0.7544637 -0.113465,-0.1217904 -0.168368,-0.089961 -0.613033,0.3553999 -0.227253,0.227608 -0.422342,0.413832 -0.433533,0.413832 -0.01119,0 -0.02035,-0.2429342 -0.02035,-0.5398543 V 4.6770016 l 0.560676,-0.5628922 c 0.370696,-0.3721616 0.560676,-0.581764 0.560676,-0.6185878 0,-0.092582 -0.08823,-0.1773061 -0.184647,-0.1773061 -0.07564,0 -0.137922,0.051676 -0.509813,0.423021 l -0.423645,0.4230209 -0.0083,-0.7189332 -0.0083,-0.7189332 -0.07873,-0.1421325 C 78.059804,2.4232573 77.92594,2.3060319 77.756235,2.2403279 c -0.09721,-0.037635 -0.238485,-0.045884 -0.876799,-0.051194 -0.418505,-0.0035 -0.810853,0.00403 -0.871885,0.016683 z m 1.644297,0.3861251 c 0.04158,0.021499 0.107057,0.076486 0.145518,0.1221935 0.06394,0.075987 0.06993,0.1033918 0.06993,0.319983 v 0.2368786 l -0.09259,-0.038686 c -0.07442,-0.031095 -0.263199,-0.038686 -0.962017,-0.038686 -0.698818,0 -0.887596,0.00759 -0.962016,0.038686 l -0.09259,0.038686 V 3.0493636 c 0,-0.185972 0.0097,-0.2362257 0.0606,-0.3123493 0.118077,-0.1767517 0.157946,-0.1840778 1.002,-0.1841239 0.61122,-3.4e-5 0.77001,0.00743 0.831159,0.039046 z m 0.0269,0.9975544 c 0.186173,0.099846 0.188569,0.1151895 0.188277,1.2056434 -2.62e-4,0.9679639 -6.89e-4,0.9758782 -0.06312,1.1084192 -0.0803,0.170545 -0.174187,0.2695946 -0.316969,0.3344048 -0.100679,0.045698 -0.177271,0.051554 -0.674257,0.051554 -0.644024,0 -0.706022,-0.01516 -0.876479,-0.2143001 -0.168708,-0.1970966 -0.178131,-0.2661265 -0.178085,-1.3045329 4.7e-5,-1.0296858 0.003,-1.0483645 0.184124,-1.1693714 0.08913,-0.059542 0.104348,-0.060605 0.86813,-0.060605 0.701925,0 0.786243,0.00472 0.868376,0.048785 z m -1.522904,3.0369932 c 0.138545,0.034956 0.279798,0.041173 0.747568,0.032914 0.533493,-0.00943 0.587194,-0.014842 0.716074,-0.07223 0.07663,-0.034124 0.153192,-0.078747 0.170137,-0.099164 0.06396,-0.077062 0.07767,-0.028299 0.0778,0.276589 9.7e-5,0.2313816 -0.01216,0.3483933 -0.04672,0.4458626 -0.06336,0.1787039 -0.286578,0.4169537 -0.467083,0.4985388 -0.127832,0.057778 -0.176425,0.063481 -0.540931,0.063481 -0.383564,0 -0.406846,-0.00313 -0.551105,-0.073968 -0.176222,-0.08654 -0.351327,-0.2657913 -0.431748,-0.4419691 -0.04675,-0.1024216 -0.05879,-0.1885882 -0.06702,-0.4799137 l -0.01004,-0.3550784 0.116121,0.08092 c 0.06387,0.044505 0.192992,0.1003152 0.286944,0.1240204 z"
       id="path17" /><circle
       style="fill:#ff0202;fill-opacity:1;stroke-width:0.125"
       id="path18"
       cx="243.85182"
       cy="40.612698"
       transform="scale(1,-1)"
       r="2" /><circle
       style="fill:#ff0202;fill-opacity:1;stroke-width:0.125"
       id="path18-6"
       cx="68.180443"
       cy="42.484627"
       transform="scale(1,-1)"
       r="2" /></g><g
     inkscape:groupmode="layer"
     id="layer3"
     inkscape:label="Stanzen"
     transform="translate(0.38099424,-0.554634)"><rect
       style="fill:#000000;fill-opacity:1;stroke:none;stroke-width:0.25;stroke-dasharray:none;stroke-opacity:1"
       id="rect182"
       width="112"
       height="4.4000001"
       x="137.64903"
       y="25.83115"
       inkscape:label="2x LED BAR FUEL GALLONS"
       rx="1.2"
       ry="1.2" /><rect
       style="fill:#000000;fill-opacity:1;stroke:none;stroke-width:0.25;stroke-dasharray:none;stroke-opacity:1"
       id="rect3"
       width="14.9"
       height="5.0999999"
       x="137.42101"
       y="16.769342"
       rx="2.55"
       ry="2.55"
       inkscape:label="3x LED 5mm FUEL GALLONS" /><rect
       style="fill:#000000;fill-opacity:1;stroke:none;stroke-width:0.221214;stroke-dasharray:none;stroke-opacity:1"
       id="rect182-7"
       width="87.692467"
       height="4.4000001"
       x="15.859381"
       y="77.998169"
       inkscape:label="2x LED BAR FUEL GALLONS"
       rx="0.9395622"
       ry="1.2" /><rect
       style="fill:#000000;fill-opacity:1;stroke:none;stroke-width:0.25;stroke-dasharray:none;stroke-opacity:1"
       id="rect3-0"
       width="14.9"
       height="5.0999999"
       x="15.631353"
       y="68.936363"
       rx="2.55"
       ry="2.55"
       inkscape:label="3x LED 5mm FUEL GALLONS" /><rect
       style="fill:#000000;fill-opacity:1;stroke:none;stroke-width:0.25;stroke-dasharray:none;stroke-opacity:1"
       id="rect3-9-8-2"
       width="9"
       height="3"
       x="257.67874"
       y="114.94401"
       rx="1.5"
       ry="1.5"
       inkscape:label="Befestigung unten rechts" /><rect
       style="fill:#000000;fill-opacity:1;stroke:none;stroke-width:0.25;stroke-dasharray:none;stroke-opacity:1"
       id="rect3-9-8-2-6"
       width="9"
       height="3"
       x="48.965424"
       y="117.259"
       rx="1.5"
       ry="1.5"
       inkscape:label="Befestigung unten links" /><rect
       style="fill:#000000;fill-opacity:1;stroke:none;stroke-width:0.25;stroke-dasharray:none;stroke-opacity:1"
       id="rect3-9-8"
       width="9"
       height="3"
       x="260.76538"
       y="7.3149934"
       rx="1.5"
       ry="1.5"
       inkscape:label="Befestigung oben rechts" /><rect
       style="fill:#000000;fill-opacity:1;stroke:none;stroke-width:0.25;stroke-dasharray:none;stroke-opacity:1"
       id="rect3-9"
       width="9"
       height="3"
       x="170.50253"
       y="6.9291611"
       rx="1.5"
       ry="1.5"
       inkscape:label="Befestigung oben links" /><rect
       style="fill:#000000;fill-opacity:1;stroke:none;stroke-width:0.25;stroke-dasharray:none;stroke-opacity:1"
       id="rect3-9-0"
       width="9"
       height="3"
       x="33.286129"
       y="49.405296"
       rx="1.5"
       ry="1.5"
       inkscape:label="Befestigung oben links"
       transform="rotate(-23.793382)" /><path
       style="fill:#ff0000;fill-opacity:1;stroke-width:0.103915"
       d="m 58.819832,73.941336 c -0.687436,-0.482768 -1.206515,-1.289182 -1.399018,-2.17345 -0.07174,-0.329566 -0.07174,-1.100132 0,-1.429697 0.133204,-0.611865 0.414638,-1.178811 0.814088,-1.639971 0.15333,-0.177019 0.505327,-0.493769 0.631617,-0.56837 l 0.08048,-0.04754 0.110025,0.162016 0.110021,0.162014 -0.120668,0.08666 c -0.447523,0.321385 -0.850422,0.839511 -1.060197,1.363396 -0.536314,1.339383 -0.12028,2.864479 1.014007,3.717135 0.116034,0.08723 0.216058,0.161973 0.222269,0.166103 0.01546,0.01028 -0.08144,0.187305 -0.148904,0.271974 l -0.05513,0.06919 z m 3.910789,-0.01298 c -0.05303,-0.08291 -0.09611,-0.160627 -0.09573,-0.172695 4.13e-4,-0.01207 0.06285,-0.06411 0.138809,-0.115633 0.343051,-0.232742 0.721599,-0.657077 0.949111,-1.063902 0.125644,-0.224671 0.266123,-0.617491 0.32837,-0.918217 0.05888,-0.284442 0.06632,-0.834894 0.01526,-1.127262 -0.137134,-0.784893 -0.575493,-1.518792 -1.184656,-1.983357 l -0.18804,-0.143408 0.109699,-0.161544 0.1097,-0.161542 0.07903,0.05004 c 0.04349,0.02752 0.159603,0.116686 0.25807,0.198142 0.580917,0.480554 1.015123,1.214878 1.188053,2.00921 0.07174,0.329565 0.07174,1.100132 0,1.429698 -0.18758,0.861648 -0.681417,1.646243 -1.342469,2.132883 -0.272736,0.200774 -0.255247,0.199452 -0.36519,0.02759 z m -2.076019,-0.208529 c -0.583105,-0.0564 -1.142891,-0.318801 -1.576984,-0.739197 -0.265212,-0.256848 -0.425596,-0.477019 -0.566474,-0.777641 -0.638531,-1.362587 -0.05647,-2.956828 1.310076,-3.588208 0.635387,-0.293567 1.409919,-0.316682 2.070625,-0.0618 0.461806,0.178156 0.940155,0.548741 1.227454,0.950932 0.256188,0.358634 0.43115,0.836161 0.476921,1.301672 0.12344,1.255386 -0.695359,2.465225 -1.905835,2.816006 -0.200989,0.05824 -0.689748,0.133348 -0.794121,0.122026 -0.01949,-0.0022 -0.128249,-0.01282 -0.241662,-0.02379 z m 0.707424,-0.428195 c 1.079108,-0.222895 1.84954,-1.155389 1.84954,-2.238597 0,-1.246937 -1.035085,-2.282017 -2.282019,-2.282017 -1.414325,0 -2.508689,1.316631 -2.243281,2.698885 0.237949,1.239226 1.461824,2.072475 2.67576,1.821729 z m -1.092342,-2.209899 v -1.34842 l 0.460528,2.09e-4 c 0.819591,3.74e-4 1.102028,0.09428 1.280998,0.425952 0.04949,0.09175 0.05934,0.155548 0.05934,0.384918 0,0.256141 -0.0058,0.285283 -0.08479,0.42616 -0.16161,0.288198 -0.422674,0.404816 -0.966254,0.431626 l -0.336199,0.01658 -0.0075,0.49762 -0.0075,0.497619 -0.199334,0.0081 -0.19933,0.0081 z m 1.14556,-0.08721 c 0.189462,-0.09499 0.240209,-0.179412 0.250738,-0.417156 0.01634,-0.368717 -0.137051,-0.48442 -0.673583,-0.508097 l -0.310301,-0.01369 v 0.516371 0.516371 l 0.301541,-0.01429 c 0.243394,-0.01154 0.326622,-0.02687 0.431605,-0.0795 z"
       id="path12" /><circle
       style="fill:#ff0202;fill-opacity:1;stroke-width:0.125"
       id="path18-1"
       cx="154.30365"
       cy="118.14544"
       r="2" /></g></svg>
